<svg id="Capa_1" enable-background="new 0 0 512 512" height="512" viewBox="0 0 512 512" width="512" xmlns="http://www.w3.org/2000/svg"><g><g><g><g><g><path d="m368.375 366.765c74.247-2.645 133.625-63.668 133.625-138.561 0-76.575-62.076-138.651-138.651-138.651h-214.698c-76.575 0-138.651 62.076-138.651 138.651 0 74.892 59.378 135.915 133.625 138.561" fill="#b6bccf"/></g></g></g><g><g><g><path d="m212.64 288.323h-22.077c-25.923 0-46.938 21.015-46.938 46.938v31.595h69.015z" fill="#fff7bf"/></g></g><g><g><g><path d="m321.438 288.323h-22.078v78.533h69.015v-31.596c0-25.923-21.015-46.937-46.937-46.937z" fill="#fff7bf"/></g></g></g><g><g><g><path d="m299.36 422.447-43.36-22.947-43.36 22.947v-134.124h86.72z" fill="#ffbdbc"/></g></g></g></g><g><g><g><ellipse cx="79.257" cy="204.404" fill="#f5eeec" rx="64.958" ry="64.958" transform="matrix(.23 -.973 .973 .23 -137.889 234.579)"/></g></g></g><g><g><g><ellipse cx="432.743" cy="204.404" fill="#f5eeec" rx="64.958" ry="64.958" transform="matrix(.973 -.23 .23 .973 -35.386 104.892)"/></g></g></g></g><g><g><path d="m363.349 79.553h-62.104c-5.522 0-10 4.478-10 10 0 5.523 4.478 10 10 10h62.104c32.101 0 61.494 11.818 84.056 31.332-4.743-.944-9.645-1.439-14.661-1.439-41.332 0-74.958 33.626-74.958 74.959 0 41.332 33.626 74.958 74.958 74.958 22.717 0 43.105-10.158 56.863-26.17-10.574 54.386-55.076 96.353-111.231 102.802v-20.735c0-31.396-25.542-56.938-56.938-56.938h-130.875c-31.395 0-56.938 25.542-56.938 56.938v20.735c-56.156-6.449-100.658-48.416-111.231-102.802 13.758 16.012 34.146 26.17 56.863 26.17 41.332 0 74.958-33.626 74.958-74.958 0-41.333-33.626-74.959-74.958-74.959-5.016 0-9.918.495-14.661 1.439 22.562-19.514 51.955-31.332 84.056-31.332h63.593c5.523 0 10-4.477 10-10 0-5.522-4.477-10-10-10h-63.593c-81.967 0-148.652 66.684-148.652 148.651 0 38.769 14.838 75.463 41.781 103.324 26.553 27.459 62.053 43.468 100.097 45.175.567.1 1.151.152 1.747.152h59.015v45.592c0 3.507 1.837 6.758 4.842 8.566 3.003 1.81 6.735 1.912 9.836.272l38.682-20.47 38.683 20.472c1.466.775 3.072 1.161 4.678 1.161 1.789 0 3.575-.479 5.158-1.434 3.005-1.809 4.842-5.06 4.842-8.566v-45.592h59.015c.596 0 1.18-.052 1.747-.152 38.044-1.707 73.544-17.716 100.097-45.175 26.942-27.862 41.78-64.556 41.78-103.325 0-81.967-66.685-148.651-148.651-148.651zm-229.134 124.851c0 30.304-24.654 54.958-54.958 54.958s-54.958-24.654-54.958-54.958c0-30.305 24.654-54.959 54.958-54.959s54.958 24.655 54.958 54.959zm19.41 152.451v-21.595c0-20.367 16.57-36.938 36.938-36.938h12.077v58.533zm135.735 48.986-28.683-15.18c-1.463-.774-3.07-1.161-4.678-1.161-1.607 0-3.215.387-4.678 1.161l-28.683 15.18v-107.519h66.721v107.519zm69.015-48.986h-49.015v-58.533h12.077c20.367 0 36.938 16.57 36.938 36.938zm74.368-97.493c-30.304 0-54.958-24.654-54.958-54.958 0-30.305 24.654-54.959 54.958-54.959s54.958 24.654 54.958 54.959c0 30.304-24.654 54.958-54.958 54.958z"/></g><g><g><g><g><g><path d="m296.681 227.477h-81.361c-5.522 0-10-4.477-10-10 0-5.522 4.478-10 10-10h81.361c5.522 0 10 4.478 10 10 0 5.523-4.478 10-10 10z"/></g></g></g></g><g><g><g><g><path d="m296.681 174.322h-81.361c-5.522 0-10-4.478-10-10s4.478-10 10-10h81.361c5.522 0 10 4.478 10 10 0 5.523-4.478 10-10 10z"/></g></g></g></g></g><g><g><g><g><path d="" fill="#bd7557"/></g></g></g><g><g><g><path d="m257.08 99.55c-4.175 0-8.01-2.696-9.415-6.63-1.385-3.877-.201-8.331 2.946-10.992 3.283-2.777 8.091-3.123 11.746-.864 3.498 2.163 5.333 6.415 4.523 10.446-.928 4.617-5.089 8.04-9.8 8.04z"/></g></g></g></g><g><g><g><g><path d="m404.904 203.57c11.664-11.664 30.643-11.662 42.309.003 3.905 3.905 3.905 10.237 0 14.142s-10.237 3.905-14.142 0c-3.867-3.867-10.159-3.869-14.024-.003-3.905 3.905-10.237 3.905-14.142 0-3.906-3.905-3.906-10.236-.001-14.142z"/></g></g></g></g><g><g><g><g><path d="m107.318 203.57c3.905 3.905 3.905 10.237 0 14.142s-10.237 3.905-14.142 0c-3.866-3.866-10.157-3.864-14.024.003-3.905 3.905-10.237 3.905-14.142 0s-3.905-10.237 0-14.142c11.665-11.665 30.645-11.666 42.308-.003z"/></g></g></g></g></g></g></svg>