<svg id="Capa_1" enable-background="new 0 0 512.025 512.025" height="512" viewBox="0 0 512.025 512.025" width="512" xmlns="http://www.w3.org/2000/svg"><g><g><g><g><g><path clip-rule="evenodd" d="m437.972 331.025c0 28.86-6.73 55.26-18.72 78.23-29.7 56.92-91.64 92.77-163.24 92.77s-133.54-35.85-163.24-92.77c-11.99-22.97-18.72-49.37-18.72-78.23 0-86.26 60.16-240.994 140.86-271.564 13.21-5 26.97-7.75 41.1-7.75 16.46 0 32.41 3.73 47.58 10.4 77.42 34.08 134.38 184.974 134.38 268.914z" fill="#cfd3df" fill-rule="evenodd"/></g></g></g><g><g><g><path clip-rule="evenodd" d="m303.059 338.12c50.918 10.17 93.079 36.454 116.197 71.136-29.703 56.916-91.645 92.769-163.244 92.769s-133.541-35.853-163.244-92.769c23.128-34.696 65.314-60.987 116.261-71.148" fill="#e7e9ef" fill-rule="evenodd"/></g></g><g><g><g><path clip-rule="evenodd" d="m387.233 140.583c19.669 1.775 38.267 1.006 52.899-5.41 33.036-14.487 48.072-53.012 33.585-86.048s-53.012-48.072-86.048-33.585c-21.551 9.451-44.052 31.783-54.462 56.731" fill="#e7e9ef" fill-rule="evenodd"/></g></g><g><g><g><path clip-rule="evenodd" d="m178.831 72.302c-10.403-24.959-32.916-47.307-54.475-56.762-33.036-14.487-71.561.549-86.048 33.585s.549 71.561 33.585 86.048c14.64 6.42 33.253 7.188 52.933 5.407" fill="#e7e9ef" fill-rule="evenodd"/></g></g></g><g><g><g><g><path clip-rule="evenodd" d="m397.042 99.111c-12.897 0-21.977-2.665-26.369-4.789 1.14-3.754 4.092-10.105 10.012-17.598 8.417-10.652 18.448-18.167 24.654-20.889 2.741-1.202 5.609-1.812 8.527-1.812 8.477 0 16.152 5.013 19.554 12.771 3.085 7.035 1.535 13.238.336 16.311-1.199 3.071-4.261 8.686-11.296 11.771-4.666 2.048-13.795 4.235-25.418 4.235z" fill="#ffbdbc" fill-rule="evenodd"/></g></g></g><g><g><g><path clip-rule="evenodd" d="m114.985 99.111c-11.626-.001-20.755-2.188-25.421-4.234-7.035-3.085-10.097-8.699-11.296-11.771s-2.749-9.275.335-16.311c3.402-7.759 11.078-12.771 19.555-12.771 2.918 0 5.786.609 8.527 1.812 6.207 2.722 16.237 10.236 24.654 20.889 5.92 7.492 8.872 13.844 10.012 17.599-4.391 2.123-13.468 4.788-26.36 4.788-.002-.001-.004-.001-.006-.001z" fill="#ffbdbc" fill-rule="evenodd"/></g></g></g><g><g><g><path clip-rule="evenodd" d="m202.665 308.988c0-29.463 53.347-140.544 53.347-140.544s53.347 111.082 53.347 140.544c0 29.463-23.884 53.347-53.347 53.347-29.462 0-53.347-23.884-53.347-53.347z" fill="#f5eeec" fill-rule="evenodd"/></g></g></g><g><g><g><g><path d="m256.156 378.539c-.095-.895-.144-1.804-.144-2.724 0 .92-.049 1.829-.143 2.724z" fill="none"/></g></g></g></g></g></g></g></g><g><path d="m444.147 144.331c38.033-16.679 55.406-61.189 38.729-99.222-8.079-18.425-22.851-32.6-41.591-39.914-18.741-7.313-39.21-6.893-57.632 1.187-22.045 9.667-43.49 30.52-55.651 53.53-7.622-4.765-15.682-8.494-24.165-10.836-5.326-1.463-10.831 1.653-12.302 6.977-1.47 5.324 1.654 10.831 6.977 12.302 31.973 8.829 65.362 47.769 91.609 106.836 22.997 51.752 37.856 112.922 37.856 155.836 0 20.797-3.651 40.538-10.872 58.888-23.961-27.95-59.811-48.928-101.567-59.252 2.471-6.765 3.82-14.065 3.82-21.674 0-30.849-48.771-133.293-54.332-144.873-1.665-3.466-5.17-5.671-9.015-5.671s-7.35 2.205-9.015 5.671c-5.561 11.58-54.332 114.024-54.332 144.873 0 7.61 1.349 14.91 3.82 21.675-41.756 10.322-77.606 31.298-101.568 59.25-7.221-18.349-10.871-38.089-10.871-58.887 0-42.944 14.882-104.143 37.912-155.91 26.284-59.08 59.718-98.011 91.728-106.811 5.326-1.464 8.456-6.968 6.992-12.293-1.465-5.326-6.973-8.454-12.293-6.992-8.551 2.351-16.673 6.109-24.35 10.915-12.159-23.02-33.608-43.882-55.664-53.554-18.422-8.08-38.89-8.501-57.632-1.187-18.738 7.315-33.51 21.49-41.589 39.915-16.678 38.032.695 82.543 38.729 99.222 10.779 4.728 23.952 7.067 39.962 7.066 1.05 0 2.113-.01 3.188-.03-2.751 5.546-5.2 10.807-7.341 15.619-24.08 54.126-39.64 118.516-39.64 164.04 0 29.735 6.681 57.614 19.857 82.862.032.061.065.122.098.182 31.63 60.426 97.519 97.954 172.011 97.954 74.487 0 140.373-37.524 172.006-97.944.036-.065.071-.131.106-.197 13.175-25.248 19.855-53.125 19.855-82.857 0-45.492-15.536-109.85-39.579-163.958-2.149-4.836-4.609-10.125-7.374-15.701 1.064.02 2.115.03 3.155.03 16.012-.001 29.189-2.341 39.965-7.067zm-368.237-18.316c-27.934-12.249-40.693-44.94-28.444-72.874 5.934-13.531 16.782-23.941 30.546-29.314 13.764-5.371 28.796-5.063 42.329.871 18.788 8.239 37.767 27.351 47.451 47.429-6.146 5.395-11.941 11.393-17.377 17.753-1.421-4.037-4.554-10.908-11.229-19.356-8.341-10.556-19.521-19.916-28.484-23.847-4.016-1.761-8.235-2.653-12.544-2.653-12.446 0-23.717 7.362-28.713 18.756-4.532 10.335-2.254 19.449-.493 23.961 1.761 4.513 6.259 12.762 16.595 17.293 7.245 3.179 18.249 5.076 29.438 5.077h.007c9.817 0 17.37-1.362 22.684-2.845-5.744 8.077-10.967 16.384-15.651 24.517-19.977 1.635-35.079.073-46.115-4.768zm51.316-37.9c-3.483.597-7.612.996-12.235.996h-.005c-10.795-.001-18.533-2.133-21.406-3.393-3.735-1.638-5.359-4.617-5.996-6.248s-1.46-4.925.178-8.659c1.808-4.123 5.889-6.787 10.396-6.787 1.526 0 3.044.326 4.511.97 4.095 1.796 13.02 8.053 20.824 17.93 1.482 1.876 2.714 3.615 3.733 5.191zm128.786 103.871c19.54 42.541 43.347 99.957 43.347 117.002 0 23.901-19.445 43.347-43.347 43.347s-43.347-19.445-43.347-43.347c.001-17.045 23.807-74.461 43.347-117.002zm0 300.039c-64.872 0-122.323-31.308-151.485-82.112 21.868-29.531 58.619-51.528 102.244-61.115 11.623 14.349 29.379 23.538 49.241 23.538s37.618-9.189 49.241-23.538c43.626 9.588 80.377 31.585 102.244 61.116-29.162 50.803-86.613 82.111-151.485 82.111zm118.391-385.744c5.313 1.478 12.85 2.831 22.639 2.831 11.184 0 22.186-1.897 29.434-5.076 10.338-4.532 14.836-12.781 16.596-17.293 1.762-4.513 4.04-13.627-.492-23.962-4.996-11.394-16.267-18.756-28.713-18.756-4.309 0-8.528.893-12.544 2.653-8.963 3.931-20.143 13.291-28.484 23.848-6.653 8.42-9.786 15.273-11.214 19.315-5.435-6.359-11.231-12.355-17.376-17.746 9.689-20.064 28.661-39.162 47.436-47.396 13.533-5.934 28.565-6.243 42.329-.871s24.612 15.782 30.546 29.314c12.249 27.934-.511 60.625-28.443 72.874-11.027 4.836-26.115 6.402-46.079 4.771-4.681-8.131-9.898-16.434-15.635-24.506zm10.396-18.166c1.02-1.576 2.25-3.315 3.732-5.19 7.805-9.878 16.73-16.135 20.824-17.931 1.467-.643 2.984-.97 4.511-.97 4.508 0 8.589 2.664 10.396 6.787 1.638 3.734.814 7.028.177 8.66-.636 1.63-2.26 4.609-5.996 6.247-2.873 1.26-10.613 3.393-21.401 3.393-4.626 0-8.759-.399-12.243-.996z"/><g><g><g><g><path d="m256.156 457.932c-12.168 0-23.607-4.738-32.212-13.342-3.905-3.905-3.905-10.237 0-14.143 3.906-3.904 10.236-3.904 14.143 0 9.963 9.965 26.176 9.965 36.139 0 3.906-3.904 10.236-3.904 14.143 0 3.905 3.905 3.905 10.237 0 14.143-8.606 8.603-20.045 13.342-32.213 13.342z"/></g></g></g></g><g><g><g><g><g><path d="m278.792 418.199c-5.522 0-10-4.478-10-10v-16.545c0-5.522 4.478-10 10-10 5.523 0 10 4.478 10 10v16.545c0 5.523-4.478 10-10 10z"/></g></g></g></g><g><g><g><g><path d="m233.519 418.199c-5.522 0-10-4.478-10-10v-16.545c0-5.522 4.478-10 10-10 5.523 0 10 4.478 10 10v16.545c0 5.523-4.477 10-10 10z"/></g></g></g></g></g><g><g><g><g><path d="m256.012 61.714c-4.172 0-7.988-2.698-9.403-6.615-1.422-3.937-.18-8.457 3.059-11.112 3.153-2.585 7.659-2.962 11.216-.993 3.63 2.01 5.683 6.253 4.988 10.349-.808 4.759-5.013 8.371-9.86 8.371z"/></g></g></g></g><g><g><g><g><g><path d="m324.916 273.595c11.664-11.664 30.643-11.662 42.309.003 3.905 3.905 3.905 10.237 0 14.142s-10.237 3.905-14.142 0c-3.867-3.867-10.159-3.869-14.024-.003-3.905 3.905-10.237 3.905-14.142 0-3.906-3.905-3.906-10.237-.001-14.142z"/></g></g></g></g><g><g><g><g><path d="m187.33 273.595c3.905 3.905 3.905 10.237 0 14.142s-10.237 3.905-14.142 0c-3.866-3.866-10.157-3.864-14.024.003-3.905 3.905-10.237 3.905-14.142 0s-3.905-10.237 0-14.142c11.666-11.665 30.645-11.667 42.308-.003z"/></g></g></g></g></g></g></g></svg>