<svg id="Capa_1" enable-background="new 0 0 512.001 512.001" height="512" viewBox="0 0 512.001 512.001" width="512" xmlns="http://www.w3.org/2000/svg"><g><g><g><g><g><path clip-rule="evenodd" d="m464.234 314.041c0 .43 0 .86-.01 1.28-.17 21-4.6 39.52-12.43 55.69-30.75 63.56-113.91 130.984-196.93 130.984s-166.18-67.424-196.93-130.984c-7.83-16.17-12.26-34.69-12.43-55.69-.01-.42-.01-.85-.01-1.28 0-104.46 104.79-219.4 209.37-219.4s209.37 114.94 209.37 219.4z" fill="#b6bccf" fill-rule="evenodd"/></g></g></g><g><g><g><g><g><path d="m464.234 314.041c0 .43 0 .86-.01 1.28-38.3-50.11-78.57-70.41-99.33-78.09-8.16-3.02-16.77-4.44-25.49-4.26-13.75.27-25.01 11.17-26.73 24.81l-32.996 152.36h-49.628l-32.996-152.36c-1.72-13.64-12.98-24.54-26.73-24.81-8.72-.18-17.33 1.24-25.49 4.26-20.76 7.68-61.03 27.98-99.33 78.09-.01-.42-.01-.85-.01-1.28 0-104.46 104.79-219.4 209.37-219.4 104.58 0 209.37 114.94 209.37 219.4z" fill="#f5eeec"/></g></g></g></g></g><g><g><g><g><path clip-rule="evenodd" d="m313.362 99.492c1.241-4.662 2.859-9.245 4.906-13.706 27.763-60.512 123.899-75.785 123.899-75.785s51.124 82.836 23.361 143.348c-8.142 17.747-22.165 31.602-37.919 42.323" fill="#e7e9ef" fill-rule="evenodd"/></g></g></g><g><g><g><path clip-rule="evenodd" d="m354.398 118.388c.618-5.073 1.854-9.879 3.862-14.254 6.399-13.948 23.33-27.315 47.673-37.639 4.293-1.82 8.514-3.421 12.534-4.817 8.914 22.659 16.509 52.749 7.07 73.323-3.93 8.566-11.832 16.912-22.983 24.47" fill="#ffdede" fill-rule="evenodd"/></g></g></g></g><g><g><g><g><path clip-rule="evenodd" d="m198.639 99.492c-1.241-4.662-2.859-9.245-4.906-13.706-27.763-60.512-123.899-75.785-123.899-75.785s-51.124 82.836-23.361 143.348c8.142 17.747 22.165 31.602 37.919 42.323" fill="#e7e9ef" fill-rule="evenodd"/></g></g></g><g><g><g><path clip-rule="evenodd" d="m157.603 118.388c-.618-5.073-1.854-9.879-3.862-14.254-6.399-13.948-23.33-27.315-47.673-37.639-4.293-1.82-8.514-3.421-12.534-4.817-8.914 22.659-16.509 52.749-7.07 73.323 3.93 8.566 11.832 16.912 22.983 24.47" fill="#ffdede" fill-rule="evenodd"/></g></g></g></g><g><g><path clip-rule="evenodd" d="m243.01 425.752-28.296-38.31c-7.185-9.729-.24-23.493 11.854-23.493h56.591c12.094 0 19.04 13.764 11.854 23.493l-28.296 38.31c-5.889 7.976-17.816 7.976-23.707 0z" fill="#ffbdbc" fill-rule="evenodd"/></g></g></g><g><path d="m474.617 157.519c29.654-64.635-21.738-149.201-23.94-152.77-2.119-3.433-6.092-5.259-10.079-4.624-4.142.658-101.765 16.856-131.419 81.491-1.492 3.253-2.813 6.642-3.948 10.125-.583-.168-1.166-.334-1.748-.495-5.323-1.466-10.831 1.654-12.301 6.978s1.654 10.831 6.978 12.302c70.896 19.577 138.374 99.089 153.113 174.223-33.05-34.639-65.017-50.277-82.907-56.897-9.308-3.443-19.121-5.094-29.157-4.879-18.237.358-33.783 14.511-36.382 33.013l-22.707 97.964h-50.51l-22.707-97.964c-2.598-18.502-18.144-32.654-36.372-33.013-10.06-.209-19.858 1.435-29.166 4.879-17.892 6.62-49.861 22.259-82.911 56.9 14.742-75.216 82.309-154.762 153.299-174.277 5.325-1.464 8.456-6.968 6.991-12.293-1.452-5.284-6.88-8.404-12.166-7.025-1.091-3.278-2.347-6.47-3.756-9.54-29.654-64.635-127.278-80.834-131.419-81.492-3.983-.636-7.959 1.191-10.079 4.624-2.202 3.568-53.595 88.135-23.94 152.77 7.172 15.633 18.944 29.692 35.045 41.875-23.688 37.516-36.939 78.168-36.939 114.651 0 52.336 24.48 102.311 68.931 140.718 42.1 36.376 96.934 57.238 150.443 57.238s108.344-20.862 150.444-57.238c44.451-38.406 68.931-88.381 68.931-140.718 0-36.101-12.982-76.297-36.216-113.495 16.897-12.447 29.194-26.901 36.594-43.031zm-110.591-36.422c.136-.484.236-.985.299-1.499.518-4.248 1.535-8.048 3.024-11.294 5.279-11.506 20.766-23.39 42.488-32.602.895-.379 1.8-.754 2.716-1.125 8.186 24.073 9.596 43.828 3.895 56.255-2.971 6.475-9.254 13.186-18.214 19.471-10.86-10.959-22.356-20.762-34.208-29.206zm-141.687 255.456c.395-.783 1.598-2.604 4.23-2.604h56.591c2.632 0 3.834 1.82 4.229 2.604.395.782 1.145 2.832-.419 4.948l-28.296 38.31c-1.235 1.673-2.917 1.923-3.81 1.923s-2.575-.25-3.811-1.923l-28.295-38.31c-1.563-2.116-.814-4.166-.419-4.948zm-109.899-227.199c-8.255-6.009-14.065-12.373-16.886-18.523-5.701-12.427-4.291-32.182 3.895-56.255.915.371 1.821.746 2.715 1.125 21.723 9.213 37.21 21.097 42.488 32.602 1.489 3.247 2.507 7.047 3.024 11.295.004.034.009.068.014.102-12.211 8.514-24.062 18.471-35.25 29.654zm-56.878-.175c-21.135-46.066 8.938-108.63 19.416-127.983 21.508 4.655 88.482 22.588 109.666 68.76 1.131 2.464 2.137 5.035 3.012 7.681-7.313 2.999-14.613 6.561-21.842 10.641-.792-2.93-1.788-5.708-2.983-8.315-7.549-16.454-25.827-31.211-52.857-42.675-4.214-1.787-8.64-3.488-13.157-5.058-5.067-1.763-10.624.793-12.587 5.785-9.284 23.601-18.01 56.838-6.853 81.154 4.05 8.828 11.217 17.186 21.343 24.903-3.506 4.035-6.926 8.194-10.248 12.469-1.62 2.085-3.207 4.187-4.759 6.302-13.033-10.018-22.486-21.317-28.151-33.664zm199.302 342.822c-92.687 0-196.184-73.813-199.302-173.339 36.152-46.154 73.488-64.93 92.742-72.053 6.948-2.571 14.289-3.801 21.823-3.641 8.561.168 15.872 7.074 17.005 16.064.042.339.103.675.18 1.007l23.145 99.853c-2.427 2.087-4.468 4.668-5.974 7.651-4.231 8.385-3.393 18.286 2.187 25.841l28.295 38.31h.001c4.713 6.381 11.966 10.04 19.898 10.04 7.933 0 15.185-3.659 19.898-10.04l28.296-38.31c5.58-7.555 6.418-17.456 2.187-25.841-1.505-2.983-3.546-5.563-5.974-7.651l23.145-99.853c.077-.332.137-.668.18-1.007 1.134-8.989 8.444-15.895 17.015-16.064 7.523-.151 14.867 1.069 21.814 3.641 19.253 7.123 56.59 25.898 92.742 72.053-3.119 99.526-106.616 173.339-199.303 173.339zm171.96-308.047c-1.789-2.462-3.624-4.905-5.504-7.327-3.059-3.941-6.202-7.783-9.418-11.52 10.856-8.002 18.491-16.712 22.723-25.936 11.157-24.316 2.431-57.554-6.853-81.154-1.964-4.991-7.518-7.547-12.587-5.785-4.517 1.569-8.943 3.271-13.157 5.058-27.03 11.463-45.308 26.22-52.858 42.675-1.348 2.938-2.442 6.095-3.275 9.441-7.216-4.176-14.509-7.836-21.819-10.937.935-2.94 2.033-5.791 3.281-8.512 21.132-46.058 88.156-64.07 109.67-68.752 10.485 19.365 40.544 81.916 19.413 127.975-5.875 12.804-15.825 24.481-29.616 34.774z"/><g><g><g><g><path d="m254.86 104.641c-4.063 0-7.801-2.557-9.29-6.331-1.53-3.876-.447-8.434 2.696-11.185 3.185-2.788 7.926-3.251 11.591-1.136s5.647 6.445 4.813 10.603c-.925 4.612-5.096 8.049-9.81 8.049z"/></g></g></g></g><g><g><g><g><g><path d="m324.905 323.571c11.664-11.664 30.643-11.662 42.309.003 3.905 3.905 3.905 10.237 0 14.142s-10.237 3.905-14.142 0c-3.867-3.867-10.159-3.869-14.024-.003-3.905 3.905-10.237 3.905-14.142 0-3.907-3.905-3.907-10.236-.001-14.142z"/></g></g></g></g><g><g><g><g><path d="m187.319 323.571c3.905 3.905 3.905 10.237 0 14.142s-10.237 3.905-14.142 0c-3.866-3.866-10.157-3.864-14.024.003-3.905 3.905-10.237 3.905-14.142 0s-3.905-10.237 0-14.142c11.665-11.665 30.644-11.666 42.308-.003z"/></g></g></g></g></g></g></g></svg>