<svg id="Capa_1" enable-background="new 0 0 512.071 512.071" height="512" viewBox="0 0 512.071 512.071" width="512" xmlns="http://www.w3.org/2000/svg"><g><g><g><g><g><path clip-rule="evenodd" d="m473.004 226.198c6.758-6.699 12.655-14.273 17.247-22.831 33.614-62.647-15.364-154.334-15.364-154.334s-72.887 10.696-116.518 47.004" fill="#e5ae8c" fill-rule="evenodd"/></g></g></g><g><g><g><path clip-rule="evenodd" d="m448.884 180.344c20.434-44.736-1.098-77.685-1.098-77.685-9.56 2.678-24.219 3.06-49.044 20.818" fill="#ffdede" fill-rule="evenodd"/></g></g></g><g><g><g><g><g><path d="m479.753 301.289c0 61.947-67.921 109.309-143.388 133.491-11.899 3.806-23.436 8.722-34.087 15.236-13.477 8.242-29.289 13.018-46.242 13.018s-32.765-4.777-46.242-13.018c-10.652-6.515-22.188-11.43-34.087-15.236-75.467-24.182-143.388-71.544-143.388-133.491 0-15.098 1.429-30.046 4.137-44.654 19.543-105.833 127.106-183.759 219.58-183.759s200.036 77.925 219.58 183.759c2.708 14.607 4.137 29.556 4.137 44.654z" fill="#f5eeec"/></g></g></g></g><g><g><g><path clip-rule="evenodd" d="m39.067 226.198c-6.758-6.699-12.655-14.273-17.247-22.831-33.614-62.647 15.365-154.334 15.365-154.334s73.887 10.696 117.518 47.004" fill="#e5ae8c" fill-rule="evenodd"/></g></g></g><g><g><g><path clip-rule="evenodd" d="m63.187 180.344c-20.434-44.736 1.098-77.685 1.098-77.685 9.56 2.678 24.219 3.06 49.044 20.818" fill="#ffdede" fill-rule="evenodd"/></g></g></g><g><g><g><g><path d="m475.616 256.635c-55.721-25.493-154.093-34.556-164.393-24.875l-38.096 198.968h-34.183l-38.096-198.968c-10.3-9.681-108.672-.618-164.393 24.875 19.544-105.833 127.107-183.759 219.581-183.759s200.036 77.926 219.58 183.759z" fill="#ffbe90"/></g></g></g></g><g><g><g><path clip-rule="evenodd" d="m247.436 457.349-20.526-27.791c-5.212-7.057-.174-17.042 8.599-17.042h41.052c8.773 0 13.812 9.985 8.599 17.042l-20.526 27.791c-4.272 5.786-12.925 5.786-17.198 0z" fill="#ffbdbc" fill-rule="evenodd"/></g></g></g></g></g><g><g><g><g><g><path d="m367.845 432.576c-4.175 0-8.005-2.697-9.405-6.631-1.378-3.873-.211-8.327 2.936-10.991 3.281-2.777 8.094-3.122 11.745-.864 3.504 2.167 5.341 6.405 4.534 10.446-.921 4.618-5.106 8.04-9.81 8.04z"/></g></g></g></g><path d="m499.062 208.094c35.734-66.599-13.253-159.837-15.355-163.773-1.987-3.721-6.094-5.8-10.272-5.182-3.084.452-75.911 11.495-121.203 48.997-4.21-2.202-8.457-4.271-12.73-6.198-27.648-12.469-56.51-19.06-83.466-19.06s-55.817 6.591-83.466 19.06c-4.066 1.834-8.108 3.796-12.117 5.878-45.335-37.252-118.72-48.229-121.836-48.68-4.165-.607-8.268 1.47-10.253 5.185-2.102 3.937-51.09 97.175-15.355 163.773 4.832 9.007 11.23 17.487 19.018 25.206.384.38.791.722 1.216 1.028-7.262 21.939-10.93 44.368-10.93 66.965 0 31.645 16.216 62.249 46.895 88.504 26.104 22.339 61.876 41.187 103.45 54.505 12.206 3.91 22.647 8.57 31.92 14.245 15.493 9.482 33.287 14.493 51.458 14.493 18.173 0 35.967-5.012 51.46-14.494 4.313-2.641 9.001-5.117 13.892-7.342.409-.181 2.287-.977 3.928-1.673 1.376-.584 2.599-1.104 2.817-1.2 5.045-2.226 7.322-8.112 5.106-13.161-2.216-5.051-8.116-7.346-13.169-5.142-.256.111-1.346.573-2.567 1.092-1.89.802-4.064 1.728-4.353 1.86-5.674 2.58-11.089 5.442-16.095 8.508-4.142 2.535-8.491 4.668-12.988 6.385l9.14-12.375c4.667-6.319 5.367-14.601 1.828-21.613-1.652-3.273-4.074-5.966-6.986-7.909l31.427-164.131c25.111.474 101.934 3.516 146.608 22.829 2.427 12.157 3.676 24.416 3.676 36.619 0 34.263-44.225 69.743-70.647 90.942-4.308 3.456-4.998 9.75-1.542 14.058 3.457 4.308 9.75 4.998 14.058 1.542 31.113-24.961 78.132-62.684 78.132-106.542 0-22.598-3.667-45.026-10.93-66.965.425-.305.832-.647 1.216-1.028 7.785-7.719 14.183-16.199 19.015-25.206zm-468.43-9.455c-25.797-48.079 2.386-117.239 12.24-138.464 17.856 3.412 65.479 14.303 98.819 38.421-7.93 5.007-15.657 10.477-23.099 16.352-21.676-15.379-36.551-18.582-46.424-20.707-2.003-.432-3.733-.804-5.186-1.21-4.203-1.179-8.682.506-11.068 4.158-1.002 1.534-24.288 38.128-1.823 87.31.331.725.738 1.391 1.207 1.994-4.351 7.256-8.317 14.704-11.886 22.33-.775 1.655-1.528 3.314-2.26 4.977-4.164-4.808-7.689-9.887-10.52-15.161zm37.892-32.008c-8.004-24.236-2.74-43.266 1.12-52.473 7.883 1.728 18.281 4.416 33.188 14.236-1.718 1.583-3.415 3.188-5.089 4.813-10.805 10.492-20.562 21.657-29.219 33.424zm110.235 258.624c-65.962-21.131-136.446-64.793-136.446-123.962 0-12.203 1.249-24.461 3.676-36.619 44.677-19.314 121.502-22.356 146.608-22.829l31.426 164.131c-2.912 1.943-5.334 4.637-6.986 7.909-3.539 7.013-2.839 15.294 1.828 21.614l9.138 12.372c-4.496-1.717-8.844-3.85-12.986-6.384-10.651-6.518-22.511-11.828-36.258-16.232zm97.803-2.738c.189 0 .425 0 .616.379.192.38.052.57-.061.722l-20.525 27.791c-.067.091-.208.28-.557.28s-.488-.188-.556-.28l-20.526-27.79c-.112-.152-.253-.343-.061-.723.191-.379.427-.379.616-.379zm34.603-200.757c-4.775.028-8.865 3.429-9.763 8.119l-33.055 172.638h-24.623l-33.055-172.638c-.898-4.691-4.987-8.091-9.763-8.119-3.993-.029-90.09-.279-148.646 19.181 11.205-33.996 31.555-66.333 59.414-93.385 41.708-40.499 95.675-64.678 144.36-64.678s102.652 24.179 144.36 64.678c27.86 27.052 48.21 59.389 59.415 93.385-58.551-19.457-144.641-19.204-148.644-19.181zm132.38-55.132c-8.657-11.766-18.413-22.93-29.216-33.42-1.675-1.626-3.372-3.231-5.089-4.813 14.898-9.815 25.293-12.506 33.174-14.233 3.84 9.206 9.104 28.276 1.131 52.466zm25.114 42.195c-3.569-7.626-7.535-15.074-11.886-22.33.469-.603.876-1.269 1.207-1.994 22.465-49.182-.821-85.775-1.823-87.31-2.387-3.652-6.87-5.337-11.068-4.158-1.452.406-3.183.778-5.186 1.21-9.872 2.126-24.748 5.328-46.424 20.708-7.276-5.744-14.824-11.099-22.568-16.014 33.182-24.261 80.515-35.276 98.307-38.738 9.882 21.231 38.068 90.27 12.221 138.443-2.83 5.274-6.356 10.353-10.52 15.161-.732-1.664-1.486-3.323-2.26-4.978z"/><g><g><g><g><g><path d="m324.94 323.607c11.664-11.664 30.643-11.662 42.309.003 3.905 3.905 3.905 10.237 0 14.142s-10.237 3.905-14.142 0c-3.867-3.867-10.159-3.869-14.024-.003-3.905 3.905-10.237 3.905-14.142 0-3.907-3.905-3.907-10.237-.001-14.142z"/></g></g></g></g><g><g><g><g><path d="m187.354 323.607c3.905 3.905 3.905 10.237 0 14.142s-10.237 3.905-14.142 0c-3.866-3.866-10.157-3.864-14.024.003-3.905 3.905-10.237 3.905-14.142 0s-3.905-10.237 0-14.142c11.665-11.665 30.644-11.667 42.308-.003z"/></g></g></g></g></g></g></g></svg>