<svg id="Capa_1" enable-background="new 0 0 512 512" height="512" viewBox="0 0 512 512" width="512" xmlns="http://www.w3.org/2000/svg"><g><g><g><g><path clip-rule="evenodd" d="m356.56 122.187 3.09-31.271c5.737-19.396-7.952-39.566-28.154-40.476-.487-.022-33.576 1.487-33.576 1.487 0-23.156-18.767-41.927-41.917-41.927-23.15 0-41.917 18.771-41.917 41.926l-32.106-1.52c-.493 0-.983.011-1.47.033-20.202.91-33.891 21.08-28.154 40.476l3.09 31.271" fill="#fff2a0" fill-rule="evenodd"/></g></g><g><g><g><g><g><path clip-rule="evenodd" d="m447.469 324.724c0 1.58-.019 3.16-.058 4.74-.332 13.444-2.078 26.158-5.097 38.101-19.994 79.113-95.815 134.435-186.295 134.435-105.735 0-191.45-71.89-191.45-177.276 0-105.385 85.715-242.09 191.45-242.09 94.367 0 172.788 117.219 188.559 208.54 1.9 11.001 2.891 22.22 2.891 33.55z" fill="#fff7bf" fill-rule="evenodd"/></g></g></g></g><g><g><g><path d="m332.563 375.055c9.613-7.782 22.756-16.744 22.756-16.744l-4.944-1.388c-22.359-6.279-42.758-18.13-59.286-34.444l-.306-.302c-19.57-17.396-49.061-17.396-68.63 0-16.722 16.505-37.403 28.44-60.061 34.66l-5.372 1.475s12.861 8.521 22.66 16.16" fill="#ff9c9b"/></g></g><g><g><g><path d="m314.128 404.13c-32.614 30.323-83.636 30.324-116.238-.012-10.16-9.454-17.549-20.859-17.549-34.038l18.386-3.918c37.77-8.049 76.813-8.049 114.583 0l18.386 3.918c.001 13.183-7.398 24.593-17.568 34.05z" fill="#ffbdbc"/></g></g></g></g></g></g><g><g><g><path d="m443.48 364.698c-5.263-1.661-10.884 1.261-12.545 6.528 0 0-.88 2.84-.966 3.105-22.743 70.381-92.649 117.669-173.951 117.669-103.443 0-181.449-71.913-181.449-167.275 0-50.508 20.241-108.324 54.145-154.66 36.535-49.932 81.746-77.431 127.305-77.431 48.796 0 88.147 34.429 112.566 63.312 30.476 36.048 54.53 83.84 64.344 127.845.094.419.553 2.541.644 2.961 1.165 5.399 6.487 8.828 11.885 7.665 5.398-1.165 8.83-6.487 7.664-11.885-.095-.439-.575-2.659-.673-3.096-10.483-47.01-36.125-98.001-68.59-136.402-5.696-6.737-11.534-13.027-17.497-18.858.066-.329.117-.665.151-1.006l3.003-30.391c3.283-12.146.992-24.932-6.349-35.234-7.341-10.301-18.72-16.533-31.22-17.096-.528-.023-.881-.038-25.076 1.059-4.837-23.656-25.808-41.508-50.868-41.508-25.054 0-46.02 17.844-50.864 41.492l-22.686-1.074c-.802-.037-1.601-.004-2.393.032-12.5.563-23.879 6.794-31.22 17.096s-9.632 23.088-6.349 35.234l2.8 28.338c-11.578 10.784-22.515 23.193-32.718 37.138-36.32 49.638-58.004 111.87-58.004 166.47 0 53.01 21.092 101.165 59.389 135.594 37.072 33.326 87.523 51.68 142.06 51.68 44.232 0 86.088-12.68 121.041-36.67 34.712-23.824 59.589-56.622 71.938-94.836.087-.267 1.013-3.251 1.013-3.251 1.661-5.267-1.262-10.884-6.53-12.545zm-281.174-274.766c-.061-.627-.183-1.248-.361-1.853-1.921-6.495-.761-13.394 3.183-18.928 3.747-5.259 9.518-8.438 15.832-8.723.268-.012.535-.02.805-.022l31.849 1.508c2.744.131 5.396-.866 7.374-2.752 1.979-1.887 3.099-4.502 3.099-7.236 0-17.604 14.318-31.926 31.917-31.926s31.917 14.322 31.917 31.926c0 2.731 1.117 5.344 3.092 7.23 1.976 1.887 4.665 2.884 7.363 2.759 12.055-.55 30.21-1.368 32.997-1.469 6.187.377 11.823 3.537 15.506 8.705 3.943 5.534 5.104 12.433 3.183 18.928-.179.604-.3 1.225-.361 1.853l-1.778 17.997c-7.196-5.672-14.538-10.704-21.999-15.072-22.923-13.419-46.441-20.223-69.903-20.223-27.19 0-54.059 8.26-79.859 24.551-4.163 2.629-8.265 5.443-12.302 8.44z"/><path d="m358.022 348.683-4.943-1.388c-20.676-5.806-39.682-16.849-54.965-31.933l-.306-.302c-.124-.123-.251-.242-.382-.358-23.349-20.756-58.567-20.758-81.918 0-.13.116-.258.235-.381.357-15.469 15.268-34.724 26.379-55.683 32.133l-5.373 1.475c-3.782 1.038-6.608 4.191-7.228 8.064s1.081 7.75 4.351 9.916c.119.079 11.355 7.534 20.517 14.539 2.65 10.592 9.132 20.729 19.365 30.252 18.204 16.939 41.565 25.407 64.934 25.407 23.356 0 46.721-8.465 64.926-25.392 10.059-9.351 16.497-19.296 19.238-29.684 9.03-7.173 20.656-15.113 20.778-15.197 3.211-2.191 4.863-6.043 4.234-9.879-.628-3.835-3.422-6.96-7.164-8.01zm-50.703 48.123h-.001c-28.778 26.759-73.854 26.754-102.616-.009-6.733-6.265-11.121-12.591-13.116-18.889l9.226-1.966c36.635-7.806 73.784-7.806 110.415 0l9.226 1.966c-1.999 6.301-6.392 12.63-13.134 18.898zm8.075-40.426c-39.398-8.396-79.352-8.396-118.751 0l-9.857 2.101c15.598-7.111 29.919-16.924 42.193-28.992 15.714-13.806 39.259-13.809 54.975-.003l.11.109c12.263 12.104 26.598 21.959 42.212 29.104z"/></g><g><g><g><g><path d="m447.432 339.3c-4.183 0-7.995-2.71-9.405-6.636-1.39-3.872-.201-8.321 2.936-10.987 3.273-2.781 8.097-3.142 11.745-.873 3.496 2.174 5.341 6.405 4.534 10.446-.92 4.613-5.101 8.05-9.81 8.05z"/></g></g></g></g><g><g><g><g><g><path d="m324.907 263.57c11.664-11.664 30.643-11.662 42.309.003 3.905 3.905 3.905 10.237 0 14.142s-10.237 3.905-14.142 0c-3.867-3.867-10.159-3.869-14.024-.003-3.905 3.905-10.237 3.905-14.142 0-3.907-3.905-3.907-10.236-.001-14.142z"/></g></g></g></g><g><g><g><g><path d="m187.321 263.57c3.905 3.905 3.905 10.237 0 14.142s-10.237 3.905-14.142 0c-3.866-3.866-10.157-3.864-14.024.003-3.905 3.905-10.237 3.905-14.142 0s-3.905-10.237 0-14.142c11.665-11.665 30.644-11.666 42.308-.003z"/></g></g></g></g></g></g></g></g></svg>