<svg id="Capa_1" enable-background="new 0 0 511.998 511.998" height="512" viewBox="0 0 511.998 511.998" width="512" xmlns="http://www.w3.org/2000/svg"><g><g><g><g><path clip-rule="evenodd" d="m350.917 128.22 3.124-4.475c20.549-29.439 19.308-58.877-3.152-86.892-.142-.177-.216-.268-.216-.268s-27.248 49.857-50.724 36.564v-21.525c0-43.943-46.179-41.605-46.179-41.605 6.521 62.314-9.542 64.631-25.109 63.275-13.852-1.206-24.411-2.916-24.888-16.78-.442-12.848-1.217-23.494-1.217-23.494s-64.976 2.541-55.158 48.906l13.724 46.294" fill="#fff2a0" fill-rule="evenodd"/></g></g><g><g><g><g><g><path clip-rule="evenodd" d="m447.46 324.73c0 1.58-.019 3.16-.058 4.739-.332 13.444-2.078 26.157-5.096 38.099-19.993 79.109-95.81 134.429-186.286 134.429-105.73 0-191.441-71.887-191.441-177.268s85.711-222.069 191.441-222.069c94.363 0 172.78 97.203 188.551 188.52 1.898 11.002 2.889 22.22 2.889 33.55z" fill="#fff7bf" fill-rule="evenodd"/></g></g></g></g></g><g><g><g><path d="m207.013 344.792c-.949 5.48.459 11.326 4.365 15.893l44.641 52.201 44.641-52.201c3.909-4.571 5.316-10.426 4.362-15.91" fill="#ffbdbc"/></g></g><g><g><g><path d="m298.319 333.209-42.3-35.174-42.3 35.174c-3.69 3.068-5.949 7.209-6.706 11.583 29.853 18.808 68.161 18.802 98.008-.018-.76-4.367-3.018-8.501-6.702-11.565z" fill="#ff9c9b"/></g></g></g></g></g><g><g><path d="m314.873 343.06c-.002-.012-.004-.024-.007-.036-1.199-6.84-4.804-13.055-10.154-17.504l-42.3-35.174c-3.705-3.081-9.082-3.081-12.787 0l-42.299 35.174c-5.367 4.462-8.978 10.701-10.167 17.566-.004.021-.007.042-.01.063-1.474 8.626.94 17.383 6.628 24.035l44.641 52.201c1.9 2.221 4.677 3.501 7.6 3.501s5.7-1.279 7.6-3.501l44.641-52.201c5.71-6.675 8.121-15.468 6.614-24.124zm-58.854-32.019 35.705 29.69c-22.454 10.842-48.96 10.846-71.42.009zm0 86.459-27.761-32.463c9.055 2.539 18.4 3.809 27.746 3.809 9.359 0 18.719-1.274 27.787-3.821z"/><g><path d="m443.465 364.699c-5.266-1.657-10.882 1.27-12.54 6.538l-.344 1.109c-.241.776-.537 1.734-.619 1.989-22.742 70.378-92.644 117.663-173.942 117.663-103.438 0-181.441-71.91-181.441-167.268 0-49.121 20.116-103.035 53.811-144.22 35.796-43.753 81.123-67.849 127.629-67.849 85.692 0 158.544 88.832 176.9 171.138.094.419.553 2.541.643 2.96 1.165 5.398 6.486 8.829 11.885 7.665 5.398-1.166 8.83-6.487 7.665-11.885-.095-.439-.576-2.659-.673-3.095-10.258-45.995-35.425-92.248-69.047-126.899-7.336-7.561-14.97-14.456-22.839-20.657l1.688-2.418c23.054-33.029 21.826-67.218-3.548-98.868l-.265-.328c-2.104-2.582-5.355-3.944-8.671-3.644-3.315.305-6.264 2.238-7.86 5.16-4.096 7.495-18.579 29.684-30.98 33.219-.333.095-.656.173-.969.234v-13.619c0-15.423-4.844-27.849-14.398-36.931-16.59-15.772-41.248-14.712-42.287-14.661-2.742.139-5.306 1.399-7.091 3.484-1.786 2.085-2.635 4.813-2.349 7.544 3.98 38.027-1.408 48.052-3.909 50.597-1.724 1.753-4.442 2.193-10.387 1.675-15.562-1.356-15.621-3.055-15.762-7.162-.443-12.891-1.206-23.434-1.238-23.876-.392-5.377-4.974-9.494-10.364-9.266-1.615.063-39.747 1.804-57.182 24.196-7.795 10.012-10.343 22.728-7.37 36.773.055.26.12.517.196.771l13.515 45.588c-13.77 10.541-26.624 23.079-38.414 37.489-17.846 21.812-32.593 47.473-42.647 74.208-10.261 27.283-15.685 55.872-15.685 82.676 0 53.008 21.09 101.161 59.386 135.588 37.071 33.326 87.52 51.679 142.055 51.679 44.23 0 86.084-12.68 121.036-36.668 34.71-23.823 59.586-56.62 71.938-94.844.087-.269.421-1.347.692-2.22l.319-1.026c1.658-5.268-1.269-10.882-6.537-12.539zm-286.362-285.214c-1.648-8.14-.457-14.666 3.637-19.944 7.064-9.105 21.756-13.525 32.476-15.394.196 3.668.402 8.049.562 12.71.808 23.506 22.41 25.388 34.015 26.399 5.662.492 17.443 1.519 26.387-7.581 9.097-9.257 12.461-26.333 10.58-54.64 5.468 1.118 12.035 3.421 17.011 8.152 5.503 5.231 8.178 12.57 8.178 22.436v21.525c0 3.603 1.938 6.927 5.073 8.702 6.521 3.692 13.913 4.52 21.379 2.391 14.188-4.044 26.733-18.449 34.605-29.526 11.699 20.803 9.968 41.626-5.164 63.306l-1.565 2.242c-27.992-18.006-58.253-27.602-88.257-27.602-27.145 0-53.837 7.104-79.333 21.115-2.706 1.487-5.383 3.044-8.033 4.668z"/><g><g><g><g><path d="m447.423 339.308c-4.235 0-8.098-2.79-9.46-6.79-1.342-3.941-.03-8.467 3.249-11.046 3.293-2.59 7.925-2.862 11.494-.661 3.549 2.189 5.381 6.534 4.492 10.605-.991 4.541-5.118 7.892-9.775 7.892z"/></g></g></g></g></g><g><g><g><g><g><path d="m324.907 266.568c11.664-11.664 30.643-11.662 42.309.003 3.905 3.905 3.905 10.237 0 14.142s-10.237 3.905-14.142 0c-3.867-3.867-10.159-3.869-14.024-.003-3.905 3.905-10.237 3.905-14.142 0-3.907-3.905-3.907-10.237-.001-14.142z"/></g></g></g></g><g><g><g><g><path d="m187.321 266.568c3.905 3.905 3.905 10.237 0 14.142s-10.237 3.905-14.142 0c-3.866-3.866-10.157-3.864-14.024.003-3.905 3.905-10.237 3.905-14.142 0s-3.905-10.237 0-14.142c11.665-11.665 30.644-11.667 42.308-.003z"/></g></g></g></g></g></g></g></g></svg>