<svg id="Capa_1" enable-background="new 0 0 511.839 511.839" height="512" viewBox="0 0 511.839 511.839" width="512" xmlns="http://www.w3.org/2000/svg"><g><g><g><g><g><g><path clip-rule="evenodd" d="m175.226 92.181c-6.617-11.756-18.912-23.274-44.334-34.981-44.442-20.464-78.706-13.699-106.402 16.36-34.977 37.959 4.231 86.391 2.517 144.186-.614 20.434-23.117 48.695-6.566 78.076 21.555 38.277 45.883 28.53 69.577 24.465" fill="#b6bccf" fill-rule="evenodd"/></g></g></g><g><g><g><g><path clip-rule="evenodd" d="m421.821 320.287c23.694 4.065 48.022 13.812 69.577-24.465 16.551-29.381-5.952-57.641-6.566-78.076-1.714-57.795 37.494-106.227 2.517-144.186-27.696-30.06-61.96-36.824-106.403-16.36-23.724 10.924-37.249 21.841-46.821 33.038" fill="#b6bccf" fill-rule="evenodd"/></g></g></g></g></g><g><g><g><g><path clip-rule="evenodd" d="m164.643 386.103c-4.817 26.609-24.672 46.707-49.219 53.121 7.751 5.461 16.786 9.361 26.73 11.162 36.553 6.617 71.549-17.651 78.166-54.204.446-2.462.751-3.831.922-6.27" fill="#cfd3df" fill-rule="evenodd"/></g></g></g></g><g><g><g><g><g><path clip-rule="evenodd" d="m290.598 389.911c.171 2.439.477 3.809.922 6.27 6.617 36.553 41.613 60.821 78.166 54.204 9.944-1.8 18.979-5.701 26.73-11.162-24.547-6.414-44.402-26.512-49.219-53.121" fill="#cfd3df" fill-rule="evenodd"/></g></g></g></g><g><g><g><g><g><g><g><g><g><path d="m309.53 76.566c29.83 13.95 53.62 39.6 64.99 72.14 2.79 7.99 5.78 43.25 8.85 46.67 14.77 16.4 38.27 35.53 42.65 74.34.08.78.17 1.55.24 2.32 6.25 62.63-43.46 116.79-106.41 116.79h-31.93-64.001-31.929c-62.95 0-112.66-54.16-106.41-116.79.07-.77.16-1.54.24-2.32 4.37-38.81 27.88-57.94 42.65-74.34 3.06-3.42 6.05-38.68 8.85-46.67 11.37-32.54 35.16-58.19 64.99-72.14" fill="#e7e9ef"/></g></g></g></g></g></g><g><g><g><g><g><path clip-rule="evenodd" d="m309.53 76.566-53.61 53.6-53.61-53.6c16.04-7.52 33.83-11.65 52.37-11.65h2.48c18.54 0 36.33 4.13 52.37 11.65z" fill="#ffbdbc" fill-rule="evenodd"/></g></g></g></g><g><g><g><g><g><path d="m290.917 324.919-11.689 141.456h-46.617l-17.01-186.744" fill="#e7e9ef"/></g></g></g></g></g></g></g></g></g></g></g><g><g><path d="m494.828 217.45c-.604-20.394 4.299-39.799 9.042-58.565 8.01-31.696 16.292-64.472-9.165-92.1-15.536-16.862-33.251-27.028-52.654-30.218-19.659-3.233-41.624.655-65.286 11.551-19.064 8.778-33.508 18.34-44.808 29.729-5.765-3.907-11.844-7.371-18.191-10.339-.002-.001-.004-.002-.007-.003-17.822-8.353-36.865-12.588-56.599-12.588h-2.48c-19.728 0-38.764 4.233-56.581 12.58-.008.004-.017.007-.025.011-6.921 3.237-13.525 7.064-19.749 11.411-9.182-11.624-23.19-21.565-43.249-30.801-23.663-10.896-45.628-14.784-65.287-11.551-19.402 3.19-37.118 13.356-52.653 30.218-25.459 27.628-17.176 60.403-9.166 92.1 4.742 18.766 9.646 38.171 9.041 58.561-.156 5.208-2.505 12.141-4.991 19.481-6.062 17.896-13.606 40.167-.292 63.802 15.353 27.263 32.884 33.75 49.483 33.75 8.098-.001 15.977-1.545 23.267-2.975.466-.091.928-.182 1.385-.271 4.871 10.492 11.326 20.303 19.237 29.044 13.139 14.516 29.612 25.363 47.728 31.794-6.042 18.231-21.036 32.542-39.932 37.479-3.766.984-6.619 4.064-7.312 7.894-.694 3.83.898 7.714 4.08 9.956 9.212 6.49 19.544 10.806 30.708 12.827 4.646.841 9.302 1.257 13.926 1.257 15.583 0 30.784-4.723 43.862-13.792 8.367-5.802 15.373-13.041 20.765-21.325l3.727 40.918c.469 5.15 4.788 9.093 9.959 9.093h46.616c5.204 0 9.538-3.991 9.966-9.176l3.414-41.31c5.432 8.483 12.544 15.887 21.071 21.8 13.079 9.07 28.277 13.792 43.862 13.792 4.623 0 9.281-.415 13.926-1.257 11.165-2.021 21.497-6.337 30.708-12.827 3.182-2.242 4.774-6.126 4.08-9.956-.693-3.83-3.546-6.91-7.312-7.894-18.896-4.937-33.89-19.248-39.932-37.479 18.116-6.431 34.588-17.278 47.727-31.794 7.912-8.741 14.368-18.554 19.24-29.044.457.089.918.18 1.383.271 7.292 1.43 15.168 2.975 23.267 2.975 16.598 0 34.131-6.488 49.482-33.748 13.315-23.636 5.77-45.908-.292-63.803-2.484-7.342-4.833-14.275-4.989-19.478zm-240.149-142.534h2.48c11.855 0 23.415 1.797 34.52 5.355l-35.76 35.754-35.76-35.754c11.106-3.558 22.665-5.355 34.52-5.355zm-225.525 215.998c-8.933-15.858-3.472-31.979 1.809-47.57 2.979-8.796 5.794-17.104 6.04-25.301.687-23.182-4.801-44.898-9.643-64.058-7.621-30.158-13.64-53.978 4.484-73.648 25.482-27.656 55.626-32.122 94.866-14.053 17.291 7.962 28.965 16.106 36.108 25.273-15.621 14.778-27.742 33.254-34.936 53.841-1.464 4.177-2.602 11.688-4.303 23.559-.998 6.959-2.466 17.206-3.501 20.783-1.702 1.857-3.536 3.782-5.46 5.801-14.601 15.324-34.598 36.312-38.735 73.054-.004.035-.008.069-.011.104l-.086.809c-.058.541-.116 1.079-.157 1.534-1.39 13.924-.204 27.864 3.34 41.159-19.887 3.879-34.488 5.931-49.815-21.287zm157.61 140.341c-12.568 8.716-27.778 12.014-42.829 9.291-1.502-.272-2.984-.6-4.445-.983 15.455-9.734 27.184-24.766 32.715-42.426 6.494 1.116 13.111 1.69 19.784 1.69h17.51c-3.459 13.181-11.415 24.578-22.735 32.428zm185.585 8.307c-1.46.383-2.942.711-4.445.983-15.05 2.723-30.26-.575-42.829-9.291-11.32-7.85-19.276-19.246-22.736-32.429h17.51c6.673 0 13.29-.573 19.784-1.69 5.531 17.662 17.261 32.693 32.716 42.427zm19.562-92.708c-18.392 20.318-44.657 31.972-72.061 31.972h-23.353l4.387-53.083c.455-5.504-3.638-10.335-9.142-10.789-5.5-.464-10.335 3.638-10.79 9.142l-10.931 132.28h-28.278l-16.183-177.652c-.501-5.501-5.375-9.547-10.866-9.052-5.5.501-9.553 5.366-9.052 10.866l8.953 98.288h-22.605c-27.404 0-53.67-11.653-72.062-31.972-18.45-20.383-27.115-46.601-24.39-73.909.039-.431.086-.862.133-1.295l.089-.839c3.39-30.042 19.3-46.738 33.338-61.472 2.391-2.51 4.649-4.88 6.824-7.295 3.35-3.744 4.472-9.434 7.454-30.249 1.037-7.236 2.457-17.146 3.384-19.79 9.429-26.985 28.767-49.702 53.599-63.249l48.491 48.482c1.953 1.952 4.511 2.928 7.07 2.928s5.118-.976 7.07-2.928l48.491-48.482c24.832 13.547 44.17 36.264 53.598 63.247.918 2.63 2.333 12.506 3.366 19.718 2.99 20.878 4.116 26.584 7.494 30.348 2.151 2.389 4.407 4.757 6.796 7.264 14.038 14.735 29.947 31.434 33.345 61.482l.087.822c.047.435.094.869.142 1.393 2.717 27.223-5.948 53.441-24.398 73.824zm82.926-128.808c.246 8.194 3.06 16.501 6.04 25.297 5.281 15.59 10.742 31.712 1.808 47.571-15.325 27.214-29.926 25.166-49.809 21.288 3.541-13.278 4.728-27.19 3.343-41.07-.049-.544-.107-1.088-.166-1.636l-.085-.796c-.003-.035-.007-.07-.011-.106-4.147-36.745-24.142-57.733-38.741-73.058-1.926-2.021-3.762-3.949-5.459-5.801-1.04-3.582-2.514-13.867-3.514-20.851-1.694-11.829-2.828-19.311-4.283-23.478-7.39-21.148-19.976-40.066-36.212-55.038 9.379-8.988 21.474-16.761 37.381-24.085 39.241-18.069 69.385-13.604 94.866 14.053 18.124 19.669 12.104 43.49 4.484 73.647-4.842 19.162-10.329 40.878-9.642 64.063z"/></g><g><g><g><g><g><g><path d="m295.94 289.811c-4.064 0-7.801-2.557-9.29-6.331-1.532-3.882-.444-8.427 2.696-11.185 3.183-2.797 7.921-3.265 11.591-1.147 3.664 2.115 5.646 6.461 4.812 10.613-.926 4.612-5.097 8.05-9.809 8.05z"/></g></g></g></g></g></g><g><g><g><g><g><g><g><path d="m302.227 208.94c12.709-12.709 33.39-12.707 46.101.003 3.905 3.905 3.905 10.237 0 14.142s-10.237 3.905-14.142 0c-4.913-4.913-12.905-4.915-17.816-.003-3.905 3.905-10.237 3.905-14.142 0-3.907-3.905-3.907-10.237-.001-14.142z"/></g></g></g></g></g></g><g><g><g><g><g><g><path d="m209.612 208.94c3.905 3.905 3.905 10.237 0 14.142s-10.237 3.905-14.142 0c-4.911-4.911-12.904-4.909-17.816.003-3.905 3.905-10.237 3.905-14.142 0s-3.905-10.237 0-14.142c12.711-12.711 33.391-12.712 46.1-.003z"/></g></g></g></g></g></g></g></g></g></svg>