<svg id="Capa_1" enable-background="new 0 0 512.07 512.07" height="512" viewBox="0 0 512.07 512.07" width="512" xmlns="http://www.w3.org/2000/svg"><g><g><g><g><g><g><path clip-rule="evenodd" d="m456.047 219.289c12.796-8.143 24.21-18.528 32.233-31.765 34.509-56.935-6.794-145.08-6.794-145.08s-93.133 3.989-129.461 57.515" fill="#ffbe90" fill-rule="evenodd"/></g></g></g><g><g><g><path clip-rule="evenodd" d="m436.514 179.346c6.204-4.51 10.987-9.429 14.139-14.628 7.955-13.124 9.519-34.638 4.404-60.581-.901-4.572-1.944-8.959-3.042-13.067-4.151.927-8.523 2.032-12.993 3.348-24.073 7.088-41.827 17.664-50.373 29.942" fill="#f5eeec" fill-rule="evenodd"/></g></g></g></g><g><g><g><path clip-rule="evenodd" d="m56.023 219.289c-12.796-8.143-24.21-18.528-32.233-31.765-34.509-56.935 6.794-145.08 6.794-145.08s93.133 3.989 129.461 57.515" fill="#ffbe90" fill-rule="evenodd"/></g></g></g><g><g><g><path clip-rule="evenodd" d="m75.556 179.346c-6.205-4.51-10.988-9.429-14.139-14.628-7.955-13.124-9.519-34.638-4.404-60.581.901-4.572 1.944-8.959 3.042-13.067 4.151.927 8.523 2.032 12.993 3.348 24.073 7.088 41.827 17.664 50.373 29.942" fill="#f5eeec" fill-rule="evenodd"/></g></g></g><g><g><g><g><path clip-rule="evenodd" d="m470.272 302.261c0 118.183-95.917 167.363-214.237 167.363s-214.237-49.18-214.237-167.363c0-103.253 73.213-198.274 170.614-220.635 14.084-3.233 28.674-4.948 43.622-4.948 118.321 0 214.238 107.399 214.238 225.583z" fill="#fff7bf" fill-rule="evenodd"/></g></g></g><g><g><g><path d="m470.275 302.265c0 .88-.01 1.75-.02 2.62-40.08-10.39-65.58-22.18-65.58-22.18s23.91-11.05 61.8-21.19c2.5 13.34 3.8 26.97 3.8 40.75z" fill="#ffbe90"/></g></g><g><g><g><path d="m107.395 282.705s-25.5 11.79-65.58 22.18c-.01-.87-.02-1.74-.02-2.62 0-13.78 1.3-27.42 3.79-40.75 37.9 10.14 61.81 21.19 61.81 21.19z" fill="#ffbe90"/></g></g></g><g><g><g><g><path clip-rule="evenodd" d="m404.095 390.945c0 18.8-4.94 35.51-13.78 49.87-.01.01-.01.01-.01.01-36.73 19.73-83.43 28.8-134.27 28.8s-97.54-9.07-134.27-28.8c0 0 0 0-.01-.01-8.84-14.36-13.78-31.07-13.78-49.87 0-68.86 66.29-124.67 148.06-124.67s148.06 55.81 148.06 124.67z" fill="#fff2a0" fill-rule="evenodd"/></g></g></g><g><g><g><ellipse clip-rule="evenodd" cx="256.035" cy="297.693" fill="#ffbdbc" fill-rule="evenodd" rx="49.377" ry="31.422"/></g></g></g></g></g></g></g><g><g><g><path d="m490.542 38.201c-1.712-3.654-5.468-5.911-9.483-5.748-3.864.166-91.914 4.529-132.92 55.939-14.14-6.969-29.023-12.407-44.443-16.093-.393-.103-.796-.182-1.206-.236-.007-.001-.014-.002-.021-.003-.042-.005-.083-.01-.125-.015-.179-.021-.602-.059-1.183-.107-5.113-.421-9.508 3.443-9.894 8.559-.005.067-.01.122-.016.165 0 .003-.012.099-.017.145-.055.463-.078.924-.068 1.381v88.945c0 5.326 4.02 9.977 9.335 10.321 5.824.377 10.665-4.236 10.665-9.978v-76.396c70.175 21.806 126.233 83.814 143.61 159.302-32.961 9.458-53.37 18.819-54.295 19.246-3.538 1.636-5.804 5.178-5.805 9.076s2.265 7.441 5.803 9.078c1.005.464 23.533 10.798 59.535 20.715-2.198 43.134-18.452 77.37-48.46 102.186 1.691-7.629 2.541-15.554 2.541-23.739 0-36.303-16.665-70.328-46.925-95.807-29.475-24.818-68.467-38.593-109.913-38.859-.406-.006-.813-.008-1.221-.008s-.815.003-1.221.008c-41.447.266-80.438 14.041-109.913 38.859-30.26 25.479-46.925 59.504-46.925 95.807 0 8.186.85 16.11 2.541 23.739-30.007-24.817-46.262-59.052-48.46-102.186 36.003-9.918 58.531-20.251 59.535-20.715 3.538-1.637 5.804-5.18 5.803-9.078s-2.266-7.44-5.805-9.076c-.925-.428-21.335-9.788-54.304-19.247 17.357-75.343 73.281-137.305 143.279-159.198v75.948c0 5.326 4.02 9.977 9.335 10.321 5.824.377 10.665-4.236 10.665-9.978v-89.214c.003-.17.003-.341-.003-.513-.122-5.417-4.551-9.772-9.997-9.772-1.258 0-2.462.233-3.571.657-14.927 3.676-29.343 8.997-43.062 15.76-41.008-51.41-129.058-55.773-132.922-55.939-4.006-.167-7.771 2.094-9.483 5.748-1.779 3.797-43.15 93.692-6.291 154.507 7.188 11.86 17.275 22.404 30.036 31.411-4.041 11.504-7.241 23.384-9.517 35.55-.001.004-.001.007-.002.011-2.627 14.068-3.96 28.396-3.96 42.586 0 .878.01 1.747.02 2.615l.001.117v.009c.789 64.967 30.145 114.909 84.898 144.451.167.098.336.19.508.277 36.502 19.555 84.497 29.89 138.814 29.89 54.411 0 102.477-10.371 139.002-29.991.086-.046.171-.094.256-.143 54.795-29.537 84.173-79.494 84.962-144.485 0-.003 0-.006 0-.009l.001-.117c.01-.868.02-1.737.02-2.615 0-14.196-1.335-28.522-3.969-42.58 0-.002-.001-.005-.001-.007-2.274-12.17-5.472-24.053-9.511-35.558 12.762-9.008 22.85-19.552 30.038-31.413 36.859-60.814-4.512-150.709-6.291-154.506zm-438.48 253.515c.296-5.855.837-11.719 1.62-17.556 10.196 2.974 19.11 5.929 26.459 8.545-7.735 2.754-17.205 5.883-28.079 9.011zm22.96-125.873c-2.073-2.071-3.763-4.18-5.053-6.309-6.562-10.826-7.708-30.313-3.144-53.463.186-.947.383-1.902.588-2.862.946.262 1.884.529 2.811.802 17.782 5.237 32.089 12.655 40.527 20.871-13.319 12.178-25.327 25.939-35.729 40.961zm-42.681 16.498c-26.266-43.335-3.565-108.921 4.631-129.357 20.023 2 79.047 10.701 109.127 45.244-6.882 4.216-13.547 8.807-19.969 13.744-10.832-11.293-27.996-20.592-50.259-27.148-4.388-1.292-8.976-2.474-13.637-3.515-5.232-1.162-10.454 1.998-11.839 7.177-1.236 4.624-2.311 9.239-3.193 13.716-5.679 28.807-3.721 52.217 5.664 67.698 2.797 4.615 6.577 9.012 11.28 13.129-4.082 7.082-7.823 14.389-11.199 21.895-8.671-6.723-15.58-14.291-20.606-22.583zm263.071 115.352c0 10.132-16.171 21.422-39.377 21.422s-39.377-11.29-39.377-21.422c0-9.992 15.729-21.11 38.421-21.415.318-.002.637-.003.956-.003s.638.001.956.003c22.692.305 38.421 11.423 38.421 21.415zm-166.497 135.597c-7.261-12.686-10.94-26.917-10.94-42.345 0-46.255 33.144-86.201 80.743-104.315-1.344 3.51-2.059 7.217-2.059 11.063 0 20.843 21.001 37.632 49.37 40.86v14.274c0 5.36-4.359 9.722-9.717 9.722s-9.717-4.361-9.717-9.722c0-5.523-4.477-10-10-10s-10 4.477-10 10c0 16.389 13.331 29.722 29.717 29.722 7.559 0 14.467-2.837 19.717-7.502 5.25 4.665 12.158 7.502 19.717 7.502 16.386 0 29.717-13.333 29.717-29.722 0-5.523-4.477-10-10-10s-10 4.477-10 10c0 5.36-4.359 9.722-9.717 9.722s-9.717-4.361-9.717-9.722v-14.273c28.376-3.224 49.384-20.016 49.384-40.862 0-3.846-.715-7.553-2.059-11.063 47.598 18.114 80.742 58.06 80.742 104.315 0 15.428-3.679 29.659-10.94 42.345-33.341 17.236-77.217 26.336-127.12 26.336s-93.779-9.099-127.121-26.335zm272.41-308.414c8.439-8.214 22.742-15.63 40.52-20.866.927-.272 1.865-.54 2.812-.802.206.96.402 1.915.589 2.863 4.564 23.149 3.417 42.636-3.145 53.462-1.289 2.128-2.977 4.234-5.048 6.304-10.401-15.023-22.409-28.783-35.728-40.961zm30.596 157.826c7.34-2.612 16.251-5.565 26.463-8.542.785 5.835 1.328 11.698 1.624 17.557-10.881-3.131-20.351-6.26-28.087-9.015zm47.808-100.361c-5.026 8.292-11.935 15.86-20.605 22.583-3.374-7.507-7.115-14.815-11.196-21.897 4.701-4.116 8.48-8.512 11.276-13.125 9.384-15.481 11.343-38.892 5.664-67.697-.882-4.478-1.957-9.093-3.193-13.717-1.386-5.179-6.604-8.344-11.839-7.177-4.661 1.041-9.25 2.223-13.639 3.515-22.26 6.555-39.422 15.852-50.254 27.144-6.422-4.936-13.088-9.527-19.971-13.742 30.083-34.544 89.111-43.244 109.125-45.243 8.199 20.439 30.898 86.021 4.632 129.356z"/></g><g><g><g><g><path d="m256.035 181.474c-5.523 0-10-4.478-10-10v-48.692c0-5.522 4.477-10 10-10s10 4.478 10 10v48.692c0 5.523-4.477 10-10 10z"/></g></g></g></g><g><g><g><g><path d="m256.035 86.674c-4.177 0-8.005-2.693-9.405-6.631-1.377-3.872-.213-8.327 2.936-10.991 3.283-2.776 8.092-3.12 11.745-.864 3.506 2.166 5.323 6.412 4.523 10.445-.916 4.621-5.095 8.041-9.799 8.041z"/></g></g></g></g><g><g><g><g><g><path d="m324.939 233.605c11.664-11.664 30.643-11.662 42.309.003 3.905 3.905 3.905 10.237 0 14.142s-10.237 3.905-14.142 0c-3.867-3.867-10.159-3.869-14.024-.003-3.905 3.905-10.237 3.905-14.142 0-3.906-3.905-3.906-10.236-.001-14.142z"/></g></g></g></g><g><g><g><g><path d="m187.353 233.605c3.905 3.905 3.905 10.237 0 14.142s-10.237 3.905-14.142 0c-3.866-3.866-10.157-3.864-14.024.003-3.905 3.905-10.237 3.905-14.142 0s-3.905-10.237 0-14.142c11.665-11.665 30.645-11.666 42.308-.003z"/></g></g></g></g></g></g></g></g></svg>