<svg id="Capa_1" enable-background="new 0 0 512.025 512.025" height="512" viewBox="0 0 512.025 512.025" width="512" xmlns="http://www.w3.org/2000/svg"><g><g><g><g><g><path clip-rule="evenodd" d="m321.679 448.525v9.666c0 24.209-19.625 43.834-43.834 43.834h-43.665c-24.209 0-43.834-19.625-43.834-43.834v-9.666" fill="#e5ae8c" fill-rule="evenodd"/></g></g></g><g><g><g><path clip-rule="evenodd" d="m394.183 140.191c12.496-6.333 41.722-2.287 49.992 1.351 45.35 19.951 57.837 91.307 57.837 91.307s-34.984 14.893-71.663 13.449" fill="#ffd4b5" fill-rule="evenodd"/></g></g></g><g><g><g><g><path clip-rule="evenodd" d="m124.538 130.467c-.368-7.53-2.425-14.947-3.852-22.69-8.416-45.665-103.607-47.493-103.607-47.493s25.018-36.841 70.24-47.539c51.998-12.3 105.045 18.219 120.142 69.475" fill="#cfd3df" fill-rule="evenodd"/></g></g></g><g><g><g><path clip-rule="evenodd" d="m387.487 130.467c.368-7.53 2.425-14.947 3.852-22.69 8.417-45.666 103.607-47.494 103.607-47.494s-25.017-36.841-70.24-47.539c-51.998-12.3-105.045 18.219-120.142 69.475" fill="#cfd3df" fill-rule="evenodd"/></g></g></g></g><g><g><path clip-rule="evenodd" d="m117.842 140.191c-12.496-6.333-41.722-2.287-49.992 1.351-45.35 19.951-57.837 91.307-57.837 91.307s34.984 14.893 71.663 13.449" fill="#ffd4b5" fill-rule="evenodd"/></g></g><g><g><g><g><g><path clip-rule="evenodd" d="m83.527 242.566c0-27.357 6.379-52.383 17.745-74.157 28.153-53.956 86.868-87.939 154.74-87.939s126.586 33.983 154.74 87.939c11.366 21.774 17.745 46.799 17.745 74.157 0 81.768-55.308 183.136-131.806 212.114-12.522 4.74-27.285 5.628-40.679 5.628-15.603 0-30.722-1.125-45.103-7.448-73.388-32.306-127.382-130.725-127.382-210.294z" fill="#fff7bf" fill-rule="evenodd"/></g></g></g></g><g><g><g><g><path d="m255.876 197.525c.09.848.136 1.71.136 2.582 0-.872.046-1.734.136-2.582z" fill="none"/></g></g></g></g></g><g><g><g><path d="m305.132 86.694c-1.86 29.37-14.1 57.95-49.71 70.77-14.47 5.21-29.44 6.22-43.57 3.66 25.59-18.66 18.43-50.88 11.54-77.96 10.56-1.77 21.47-2.69 32.62-2.69 17.07 0 33.551 2.15 49.12 6.22z" fill="#e5ae8c"/></g></g></g></g><g><g><path d="m511.863 231.125c-.548-3.129-13.982-76.881-63.66-98.736-8.484-3.732-33.367-7.889-50.536-3.911.396-3.813 1.235-7.801 2.114-11.979.47-2.232.956-4.54 1.392-6.908 5.678-30.803 69.758-38.818 93.965-39.308 3.669-.07 7.004-2.144 8.69-5.402s1.453-7.179-.608-10.214c-1.11-1.636-27.76-40.191-76.211-51.652-55.725-13.184-111.993 18.025-130.456 71.443-13.19-2.645-26.779-3.982-40.539-3.982-11.536 0-23.055.949-34.239 2.822-.012.002-.024.004-.036.006-2.098.352-4.186.738-6.263 1.156-18.464-53.42-74.735-84.626-130.459-71.446-48.451 11.461-75.101 50.016-76.212 51.652-2.061 3.035-2.295 6.956-.608 10.214 1.686 3.259 5.021 5.332 8.689 5.402 22.578.434 88.303 8.585 93.965 39.308.437 2.367.922 4.674 1.391 6.904.88 4.18 1.719 8.169 2.115 11.983-17.169-3.978-42.052.179-50.535 3.911-49.68 21.855-63.113 95.607-63.661 98.736-.801 4.578 1.657 9.104 5.933 10.925 1.407.599 32.61 13.707 67.92 14.324 2.659 38.114 15.941 81.105 36.659 117.69 19.37 34.203 43.476 60.372 69.671 76.093v8.035c0 29.685 24.15 53.834 53.834 53.834h43.665c29.685 0 53.835-24.149 53.835-53.834v-8.051c26.195-15.731 50.3-41.9 69.668-76.091 20.719-36.579 34.003-79.564 36.662-117.675 35.307-.619 66.514-13.725 67.92-14.324 4.278-1.821 6.736-6.347 5.935-10.925zm-89.459-208.648c23.339 5.521 40.979 18.894 51.818 29.353-8.724 1.005-19.397 2.658-30.332 5.371-46.249 11.475-59.453 32.852-62.386 48.765-.392 2.121-.851 4.304-1.295 6.414-.121.577-.243 1.155-.364 1.736-18.23-15.511-39.823-27.282-63.827-34.71 15.686-42.793 61.246-67.606 106.386-56.929zm-166.392 67.998c13.031 0 25.876 1.323 38.3 3.939-3.828 27.21-17.719 44.8-42.277 53.642-6.16 2.219-12.561 3.605-19.024 4.148 10.418-18.81 7.133-41.742 2.75-60.648 6.687-.719 13.464-1.081 20.251-1.081zm-187.878-33.275c-10.962-2.72-21.659-4.374-30.395-5.378 10.792-10.443 28.397-23.791 51.882-29.346 45.144-10.681 90.718 14.147 106.395 56.956-23.765 7.409-45.541 19.254-63.826 34.734-.125-.6-.251-1.197-.376-1.792-.444-2.109-.903-4.291-1.294-6.41-2.933-15.912-16.137-37.289-62.386-48.764zm3.743 93.495c5.195-2.286 19.629-4.321 30.616-3.741-17.9 26.02-27.768 56.472-28.868 89.406-21.338-.507-41.393-6.259-51.954-9.85 4.599-18.2 18.673-61.943 50.206-75.815zm312.068 213.496c-23.384 41.28-53.681 69.376-85.31 79.11-5.278 1.625-8.24 7.221-6.616 12.499 1.323 4.299 5.28 7.061 9.555 7.061.974 0 1.965-.143 2.944-.445 2.381-.733 4.754-1.552 7.115-2.455-.924 17.836-15.727 32.063-33.789 32.063h-43.664c-18.06 0-32.86-14.223-33.788-32.057 2.361.901 4.733 1.719 7.115 2.45.978.3 1.966.443 2.939.443 4.276 0 8.235-2.766 9.556-7.067 1.621-5.279-1.344-10.873-6.624-12.495-31.623-9.712-61.917-37.801-85.301-79.093-21.638-38.208-34.556-83.682-34.556-121.642 0-73.26 48.804-131.612 122.418-147.776 5.695 24.606 7.327 45.637-9.979 58.256-3.233 2.357-4.749 6.415-3.855 10.314.894 3.9 4.027 6.892 7.964 7.605 5.531 1.002 11.126 1.5 16.72 1.5 10.861 0 21.711-1.879 32.021-5.59 30.639-11.031 49.442-34.138 54.911-67.205 64.041 21.327 104.781 76.292 104.781 142.895.001 37.959-12.918 83.427-34.557 121.629zm54.453-127.831c-1.107-32.792-11-63.35-28.889-89.405 10.99-.584 25.441 1.453 30.64 3.74 31.428 13.826 45.564 57.611 50.192 75.818-10.568 3.593-30.623 9.342-51.943 9.847z"/></g><g><g><g><g><g><path d="m255.742 420.579c-10.598 0-21.196-4.033-29.264-12.102-3.905-3.905-3.905-10.237 0-14.142 3.905-3.904 10.237-3.904 14.143 0 8.338 8.337 21.905 8.339 30.244 0 3.906-3.904 10.236-3.904 14.142 0 3.905 3.905 3.905 10.237 0 14.142-8.069 8.069-18.666 12.102-29.265 12.102z"/></g></g></g></g><g><g><g><g><g><path d="m284.683 366.785c-5.523 0-10-4.478-10-10v-14.605c0-5.523 4.477-10 10-10 5.522 0 10 4.477 10 10v14.605c0 5.523-4.477 10-10 10z"/></g></g></g></g><g><g><g><g><path d="m227.054 366.785c-5.523 0-10-4.478-10-10v-14.605c0-5.523 4.477-10 10-10s10 4.477 10 10v14.605c0 5.523-4.477 10-10 10z"/></g></g></g></g></g></g><g><g><g><g><path d="m256.012 470.306c-4.05 0-7.829-2.605-9.305-6.37-1.55-3.952-.322-8.653 2.954-11.35 3.331-2.742 8.279-3.007 11.874-.617 3.484 2.315 5.201 6.783 4.151 10.834-1.118 4.321-5.206 7.503-9.674 7.503z"/></g></g></g></g><g><g><g><g><g><path d="m324.917 263.596c11.664-11.664 30.643-11.662 42.309.003 3.905 3.905 3.905 10.237 0 14.142s-10.237 3.905-14.142 0c-3.867-3.867-10.159-3.869-14.024-.003-3.905 3.905-10.237 3.905-14.142 0-3.907-3.905-3.907-10.237-.001-14.142z"/></g></g></g></g><g><g><g><g><path d="m187.331 263.596c3.905 3.905 3.905 10.237 0 14.142s-10.237 3.905-14.142 0c-3.866-3.866-10.157-3.864-14.024.003-3.905 3.905-10.237 3.905-14.142 0s-3.905-10.237 0-14.142c11.665-11.666 30.644-11.667 42.308-.003z"/></g></g></g></g></g></g></g></svg>