<svg id="Capa_1" enable-background="new 0 0 512.001 512.001" height="512" viewBox="0 0 512.001 512.001" width="512" xmlns="http://www.w3.org/2000/svg"><g><g><g><g><path clip-rule="evenodd" d="m178.776 71.411c-14.602-43.562-76.242-61.41-76.242-61.41s-41.07 52.078-27.458 96.746c6.494 21.31 24.259 37.084 41.064 47.754" fill="#cfd3df" fill-rule="evenodd"/></g><g><g><path clip-rule="evenodd" d="m396.197 154.287c16.705-10.667 34.277-26.372 40.727-47.54 13.612-44.669-27.458-96.746-27.458-96.746s-61.224 17.714-76.092 60.97" fill="#cfd3df" fill-rule="evenodd"/></g></g></g><g><g><g><path clip-rule="evenodd" d="m439.24 329.861c0 29.052-6.777 55.628-18.852 78.751-29.908 57.3-92.284 93.389-164.388 93.389s-134.479-36.089-164.388-93.389c-12.074-23.123-18.852-49.699-18.852-78.751 0-86.835 60.583-242.601 141.851-273.375 13.303-5.033 27.16-7.802 41.389-7.802 16.576 0 32.638 3.755 47.915 10.469 77.965 34.308 135.325 186.208 135.325 270.708z" fill="#f5eeec" fill-rule="evenodd"/></g></g></g><g><g><g><g><g><path clip-rule="evenodd" d="m420.393 408.613c-29.911 57.296-92.289 93.388-164.392 93.388s-134.481-36.092-164.393-93.388c30.144-45.204 92.434-76.236 164.392-76.236s134.249 31.032 164.393 76.236z" fill="#b6bccf" fill-rule="evenodd"/></g></g><g><g><g><path d="m402.685 174.461h-293.339c10.111-23.596 22.044-45.924 35.468-64.839h222.413c13.414 18.914 25.347 41.242 35.458 64.839z" fill="#cfd3df"/></g></g><g><g><g><g><path d="m439.25 329.86c0 .835-.01 1.681-.01 2.517h-366.479c0-.836-.01-1.681-.01-2.517 0-27.13 5.811-62.343 16.294-98.492h333.912c10.483 36.149 16.293 71.362 16.293 98.492z" fill="#e7e9ef"/></g></g></g></g></g><g><g><g><g><path d="m256.145 377.692c-.095-.901-.145-1.816-.145-2.742 0 .926-.049 1.841-.145 2.742z" fill="none"/></g></g></g></g></g></g></g></g><g><path d="m432.551 228.55c-5.779-19.985-12.735-39.509-20.675-58.03-.007-.015-.014-.03-.02-.046-1.64-3.826-3.31-7.582-5.009-11.266 20.666-14.351 33.99-30.996 39.643-49.546 14.965-49.106-27.362-103.56-29.172-105.854-2.519-3.194-6.722-4.545-10.631-3.414-2.491.721-56.783 16.848-78.096 56.643-8.023-5.007-16.183-8.662-24.454-10.943-5.319-1.464-10.831 1.657-12.299 6.981-1.469 5.324 1.656 10.831 6.981 12.299 15.92 4.391 32.268 16.115 47.935 34.247h-181.459c15.705-18.167 32.097-29.907 48.059-34.294 5.326-1.464 8.456-6.967 6.993-12.293-1.464-5.325-6.969-8.457-12.292-6.992-8.333 2.29-16.552 5.971-24.632 11.021-21.303-39.799-75.606-55.944-78.107-56.667-3.909-1.131-8.113.217-10.633 3.413-1.809 2.294-44.136 56.748-29.171 105.854 5.656 18.56 18.988 35.21 39.665 49.562-1.703 3.695-3.378 7.461-5.022 11.298-.004.01-.008.019-.012.029-7.916 18.445-14.88 37.966-20.7 58.025l-.002.007c-10.762 37.112-16.689 73.08-16.689 101.278l.01 2.517c0 .045 0 .091.001.136.395 28.935 7.116 56.097 19.978 80.732.055.106.113.211.171.314 31.867 60.731 98.154 98.442 173.09 98.442 74.942 0 141.233-37.717 173.098-98.457.056-.099.11-.198.163-.299 12.861-24.635 19.583-51.797 19.978-80.732.001-.045.001-.091.001-.136l.011-2.517c0-28.198-5.927-64.166-16.69-101.278-.005-.012-.008-.023-.012-.034zm-282.508-108.929h211.952c8.925 13.14 17.379 28.162 25.235 44.839h-262.43c7.86-16.683 16.315-31.703 25.243-44.839zm-34.054 64.84h280.05c4.919 11.949 9.414 24.301 13.43 36.907h-306.926c4.035-12.639 8.536-24.992 13.446-36.907zm-19.374 56.906h318.771c8.075 29.498 12.854 57.738 13.721 81.009h-346.213c.867-23.27 5.646-51.51 13.721-81.009zm309.05-219.496c9.407 13.918 31.185 50.815 21.693 81.961-4.853 15.926-17.572 28.459-29.444 37.169-7.111-13.613-14.645-26.045-22.53-37.165-9.864-13.91-20.059-25.469-30.527-34.631 12.465-26.801 46.421-41.951 60.808-47.334zm-321.022 81.961c-9.496-31.159 12.301-68.07 21.699-81.972 14.396 5.36 48.347 20.465 60.82 47.377-10.453 9.153-20.634 20.693-30.485 34.573-.006.008-.011.016-.017.024-7.893 11.121-15.433 23.56-22.55 37.184-11.918-8.738-24.618-21.271-29.467-37.186zm9.098 285.427c-5.83-14.782-9.36-30.471-10.547-46.882h75.082c-25.692 11.407-47.861 27.342-64.535 46.882zm162.259 102.742c-65.371 0-123.263-31.547-152.635-82.734 30.57-41.404 88.386-66.89 152.635-66.89s122.065 25.486 152.636 66.89c-29.373 51.187-87.264 82.734-152.636 82.734zm97.725-149.624h75.081c-1.186 16.411-4.716 32.1-10.546 46.882-16.674-19.54-38.844-35.475-64.535-46.882z"/><g><g><g><g><path d="m256 58.69c-4.171 0-7.989-2.7-9.403-6.615-1.382-3.827-.242-8.214 2.809-10.902 3.263-2.874 8.179-3.272 11.87-.979 3.466 2.152 5.319 6.364 4.542 10.372-.898 4.645-5.073 8.124-9.818 8.124z"/></g></g></g></g><g><g><g><g><g><path d="m255.856 468.825c-11.729 0-23.458-4.463-32.388-13.388-3.906-3.905-3.907-10.236-.003-14.142s10.235-3.908 14.143-.003c10.062 10.059 26.434 10.058 36.496 0 3.905-3.905 10.236-3.904 14.142.003 3.904 3.906 3.903 10.238-.003 14.142-8.929 8.925-20.659 13.388-32.387 13.388z"/></g></g></g></g><g><g><g><g><g><path d="m288.873 407.478c-5.523 0-10-4.477-10-10v-16.656c0-5.523 4.477-10 10-10 5.522 0 10 4.477 10 10v16.656c0 5.523-4.478 10-10 10z"/></g></g></g></g><g><g><g><g><path d="m223.129 407.478c-5.523 0-10-4.477-10-10v-16.656c0-5.523 4.477-10 10-10s10 4.477 10 10v16.656c0 5.523-4.477 10-10 10z"/></g></g></g></g></g></g><g><g><g><g><g><path d="m324.904 270.571c11.664-11.664 30.643-11.662 42.309.003 3.905 3.905 3.905 10.237 0 14.142s-10.237 3.905-14.142 0c-3.867-3.867-10.159-3.869-14.024-.003-3.905 3.905-10.237 3.905-14.142 0-3.906-3.905-3.906-10.237-.001-14.142z"/></g></g></g></g><g><g><g><g><path d="m187.319 270.571c3.905 3.905 3.905 10.237 0 14.142s-10.237 3.905-14.142 0c-3.866-3.866-10.157-3.864-14.024.003-3.905 3.905-10.237 3.905-14.142 0s-3.905-10.237 0-14.142c11.665-11.665 30.644-11.667 42.308-.003z"/></g></g></g></g></g></g></g></svg>