<svg id="Capa_1" enable-background="new 0 0 511.932 511.932" height="512" viewBox="0 0 511.932 511.932" width="512" xmlns="http://www.w3.org/2000/svg"><g><g><g><g><path d="m213.838 106.387c-28.957-56.99-95.046-85.29-147.614-64.445-52.569 20.844-71.709 83.942-42.753 140.932 13.251 26.078 30.274 42.356 54.222 54.687" fill="#e7e9ef"/></g><g><g><g><path d="m434.239 237.561c23.948-12.331 40.971-28.609 54.222-54.687 28.957-56.99 9.816-120.087-42.752-140.932s-118.657 7.456-147.614 64.445" fill="#e7e9ef"/></g></g></g></g><g><g><g><path d="m167.424 123.781c-17.85-34.813-51.827-49.651-80.973-38.093-29.229 11.59-38.506 49.362-20.721 84.366 7.844 15.438 15.64 23.756 28.885 31.713" fill="#ffdede"/></g></g><g><g><g><path d="m417.316 201.766c13.246-7.956 21.041-16.275 28.885-31.713 17.785-35.004 8.509-72.776-20.721-84.366-29.146-11.558-63.123 3.28-80.973 38.093" fill="#ffdede"/></g></g></g></g><g><g><g><g><path d="m445.781 325.165c0-116.809-91.111-223.612-189.815-223.612s-189.815 106.803-189.815 223.612c0 58.098 43.695 102.519 114.477 125.195 11.156 3.574 21.98 8.177 31.972 14.292 12.634 7.733 27.464 12.214 43.366 12.214s30.732-4.481 43.366-12.214c9.992-6.116 20.817-10.718 31.973-14.293 70.781-22.675 114.476-67.097 114.476-125.194z" fill="#cfd3df"/></g></g></g></g><g><g><g><ellipse clip-rule="evenodd" cx="255.966" cy="334.431" fill="#ffbdbc" fill-rule="evenodd" rx="45.649" ry="29.049"/></g></g></g></g><g><path d="m497.375 187.403c16.283-32.046 19.046-67.811 7.58-98.127-9.928-26.249-29.66-46.36-55.561-56.631-27.989-11.098-60.066-9.977-90.329 3.157-28.04 12.169-51.525 33.408-66.741 60.205-11.897-2.915-24.063-4.454-36.358-4.454s-24.461 1.539-36.358 4.454c-15.217-26.797-38.701-48.036-66.741-60.205-30.263-13.134-62.343-14.255-90.328-3.157-25.902 10.271-45.635 30.383-55.562 56.631-11.466 30.315-8.703 66.081 7.58 98.127 13.189 25.958 30.342 43.772 55.322 57.336-4.292 12.395-7.658 25.203-9.983 38.286l-18.271-6.856c-5.175-1.941-10.936.679-12.875 5.85-1.94 5.171.679 10.936 5.85 12.876l22.557 8.464c-.663 7.215-1.005 14.491-1.005 21.805 0 17.237 3.547 33.53 10.382 48.592l-33.46 8.836c-5.34 1.41-8.525 6.882-7.115 12.222 1.185 4.484 5.233 7.449 9.662 7.449.846 0 1.705-.108 2.56-.334l38.485-10.163c20.154 29.671 54.608 53.283 100.912 68.116 11.402 3.653 21.151 8.003 29.802 13.298 14.628 8.953 31.429 13.685 48.587 13.685s33.959-4.732 48.586-13.685c4.029-2.466 8.404-4.776 13.006-6.869.426-.194.854-.387 1.282-.576 5.05-2.235 7.332-8.142 5.097-13.192s-8.142-7.331-13.192-5.096c-.492.218-.983.439-1.47.66-5.338 2.428-10.44 5.124-15.162 8.015-11.484 7.028-24.675 10.743-38.146 10.743s-26.662-3.715-38.145-10.743c-10.03-6.139-21.198-11.139-34.142-15.286-38.62-12.372-67.931-31.219-86.121-54.587l65.298-17.244c5.34-1.41 8.525-6.882 7.115-12.222-1.411-5.341-6.889-8.526-12.223-7.115l-71.411 18.859c-6.701-13.422-10.186-27.971-10.186-43.362 0-4.825.167-9.66.495-14.492l77.659 29.14c1.157.434 2.344.64 3.511.64 4.049 0 7.858-2.477 9.364-6.49 1.94-5.171-.679-10.936-5.85-12.876l-82.33-30.892c6.721-41.474 25.1-81.743 52.662-114.161 34.841-40.978 80.147-64.48 124.303-64.48s89.462 23.502 124.303 64.48c27.562 32.418 45.941 72.687 52.662 114.161l-82.33 30.892c-5.171 1.94-7.79 7.705-5.85 12.876 1.506 4.014 5.315 6.49 9.364 6.49 1.167 0 2.355-.206 3.511-.64l77.659-29.14c.328 4.833.495 9.667.495 14.492 0 15.328-3.431 29.905-10.113 43.381l-71.483-18.878c-5.343-1.411-10.813 1.775-12.223 7.115s1.775 10.811 7.115 12.222l65.421 17.277c-5.824 7.509-12.809 14.556-20.919 21.062-4.308 3.456-4.998 9.75-1.542 14.058 3.457 4.309 9.75 4.998 14.058 1.542 11.762-9.437 21.518-19.887 29.179-31.176l38.478 10.161c.856.226 1.715.334 2.561.334 4.429 0 8.477-2.965 9.662-7.449 1.41-5.34-1.775-10.812-7.115-12.222l-33.46-8.836c6.864-15.136 10.382-31.446 10.382-48.591 0-7.315-.341-14.59-1.005-21.805l22.557-8.464c5.171-1.94 7.79-7.705 5.85-12.876-1.94-5.17-7.708-7.79-12.875-5.85l-18.272 6.856c-2.325-13.084-5.691-25.891-9.983-38.286 24.979-13.565 42.132-31.378 55.321-57.337zm-464.988-9.059c-13.74-27.042-16.184-56.927-6.703-81.992 7.913-20.921 23.619-36.944 44.227-45.115 45.256-17.948 101.628 4.769 130.083 50.897-8.959 3.41-17.709 7.592-26.186 12.471-9.509-16.433-23.013-29.234-38.451-36.343-17.098-7.873-35.775-8.538-52.592-1.871-14.631 5.802-25.879 17.432-31.672 32.749-7.466 19.74-5.38 43.593 5.723 65.443 7.901 15.551 16.008 24.993 29.045 33.499-3.093 5.817-5.977 11.778-8.635 17.863-20.251-11.459-33.844-25.961-44.839-47.601zm63.56 12.431c-9.518-6.386-15.197-13.237-21.301-25.251-8.56-16.846-10.326-34.818-4.846-49.308 3.833-10.135 10.865-17.477 20.338-21.232 24.259-9.62 51.354 2.885 66.837 30.472-23.591 16.903-44.474 39.308-61.028 65.319zm346.075-139.538c20.607 8.171 36.313 24.193 44.227 45.115 9.48 25.065 7.037 54.95-6.703 81.992-10.995 21.641-24.588 36.142-44.838 47.602-2.659-6.086-5.542-12.046-8.635-17.863 13.037-8.507 21.143-17.949 29.045-33.499 11.103-21.85 13.189-45.703 5.723-65.443-5.793-15.317-17.041-26.947-31.672-32.749-16.816-6.668-35.493-6.004-52.592 1.871-15.438 7.109-28.941 19.91-38.451 36.343-8.477-4.879-17.228-9.061-26.186-12.471 28.454-46.128 84.823-68.844 130.082-50.898zm-87.065 74.218c15.482-27.586 42.573-40.094 66.837-30.472 9.473 3.756 16.505 11.098 20.338 21.232 5.48 14.49 3.714 32.462-4.846 49.308-6.104 12.014-11.783 18.865-21.301 25.251-16.554-26.01-37.437-48.415-61.028-65.319z"/><path d="m265.966 372.877c26.273-3.217 45.648-18.951 45.648-38.447 0-21.897-24.443-39.049-55.648-39.049s-55.648 17.152-55.648 39.049c0 19.495 19.376 35.23 45.648 38.447v11.828c0 4.54-3.691 8.232-8.229 8.232-4.537 0-8.228-3.693-8.228-8.232 0-5.523-4.477-10-10-10-5.522 0-10 4.477-10 10 0 15.567 12.663 28.232 28.228 28.232 6.942 0 13.307-2.519 18.229-6.692 4.922 4.172 11.286 6.692 18.229 6.692 15.565 0 28.228-12.665 28.228-28.232 0-5.523-4.478-10-10-10s-10 4.477-10 10c0 4.54-3.69 8.232-8.228 8.232-4.537 0-8.228-3.693-8.228-8.232v-11.828zm-45.648-38.446c0-9.01 14.641-19.049 35.648-19.049s35.648 10.039 35.648 19.049-14.641 19.049-35.648 19.049-35.648-10.039-35.648-19.049z"/><g><g><g><g><path d="m360.836 448.923c-4.117 0-7.908-2.637-9.36-6.483-1.495-3.958-.26-8.577 3.016-11.255 3.236-2.645 7.895-2.985 11.481-.842 3.577 2.138 5.49 6.44 4.663 10.529-.932 4.611-5.083 8.051-9.8 8.051z"/></g></g></g></g><g><g><g><g><g><path d="m324.87 263.554c11.664-11.664 30.643-11.662 42.309.003 3.905 3.905 3.905 10.237 0 14.142s-10.237 3.905-14.142 0c-3.867-3.867-10.159-3.869-14.024-.003-3.905 3.905-10.237 3.905-14.142 0-3.906-3.905-3.906-10.237-.001-14.142z"/></g></g></g></g><g><g><g><g><path d="m187.284 263.554c3.905 3.905 3.905 10.237 0 14.142s-10.237 3.905-14.142 0c-3.866-3.866-10.157-3.864-14.024.003-3.905 3.905-10.237 3.905-14.142 0s-3.905-10.237 0-14.142c11.665-11.665 30.645-11.667 42.308-.003z"/></g></g></g></g></g></g></g></svg>