<svg id="Capa_1" enable-background="new 0 0 512.029 512.029" height="512" viewBox="0 0 512.029 512.029" width="512" xmlns="http://www.w3.org/2000/svg"><g><g><g><g><g><g><path clip-rule="evenodd" d="m71.282 203.631c-21.746-12.269-44.93-30.817-54.504-57.005-20.202-55.263 11.283-131.2 11.283-131.2s94.802 25.646 116.487 79.044" fill="#e5ae8c" fill-rule="evenodd"/></g></g></g><g><g><g><path clip-rule="evenodd" d="m115.681 123.602c-4.868-15.362-43.757-42.67-57.043-49.253-.51-.253-1.019-.503-1.527-.75-3.619 19.522-4.901 41.462.993 57.919 7.91 22.087 26.787 35.231 28.366 37.667" fill="#ffdede" fill-rule="evenodd"/></g></g></g></g><g><g><g><g><path clip-rule="evenodd" d="m440.746 203.631c21.746-12.269 44.931-30.817 54.504-57.005 20.202-55.263-11.283-131.2-11.283-131.2s-94.802 25.646-116.487 79.044" fill="#e5ae8c" fill-rule="evenodd"/></g></g></g><g><g><g><path clip-rule="evenodd" d="m396.348 123.602c4.868-15.362 43.757-42.67 57.043-49.253.51-.253 1.019-.503 1.527-.75 3.619 19.522 4.901 41.462-.993 57.919-7.91 22.087-26.787 35.231-28.366 37.667" fill="#ffdede" fill-rule="evenodd"/></g></g></g></g><g><g><g><g><path clip-rule="evenodd" d="m437.974 237.305c0 86.26-60.16 220.98-140.86 251.55-13.21 5-26.97 7.75-41.1 7.75-16.46 0-32.41-3.73-47.58-10.4-45.92-20.21-84.64-74.48-108.55-132.81-16.4-40.01-25.83-81.94-25.83-116.09 0-28.86 6.73-55.26 18.72-78.23 21.73-41.65 60.73-72.02 108.15-85.32 17.38-4.87 35.89-7.45 55.09-7.45 71.6 0 133.54 35.85 163.24 92.77 11.99 22.97 18.72 49.37 18.72 78.23z" fill="#f5eeec" fill-rule="evenodd"/></g></g></g></g><g><g><g><path clip-rule="evenodd" d="m256.014 403.771c-13.224 0-23.944-10.72-23.944-23.944v-10.789h47.889v10.789c0 13.223-10.721 23.944-23.945 23.944z" fill="#ffbdbc" fill-rule="evenodd"/></g></g><g><g><g><g><path clip-rule="evenodd" d="m279.954 203.635c0 89.73-73.25 168.78-147.16 168.78-9.77 0-19.29-1.27-28.46-3.69-19.18-45.03-30.29-94.03-30.29-131.42 0-87.83 62.38-152.88 145.3-167.77 33.96 31.05 60.61 81.63 60.61 134.1z" fill="#ffd4b5" fill-rule="evenodd"/></g></g></g></g></g></g><g><g><path d="m493.204 11.595c-1.925-4.644-6.999-7.136-11.849-5.823-3.912 1.059-92.718 25.626-120.185 78.54-30.634-18.227-66.875-28.007-105.156-28.007-12.978 0-25.877 1.134-38.342 3.37-.032.006-.064.011-.096.017-23.951 4.301-46.587 12.754-66.683 24.69-27.424-52.962-116.306-77.551-120.22-78.61-4.851-1.309-9.924 1.181-11.849 5.823-1.347 3.248-32.733 80.209-11.437 138.464 8.8 24.074 28.425 44.901 58.334 61.914-1.113 8.275-1.676 16.729-1.676 25.332 0 39.039 11.622 89.633 31.09 135.339.002.004.004.008.005.012 13.266 31.172 29.629 58.804 47.321 79.909 20.648 24.632 42.764 40.337 65.732 46.68.891.245 1.786.363 2.667.363 4.386 0 8.409-2.908 9.633-7.341 1.47-5.324-1.654-10.831-6.977-12.302-33.292-9.193-66.363-44.568-92.242-98.098 3.826.364 7.671.548 11.52.548 38.549 0 78.194-19.717 108.769-54.096 30.753-34.579 48.392-80.024 48.392-124.684 0-44.665-18.584-91.577-49.432-126.736 5.129-.395 10.303-.594 15.493-.594 98.039 0 171.97 69.215 171.97 161 0 81.45-55.67 222.369-129.642 242.707-5.325 1.465-8.455 6.969-6.991 12.294 1.22 4.438 5.246 7.352 9.636 7.352.878 0 1.77-.117 2.657-.36 38.632-10.622 75.759-48.845 104.544-107.626 24.547-50.128 39.795-109.277 39.795-154.366 0-8.577-.575-17.03-1.706-25.316 29.925-17.016 49.56-37.849 58.363-61.93 21.296-58.256-10.091-135.217-11.438-138.465zm-467.033 131.597c-14.824-40.552.861-94.733 7.991-115.425 22.584 7.438 82.421 30.238 99.969 67.825-5.492 4.119-10.728 8.527-15.679 13.207-15.006-19.082-47.661-39.588-55.369-43.408-.533-.265-1.065-.525-1.597-.784-2.808-1.366-6.093-1.344-8.88.064-2.788 1.407-4.758 4.035-5.328 7.104-3.297 17.788-5.729 43.177 1.411 63.114 6.712 18.74 20.168 31.619 26.964 37.792-2.291 6.011-4.249 12.166-5.869 18.45-22.381-13.849-37.038-29.953-43.613-47.939zm58.23 10.227c-5.795-5.803-12.964-14.332-16.882-25.272-3.471-9.691-4.362-22.875-2.663-38.629 14.837 9.585 33.839 24.949 39.725 34.005-7.832 9.339-14.571 19.338-20.18 29.896zm48.393 208.996c-7.128 0-14.237-.751-21.195-2.234-17.298-42.094-27.555-87.686-27.555-122.875 0-78.138 52.899-140.651 132.168-156.983 33.253 32.289 53.742 79.08 53.742 123.313 0 81.615-66.657 158.779-137.16 158.779zm274.65-238.888c5.882-9.054 24.886-24.421 39.728-34.009 1.699 15.753.808 28.938-2.663 38.628-3.93 10.972-11.129 19.52-16.933 25.324-5.616-10.612-12.346-20.637-20.132-29.943zm78.414 19.665c-6.581 18.002-21.259 34.12-43.675 47.979-1.626-6.274-3.588-12.423-5.876-18.426 6.774-6.149 20.298-19.052 27.032-37.855 7.14-19.938 4.708-45.326 1.411-63.114-.569-3.069-2.54-5.697-5.328-7.104s-6.072-1.429-8.88-.064c-.531.259-1.063.52-1.592.782-7.711 3.82-40.357 24.321-55.366 43.4-.707-.67-1.419-1.336-2.139-1.995-4.327-3.969-8.841-7.719-13.527-11.247 17.578-37.566 77.391-60.351 99.956-67.782 7.143 20.664 22.845 74.774 7.984 115.426z"/><path d="m307.419 423.01c0-5.522-4.477-10-10-10s-10 4.478-10 10c0 5.904-4.801 10.707-10.703 10.707-5.901 0-10.702-4.803-10.702-10.707v-10.743c13.852-4.279 23.944-17.203 23.944-32.441v-10.79c0-5.523-4.477-10-10-10h-47.888c-5.523 0-10 4.477-10 10v10.79c0 15.238 10.093 28.162 23.944 32.441v10.743c0 5.904-4.801 10.707-10.702 10.707s-10.703-4.803-10.703-10.707c0-5.522-4.477-10-10-10s-10 4.478-10 10c0 16.932 13.773 30.707 30.703 30.707 7.969 0 15.239-3.053 20.702-8.05 5.463 4.998 12.733 8.05 20.702 8.05 16.93 0 30.703-13.775 30.703-30.707zm-65.349-43.973h27.889v.79c0 7.689-6.255 13.944-13.944 13.944s-13.944-6.256-13.944-13.944v-.79z"/></g><g><g><g><g><path d="m256.014 506.605c-4.192 0-7.983-2.712-9.407-6.636-1.4-3.859-.195-8.336 2.938-10.986 3.274-2.77 8.101-3.133 11.745-.868 3.486 2.167 5.345 6.408 4.534 10.44-.928 4.612-5.101 8.05-9.81 8.05z"/></g></g></g></g><g><g><g><g><g><path d="m324.918 253.586c11.664-11.664 30.643-11.662 42.309.003 3.905 3.905 3.905 10.237 0 14.142s-10.237 3.905-14.142 0c-3.867-3.867-10.159-3.869-14.024-.003-3.905 3.905-10.237 3.905-14.142 0-3.906-3.906-3.906-10.237-.001-14.142z"/></g></g></g></g><g><g><g><g><path d="m187.332 253.586c3.905 3.905 3.905 10.237 0 14.142s-10.237 3.905-14.142 0c-3.866-3.866-10.157-3.864-14.024.003-3.905 3.905-10.237 3.905-14.142 0s-3.905-10.237 0-14.142c11.666-11.666 30.645-11.667 42.308-.003z"/></g></g></g></g></g></g></g></svg>