<svg id="Capa_1" enable-background="new 0 0 512.091 512.091" height="512" viewBox="0 0 512.091 512.091" width="512" xmlns="http://www.w3.org/2000/svg"><g><g><g><g><g><g><path clip-rule="evenodd" d="m454.024 239.554c13-6.883 29.261-27.542 34.078-38.55 24.011-54.874 9.726-134.215 9.726-134.215s-107.828-12.077-142.804 36.548" fill="#e5ae8c" fill-rule="evenodd"/></g></g></g><g><g><g><path clip-rule="evenodd" d="m436.502 190.69c34.418-38.276 22.092-77.638 22.092-77.638s-33.184-6.74-67.569 19.619" fill="#ffdede" fill-rule="evenodd"/></g></g></g></g><g><g><g><g><path clip-rule="evenodd" d="m58.067 239.554c-13-6.883-29.261-27.542-34.078-38.55-24.011-54.874-9.726-134.214-9.726-134.214s107.828-12.077 142.804 36.548" fill="#e5ae8c" fill-rule="evenodd"/></g></g></g><g><g><g><path clip-rule="evenodd" d="m75.59 190.69c-34.418-38.276-22.092-77.638-22.092-77.638s33.184-6.74 67.569 19.619" fill="#ffdede" fill-rule="evenodd"/></g></g></g></g><g><g><g><g><g><path clip-rule="evenodd" d="m455.412 278.725c0 64.56-42.386 125.842-91.816 147.932-30.55 13.68-67.6 20.02-107.55 20.02-37.75 0-72.92-5.66-102.45-17.82-52.29-21.51-96.916-83.372-96.916-150.132 0-104.46 94.786-199.39 199.366-199.39s199.366 94.93 199.366 199.39z" fill="#ffd4b5" fill-rule="evenodd"/></g></g></g></g><g><g><g><path d="m185.816 345.292c-4.741-5.542-8.052-12.777-8.052-23.226 0-12.292 6.746-34.272 17.569-49-5.182-1.348-60.631 8-60.631 60.464 0 27.851 27.837 41.833 48.022 41.833h11.06" fill="#f5eeec"/></g></g></g><g><g><g><path d="m318.307 375.362h11.06c20.185 0 48.022-13.982 48.022-41.833 0-52.464-55.449-61.811-60.631-60.464 10.822 14.728 17.569 36.708 17.569 49 0 10.315-3.227 17.498-7.871 23.013" fill="#f5eeec"/></g></g></g><g><g><g><g><g><path clip-rule="evenodd" d="m325.849 358.759c0 1.039-.252 2.303-.682 3.716-4.335 14.247-19.811 21.891-33.887 17.028-3.485-1.204-7.088-2.473-10.599-3.724-15.934-5.677-33.339-5.677-49.274 0-3.511 1.251-7.113 2.52-10.597 3.724-14.075 4.863-29.55-2.78-33.885-17.027-.43-1.413-.682-2.676-.682-3.716 0-51.246 17.803-65.309 69.803-65.309 55.333-.001 69.803 14.561 69.803 65.308z" fill="#ffbe90" fill-rule="evenodd"/></g></g></g></g></g></g></g><g><g><g><g><g><g><path d="m235.379 354.341c-5.523 0-10-4.477-10-10v-4.269c0-5.523 4.477-10 10-10s10 4.477 10 10v4.269c0 5.523-4.477 10-10 10z"/></g></g></g></g><g><g><g><g><path d="m276.712 354.341c-5.523 0-10-4.477-10-10v-4.269c0-5.523 4.477-10 10-10s10 4.477 10 10v4.269c0 5.523-4.477 10-10 10z"/></g></g></g></g><g><path d="m507.67 65.018c-.784-4.352-4.333-7.674-8.729-8.166-4.544-.508-109.51-11.638-149.54 37.394-14.334-7.88-29.361-14.058-44.737-18.304-5.324-1.472-10.831 1.654-12.301 6.977s1.654 10.831 6.978 12.301c81.91 22.62 146.074 103.226 146.074 183.509 0 103.691-95.265 157.943-189.369 157.943s-189.369-54.253-189.369-157.944c0-80.384 64.244-161.013 146.257-183.56 5.325-1.464 8.455-6.968 6.991-12.293s-6.969-8.458-12.293-6.991c-15.449 4.247-30.546 10.444-44.944 18.359-40.031-49.028-144.996-37.901-149.538-37.391-4.395.492-7.945 3.813-8.729 8.166-.606 3.362-14.537 82.99 10.406 139.995 4.913 11.228 20.303 31.601 34.86 41.177-1.991 10.824-3.01 21.711-3.01 32.539 0 26.839 5.899 52.023 17.535 74.852 10.938 21.461 26.666 40.354 46.748 56.152 38.474 30.27 90 46.939 145.086 46.939s106.612-16.67 145.086-46.939c20.082-15.799 35.81-34.691 46.748-56.152 11.636-22.829 17.535-48.013 17.535-74.852 0-10.827-1.02-21.714-3.011-32.538 14.558-9.576 29.948-29.949 34.861-41.177 24.942-57.006 11.011-136.634 10.405-139.996zm-430.849 111.351c-16.413-22.483-16.335-43.868-15-54.094 9.134-.277 27.046 1.178 46.468 13.63-4.686 4.83-9.187 9.88-13.481 15.135-6.645 8.132-12.65 16.603-17.987 25.329zm-43.671 20.626c-18.318-41.863-12.88-100.272-10.164-120.879 23.277-1.491 93.587-3.103 122.415 28.682-7.688 5.182-15.113 10.87-22.216 17.024-36.132-25.4-70.195-18.872-71.677-18.569-3.57.725-6.464 3.335-7.553 6.812-.564 1.801-13.193 43.943 22.474 85.353-4.658 9.66-8.527 19.544-11.57 29.553-9.076-8.085-18.588-20.843-21.709-27.976zm370.646-61.089c19.44-12.475 37.321-13.933 46.457-13.64 1.312 10.216 1.378 31.655-14.988 54.102-5.318-8.696-11.302-17.138-17.921-25.245-4.314-5.284-8.837-10.361-13.548-15.217zm75.145 61.09c-3.121 7.132-12.633 19.892-21.71 27.975-3.043-10.008-6.912-19.892-11.571-29.551 35.67-41.411 23.04-83.555 22.476-85.356-1.089-3.477-3.982-6.086-7.553-6.812-1.483-.302-35.548-6.83-71.681 18.572-7.102-6.153-14.527-11.842-22.214-17.024 28.828-31.79 99.15-30.177 122.417-28.685 2.717 20.611 8.154 79.017-10.164 120.881z"/><path d="m256.046 283.449c-30.439 0-48.717 4.793-61.116 16.026-1.184 1.073-2.308 2.201-3.373 3.387 2.753-8.323 6.859-17.105 11.834-23.876 1.963-2.672 2.475-6.144 1.365-9.269s-3.697-5.496-6.906-6.331c-6.699-1.738-29.475 2.406-47.342 16.22-16.882 13.054-25.806 31.7-25.806 53.921 0 32.016 30.118 51.833 58.022 51.833h9.924c.916.573 1.863 1.11 2.84 1.607 8.814 4.492 19.235 5.215 28.588 1.983 3.514-1.214 7.147-2.494 10.687-3.755 13.724-4.889 28.84-4.888 42.563 0 3.541 1.262 7.175 2.542 10.689 3.756 3.859 1.333 7.899 1.994 11.935 1.994 5.744 0 11.478-1.339 16.656-3.978.976-.498 1.923-1.034 2.84-1.607h9.923c27.904 0 58.022-19.817 58.022-51.833 0-22.222-8.924-40.868-25.806-53.921-17.867-13.814-40.644-17.96-47.342-16.22-3.209.835-5.796 3.206-6.906 6.331s-.599 6.597 1.365 9.269c4.606 6.269 8.468 14.262 11.2 22.018-12.29-12.647-32.573-17.555-63.856-17.555zm-111.344 50.08c0-13.986 4.635-25.565 13.775-34.414 5.318-5.147 11.59-8.811 17.41-11.335-5.215 12.534-8.123 25.484-8.123 34.286 0 10.746 2.846 19.781 8.685 27.526-.138 2.93-.206 5.983-.206 9.167 0 1.864.319 3.88.973 6.148-13.617-2.117-32.514-11.727-32.514-31.378zm149.844 36.522c-3.455-1.194-7.027-2.452-10.509-3.692-9.027-3.216-18.508-4.823-27.993-4.823-9.482 0-18.968 1.608-27.993 4.823-3.48 1.24-7.052 2.499-10.507 3.692-4.308 1.489-8.917 1.169-12.975-.899-3.938-2.007-6.807-5.412-8.078-9.588-.165-.543-.227-.851-.249-.975.03-44.311 11.799-55.138 59.803-55.138 25.79 0 40.832 3.356 48.773 10.883 7.713 7.31 11.015 20.55 11.031 44.255-.022.124-.084.433-.249.976-1.27 4.175-4.139 7.58-8.078 9.587-4.058 2.069-8.667 2.388-12.976.899zm41.658-82.271c5.819 2.524 12.093 6.188 17.41 11.335 9.141 8.849 13.775 20.427 13.775 34.414 0 19.651-18.897 29.261-32.514 31.377.655-2.269.973-4.284.973-6.148 0-3.184-.061-6.248-.186-9.194 5.826-7.741 8.664-16.764 8.664-27.499.001-8.801-2.906-21.751-8.122-34.285z"/></g><g><g><g><g><path d="m256.046 89.336c-4.173 0-7.988-2.697-9.402-6.615-1.38-3.821-.245-8.22 2.809-10.902 3.272-2.873 8.176-3.256 11.871-.97 3.469 2.147 5.319 6.353 4.542 10.362-.902 4.647-5.074 8.125-9.82 8.125z"/></g></g></g></g><g><g><g><g><g><path d="m324.95 233.636c11.664-11.664 30.643-11.662 42.309.003 3.905 3.905 3.905 10.237 0 14.142s-10.237 3.905-14.142 0c-3.867-3.867-10.159-3.869-14.024-.003-3.905 3.905-10.237 3.905-14.142 0-3.907-3.905-3.907-10.237-.001-14.142z"/></g></g></g></g><g><g><g><g><path d="m187.364 233.636c3.905 3.905 3.905 10.237 0 14.142s-10.237 3.905-14.142 0c-3.866-3.866-10.157-3.864-14.024.003-3.905 3.905-10.237 3.905-14.142 0s-3.905-10.237 0-14.142c11.665-11.665 30.644-11.667 42.308-.003z"/></g></g></g></g></g></g></g></g></svg>