<svg id="Capa_1" enable-background="new 0 0 512 512" height="512" viewBox="0 0 512 512" width="512" xmlns="http://www.w3.org/2000/svg"><g><g><g><g><g><path clip-rule="evenodd" d="m158.814 90.134c-13.918-24.284-38.091-38.643-68.087-38.643-44.585.001-80.727 36.143-80.727 80.727 0 33.4 18.283 60.062 47.205 72.34" fill="#b6bccf" fill-rule="evenodd"/></g><g><g><path clip-rule="evenodd" d="m122.246 115.215c-5.748-12.794-16.61-19.724-31.52-19.724-20.25 0-36.726 16.476-36.726 36.727 0 16.509 8.948 28.507 23.966 33.117" fill="#ffdede" fill-rule="evenodd"/></g></g><g><g><path clip-rule="evenodd" d="m454.795 204.558c28.921-12.278 47.205-38.939 47.205-72.34 0-44.584-36.143-80.727-80.727-80.727-29.996 0-54.169 14.359-68.087 38.643" fill="#b6bccf" fill-rule="evenodd"/></g><g><g><path clip-rule="evenodd" d="m434.033 165.336c15.018-4.61 23.967-16.608 23.967-33.117 0-20.252-16.476-36.727-36.727-36.727-14.91 0-25.772 6.93-31.52 19.724" fill="#ffdede" fill-rule="evenodd"/></g></g></g></g><g><g><g><g><g><g><path clip-rule="evenodd" d="m470.237 293.145c0 118.183-95.917 167.363-214.237 167.363s-214.237-49.18-214.237-167.363c0-103.253 73.213-198.274 170.614-220.635 14.084-3.233 28.674-4.948 43.622-4.948 118.321.001 214.238 107.4 214.238 225.583z" fill="#e7e9ef" fill-rule="evenodd"/></g></g></g><g><g><g><ellipse clip-rule="evenodd" cx="255.993" cy="331.947" fill="#ff9c9b" fill-rule="evenodd" rx="36.456" ry="23.199"/></g></g><g><g><g><g><g><g><path clip-rule="evenodd" d="m408.033 237.342c0 34.242.603 72.006-40.963 72.006s-75.261-37.764-75.261-72.006 13.683-62 55.249-62c41.565 0 60.975 27.758 60.975 62z" fill="#b6bccf" fill-rule="evenodd"/></g></g></g></g></g><g><g><g><g><g><path clip-rule="evenodd" d="m103.967 237.342c0 34.242-.603 72.006 40.963 72.006s75.261-37.764 75.261-72.006-13.683-62-55.249-62-60.975 27.758-60.975 62z" fill="#b6bccf" fill-rule="evenodd"/></g></g></g></g></g></g></g></g></g></g></g></g><g><g><path d="m512 132.218c0-50.026-40.7-90.727-90.727-90.727-30.499 0-56.782 13.698-73.123 37.834-14.329-7.076-29.316-12.53-44.704-16.191-5.376-1.281-10.765 2.042-12.043 7.414-1.278 5.373 2.042 10.765 7.414 12.043 92.024 21.892 161.419 112.41 161.419 210.554 0 142.029-142.829 157.363-204.237 157.363s-204.236-15.333-204.236-157.362c0-97.974 69.258-188.46 161.101-210.478 5.371-1.288 8.681-6.686 7.393-12.056-1.289-5.372-6.689-8.679-12.056-7.393-15.264 3.659-30.132 9.084-44.352 16.107-16.341-24.136-42.624-37.834-73.123-37.834-50.026-.001-90.726 40.699-90.726 90.726 0 34.448 17.371 63.308 46.841 78.515-9.879 26.476-15.078 54.447-15.078 82.413 0 30.154 6.032 57.258 17.93 80.557 11.251 22.032 27.769 40.754 49.094 55.643 38.571 26.93 92.935 41.164 157.213 41.164s118.642-14.234 157.213-41.164c21.326-14.889 37.843-33.61 49.094-55.643 11.897-23.299 17.93-50.402 17.93-80.557 0-27.969-5.198-55.939-15.077-82.413 29.469-15.208 46.84-44.068 46.84-78.515zm-429.97 14.944c-1.776 2.319-3.509 4.666-5.197 7.041-8.417-4.018-12.833-11.538-12.833-21.984 0-14.737 11.989-26.728 26.727-26.728 9.283 0 15.975 3.285 20.337 10.011-10.476 9.551-20.21 20.141-29.034 31.66zm-62.03-14.944c0-38.999 31.728-70.727 70.727-70.727 23.358 0 42.818 9.72 55.524 27.543-6.791 4.155-13.395 8.688-19.78 13.581-8.092-11.116-20.482-17.124-35.743-17.124-25.767 0-46.728 20.962-46.728 46.728 0 17.249 8.01 31.18 21.868 38.82-4.098 6.891-7.848 13.961-11.237 21.177-21.82-11.938-34.631-33.883-34.631-59.998zm380.936-16.716c4.362-6.727 11.054-10.011 20.337-10.011 14.737 0 26.727 11.99 26.727 26.728 0 10.445-4.416 17.966-12.833 21.984-1.723-2.423-3.492-4.818-5.306-7.183-8.796-11.466-18.493-22.007-28.925-31.518zm56.434 76.714c-3.39-7.216-7.139-14.286-11.238-21.177 13.857-7.64 21.868-21.571 21.868-38.82 0-25.766-20.961-46.728-46.727-46.728-15.261 0-27.65 6.007-35.743 17.123-6.386-4.892-12.99-9.426-19.781-13.581 12.706-17.823 32.165-27.542 55.523-27.542 38.999 0 70.727 31.728 70.727 70.727.001 26.115-12.809 48.06-34.629 59.998z"/><path d="m265.994 364.406c21.088-3.186 36.456-16.303 36.456-32.459 0-18.616-20.406-33.199-46.456-33.199s-46.457 14.583-46.457 33.199c0 16.156 15.368 29.273 36.457 32.459v12.813c0 4.539-3.691 8.232-8.228 8.232s-8.229-3.693-8.229-8.232c0-5.523-4.477-10-10-10s-10 4.477-10 10c0 15.567 12.663 28.232 28.229 28.232 6.942 0 13.306-2.519 18.228-6.692 4.922 4.172 11.286 6.692 18.228 6.692 15.565 0 28.228-12.665 28.228-28.232 0-5.523-4.477-10-10-10s-10 4.477-10 10c0 4.539-3.691 8.232-8.228 8.232s-8.228-3.693-8.228-8.232zm-36.457-32.459c0-5.382 10.306-13.199 26.457-13.199 16.15 0 26.456 7.817 26.456 13.199s-10.306 13.199-26.456 13.199c-16.151.001-26.457-7.817-26.457-13.199z"/></g><g><g><g><path d="m367.07 319.348c-22.177 0-43.598-9.275-60.315-26.118-15.853-15.972-24.946-36.342-24.946-55.888 0-20.944 4.746-37.743 14.106-49.932 11.246-14.644 28.453-22.068 51.143-22.068 22.426 0 40.935 7.431 53.524 21.488 11.416 12.747 17.451 30.214 17.451 50.512v1.445c.004 17.899.009 36.409-5.769 51.541-7.351 19.256-22.557 29.02-45.194 29.02zm-20.012-134.006c-30.448 0-45.249 17.01-45.249 52 0 14.098 7.155 29.724 19.141 41.799 12.934 13.03 29.314 20.207 46.121 20.207 17.926 0 23.461-8.165 26.51-16.152 4.461-11.685 4.457-28.318 4.453-44.403v-1.45c-.001-15.636-4.968-52.001-50.976-52.001z"/></g></g></g><g><g><g><path d="m144.93 319.348c-22.637 0-37.843-9.764-45.194-29.019-5.777-15.132-5.773-33.642-5.768-51.541v-1.446c0-20.298 6.035-37.765 17.451-50.512 12.589-14.058 31.097-21.488 53.523-21.488 22.69 0 39.896 7.425 51.143 22.068 9.36 12.188 14.106 28.987 14.106 49.932 0 19.546-9.092 39.916-24.946 55.888-16.718 16.842-38.138 26.118-60.315 26.118zm20.012-134.006c-46.008 0-50.975 36.365-50.975 52v1.451c-.004 16.085-.008 32.718 4.453 44.402 3.049 7.987 8.584 16.152 26.51 16.152 16.807 0 33.187-7.177 46.121-20.207 11.985-12.075 19.141-27.701 19.141-41.799-.001-34.989-14.802-51.999-45.25-51.999z"/></g></g></g><g><g><g><g><path d="m256 77.56c-4.246 0-8.09-2.774-9.462-6.786-1.328-3.884-.063-8.342 3.118-10.942 3.376-2.759 8.265-2.986 11.894-.582 3.444 2.28 5.141 6.634 4.168 10.645-1.078 4.438-5.141 7.665-9.718 7.665z"/></g></g></g></g><g><g><g><g><g><path d="m324.904 243.57c11.664-11.664 30.643-11.662 42.309.003 3.905 3.905 3.905 10.237 0 14.142s-10.237 3.905-14.142 0c-3.867-3.867-10.159-3.869-14.024-.003-3.905 3.905-10.237 3.905-14.142 0-3.906-3.905-3.906-10.236-.001-14.142z"/></g></g></g></g><g><g><g><g><path d="m187.318 243.57c3.905 3.905 3.905 10.237 0 14.142s-10.237 3.905-14.142 0c-3.866-3.866-10.157-3.864-14.024.003-3.905 3.905-10.237 3.905-14.142 0s-3.905-10.237 0-14.142c11.665-11.665 30.645-11.666 42.308-.003z"/></g></g></g></g></g></g></g></svg>