<svg id="Capa_1" enable-background="new 0 0 512 512" height="512" viewBox="0 0 512 512" width="512" xmlns="http://www.w3.org/2000/svg"><g><g><g><g><path clip-rule="evenodd" d="m457.73 145.853c2.962-1.377 4.832-.992 7.576-2.876 36.418-25.018 36.694-87.874 36.694-87.874s-58.77-22.296-95.189 2.722c-5.901 4.054-9.853 7.101-14.009 12.713" fill="#ffbdbc" fill-rule="evenodd"/></g></g><g><g><g><path clip-rule="evenodd" d="m118.197 71.538c-4.156-5.613-7.107-9.66-13.008-13.714-36.419-25.017-95.189-2.721-95.189-2.721s.276 62.857 36.694 87.874c2.743 1.885 3.613 2.5 6.575 3.877" fill="#ffbdbc" fill-rule="evenodd"/></g></g></g><g><g><g><g><g><path d="m469.564 297.057-5.487 6.455 2.118 8.075c7.898 30.109-7.232 61.497-35.706 74.073l-7.646 3.377-1.613 8.286c-5.941 30.517-33.135 52.221-64.21 51.247l-8.43-.264-4.998 6.696c-18.617 24.943-52.589 32.681-80.172 18.261l-7.422-3.88-7.422 3.88c-27.583 14.421-61.555 6.683-80.172-18.26l-4.998-6.697-8.43.264c-31.074.974-58.269-20.731-64.209-51.248l-1.613-8.286-7.645-3.377c-28.474-12.576-43.604-43.965-35.706-74.073l2.118-8.074-5.487-6.455c-20.123-23.673-20.123-58.441 0-82.113l5.487-6.455-2.118-8.075c-7.898-30.109 7.232-61.497 35.706-74.073l7.646-3.377 1.613-8.286c5.941-30.517 33.135-52.222 64.21-51.248l8.43.264 4.998-6.696c18.617-24.944 52.589-32.681 80.172-18.261l7.422 3.88 7.422-3.88c27.583-14.42 61.555-6.683 80.172 18.26l4.998 6.697 8.43-.264c31.074-.974 58.269 20.731 64.209 51.248l1.613 8.286 7.645 3.377c28.474 12.576 43.604 43.965 35.706 74.073l-2.118 8.074 5.487 6.455c20.123 23.673 20.123 58.441 0 82.114z" fill="#f5eeec"/></g></g></g></g><g><g><g><g><path clip-rule="evenodd" d="m129.68 154.39c-23.45 30.22-37.54 68.24-37.54 107.86 0 90.4 73.36 138.016 163.86 138.016s163.86-47.616 163.86-138.016c0-39.62-14.09-77.64-37.54-107.86" fill="#ffdede" fill-rule="evenodd"/></g></g></g><g><g><g><path d="m382.32 154.39c-8.62 4.13-18.3 6.29-28.41 5.97l-8.17-.25-4.85 6.49c-18.04 24.17-50.96 31.67-77.7 17.7l-7.19-3.76-7.19 3.76c-26.74 13.97-59.66 6.47-77.7-17.7l-4.85-6.49-8.17.25c-10.11.32-19.79-1.84-28.41-5.97 30.05-38.75 75.48-64.67 126.32-64.67s96.27 25.92 126.32 64.67z" fill="#f5eeec"/></g></g></g></g><g><g><g><g><path clip-rule="evenodd" d="m256 302.442c-12.1 0-21.91-9.809-21.91-21.909v-12.619h43.819v12.619c.001 12.1-9.809 21.909-21.909 21.909z" fill="#b6bccf" fill-rule="evenodd"/></g></g></g></g></g></g><g><g><g><path d="m246 320.046c0 4.934-4.012 8.947-8.943 8.947s-8.943-4.014-8.943-8.947c0-5.523-4.477-10-10-10s-10 4.477-10 10c0 15.961 12.984 28.947 28.943 28.947 7.237 0 13.863-2.671 18.943-7.078 5.08 4.408 11.706 7.078 18.943 7.078 15.959 0 28.943-12.986 28.943-28.947 0-5.523-4.477-10-10-10s-10 4.477-10 10c0 4.934-4.012 8.947-8.943 8.947s-8.943-4.014-8.943-8.947v-9.21c12.712-4.205 21.91-16.201 21.91-30.304v-12.62c0-5.523-4.477-10-10-10h-43.82c-5.523 0-10 4.477-10 10v12.62c0 14.104 9.198 26.099 21.91 30.304zm-1.91-42.133h23.819v2.62c0 6.567-5.343 11.909-11.91 11.909s-11.91-5.342-11.91-11.909v-2.62z"/><path d="m348.9 172.587 1.735-2.322 2.958.091c8.593.269 17.2-1.03 25.304-3.789 12.527 17.721 21.677 37.872 26.612 58.712 1.089 4.6 5.193 7.698 9.723 7.698.763 0 1.538-.088 2.313-.271 5.374-1.273 8.699-6.661 7.427-12.035-6.159-26.009-18.174-51.046-34.746-72.404-.001-.001-.002-.002-.002-.003-33.782-43.561-82.703-68.544-134.224-68.544s-100.442 24.983-134.222 68.543l-.003.004c-25.559 32.94-39.635 73.42-39.635 113.984 0 45.941 17.922 84.25 51.83 110.783 30.683 24.01 74.02 37.233 122.03 37.233 80.036 0 141.4-34.968 164.149-93.539 1.999-5.148-.553-10.943-5.701-12.942-5.149-1.999-10.943.553-12.942 5.701-19.646 50.582-74.04 80.78-145.505 80.78-70.977 0-153.86-33.527-153.86-128.016 0-33.712 10.947-67.406 30.96-95.684 8.108 2.762 16.719 4.065 25.296 3.789l2.969-.091 1.732 2.317c21.091 28.257 59.088 36.914 90.348 20.58l2.556-1.336 2.56 1.338c10.604 5.54 21.98 8.205 33.211 8.204 21.875-.001 43.194-10.113 57.127-28.781zm-11.17-18.463-4.854 6.495c-15.187 20.346-42.546 26.577-65.053 14.82l-7.19-3.76c-1.451-.759-3.043-1.138-4.634-1.138s-3.183.379-4.634 1.138l-7.187 3.758c-22.51 11.761-49.869 5.528-65.06-14.822l-4.85-6.491c-1.952-2.612-5.068-4.12-8.316-4.009l-8.181.25c-3.658.118-7.328-.164-10.92-.825 29.256-31.828 68.338-49.82 109.149-49.82s79.893 17.992 109.147 49.819c-3.594.661-7.261.939-10.931.826l-8.17-.25c-3.262-.107-6.364 1.396-8.316 4.009z"/></g></g><g><g><g><g><path d="m419.8 277.91c-4.176 0-8.005-2.695-9.405-6.631-1.377-3.872-.211-8.327 2.936-10.99 3.281-2.777 8.094-3.123 11.745-.864 3.517 2.176 5.318 6.398 4.523 10.446-.907 4.62-5.097 8.039-9.799 8.039z"/></g></g></g></g><path d="m477.184 208.467-2.11-2.483.796-3.032c4.694-17.894 2.461-36.053-5.261-51.49.12-.079.24-.159.361-.242 40.27-27.663 41.02-93.292 41.032-96.073.018-4.17-2.554-7.915-6.453-9.394-2.599-.987-64.127-23.834-104.398 3.829-4.494 3.088-8.435 5.946-12.299 10.082-9.821-4.346-20.738-6.585-32.14-6.229l-3.221.101-1.881-2.521c-21.675-29.035-60.71-37.927-92.821-21.14l-2.789 1.458-2.789-1.458c-32.11-16.787-71.146-7.896-92.818 21.141l-1.881 2.519-3.22-.101c-11.821-.372-23.114 2.041-33.203 6.696-2.98-3.707-6.282-7.145-11.238-10.55-40.27-27.661-101.798-4.813-104.398-3.827-3.899 1.479-6.471 5.223-6.453 9.393.012 2.78.762 68.41 41.032 96.073l.209.144c.05.035.1.069.149.103-7.72 15.436-9.952 33.593-5.259 51.485l.796 3.033-2.11 2.483c-23.413 27.542-23.413 67.524 0 95.066l2.11 2.483-.796 3.032c-9.195 35.051 8.19 71.118 41.338 85.758l2.868 1.267.615 3.159c6.914 35.513 38.201 60.482 74.338 59.332l3.221-.101 1.881 2.521c14.321 19.186 36.218 29.577 58.693 29.576 11.539-.001 23.233-2.741 34.126-8.436l2.789-1.458 2.789 1.458c32.11 16.788 71.146 7.896 92.818-21.141l1.881-2.52 3.22.101c.793.025 1.578.037 2.365.037 35.15-.002 65.211-24.634 71.974-59.369l.615-3.159 2.868-1.267c33.148-14.641 50.533-50.707 41.338-85.758l-.796-3.033 2.11-2.483c23.414-27.541 23.414-67.523.002-95.065zm-64.71-142.4c24.884-17.093 63.551-8.396 79.132-3.825-1.328 16.194-7.096 55.41-32.035 72.54-.058.025-.19.064-.351.108-6.714-7.347-15.033-13.431-24.69-17.696l-2.868-1.267-.615-3.159c-3.323-17.073-12.278-31.704-24.698-42.17 1.676-1.408 3.628-2.816 6.125-4.531zm-359.907 68.812-.211-.145c-24.883-17.093-30.639-56.307-31.963-72.492 15.589-4.573 54.251-13.267 79.133 3.824 2.298 1.579 3.979 3.115 5.605 4.958-12.152 10.436-20.9 24.903-24.178 41.743l-.615 3.159-2.868 1.267c-9.694 4.281-18.039 10.395-24.766 17.78-.045-.031-.091-.062-.137-.094zm409.378 155.701-5.487 6.455c-2.116 2.489-2.882 5.854-2.054 9.014l2.118 8.076c6.69 25.499-5.958 51.737-30.072 62.388l-7.646 3.376c-2.994 1.322-5.151 4.025-5.776 7.237l-1.613 8.286c-5.029 25.835-27.77 43.998-54.081 43.164l-8.43-.264c-3.256-.108-6.373 1.396-8.327 4.014l-4.999 6.696c-15.767 21.124-44.165 27.591-67.524 15.38l-7.422-3.88c-2.902-1.518-6.364-1.518-9.267 0l-7.421 3.88c-23.361 12.212-51.758 5.745-67.525-15.38l-4.999-6.697c-1.891-2.533-4.864-4.019-8.013-4.019-.104 0-.21.001-.314.005l-8.431.264c-26.276.821-49.051-17.328-54.08-43.163l-1.613-8.286c-.626-3.212-2.783-5.915-5.776-7.237l-7.646-3.376c-24.115-10.651-36.762-36.889-30.073-62.388l2.118-8.075c.829-3.16.062-6.525-2.054-9.014l-5.487-6.455c-17.032-20.037-17.032-49.123 0-69.16l5.487-6.455c2.116-2.489 2.882-5.854 2.054-9.014l-2.118-8.076c-6.689-25.499 5.958-51.737 30.072-62.388l7.646-3.376c2.994-1.322 5.151-4.025 5.776-7.237l1.613-8.286c5.029-25.836 27.761-43.985 54.081-43.164l8.43.264c3.256.106 6.373-1.396 8.327-4.014l4.999-6.696c15.768-21.125 44.167-27.592 67.524-15.38l7.422 3.88c2.902 1.518 6.364 1.518 9.267 0l7.421-3.88c23.36-12.212 51.758-5.745 67.525 15.38l4.999 6.697c1.954 2.617 5.075 4.12 8.327 4.014l8.431-.264c26.262-.834 49.051 17.327 54.08 43.163l1.613 8.286c.626 3.212 2.783 5.915 5.776 7.237l7.646 3.376c24.115 10.651 36.762 36.889 30.073 62.388l-2.118 8.075c-.829 3.16-.062 6.525 2.054 9.014l5.487 6.455c17.033 20.037 17.033 49.123 0 69.16z"/><g><g><g><g><g><path d="m304.904 243.57c11.664-11.664 30.643-11.662 42.309.003 3.905 3.905 3.905 10.237 0 14.142s-10.237 3.905-14.142 0c-3.867-3.867-10.159-3.869-14.024-.003-3.905 3.905-10.237 3.905-14.142 0-3.906-3.905-3.906-10.236-.001-14.142z"/></g></g></g></g><g><g><g><g><path d="m207.318 243.57c3.905 3.905 3.905 10.237 0 14.142s-10.237 3.905-14.142 0c-3.866-3.866-10.157-3.864-14.024.003-3.905 3.905-10.237 3.905-14.142 0s-3.905-10.237 0-14.142c11.666-11.665 30.645-11.666 42.308-.003z"/></g></g></g></g></g></g></g></svg>