<svg id="Capa_1" enable-background="new 0 0 512 512" height="512" viewBox="0 0 512 512" width="512" xmlns="http://www.w3.org/2000/svg"><g><g><g><g><g><path clip-rule="evenodd" d="m84.217 259.84c-14.457-1.819-32.222-17.565-39.209-27.34-34.836-48.726-35.008-118.469-35.008-118.469s89.314-24.093 133.586 16.252" fill="#ffbe90" fill-rule="evenodd"/></g></g></g><g><g><g><path clip-rule="evenodd" d="m97.444 218.871c-36.477-29.863-32.862-67.686-32.862-67.686 9.929-.658 27.679-6.663 64.705 10.279" fill="#f5eeec" fill-rule="evenodd"/></g></g></g><g><g><g><g><path clip-rule="evenodd" d="m427.783 259.84c14.457-1.819 32.222-17.565 39.21-27.34 34.835-48.726 35.007-118.469 35.007-118.469s-89.314-24.093-133.586 16.252" fill="#ffbe90" fill-rule="evenodd"/></g></g></g><g><g><g><path clip-rule="evenodd" d="m414.556 218.871c36.477-29.863 32.862-67.686 32.862-67.686-9.929-.658-27.679-6.663-64.705 10.279" fill="#f5eeec" fill-rule="evenodd"/></g></g></g></g><g><g><g><g><path clip-rule="evenodd" d="m437.963 331.001c0 28.857-6.736 55.264-18.719 78.23-29.702 56.916-91.644 92.769-163.244 92.769s-133.542-35.853-163.244-92.769c-11.983-22.966-18.719-49.373-18.719-78.23 0-100.379 72.963-239.29 181.963-239.29 107 0 181.963 138.911 181.963 239.29z" fill="#fff7bf" fill-rule="evenodd"/></g></g></g></g><g><g><g><g><path d="m256.143 378.515c-.094-.895-.143-1.804-.143-2.724 0 .92-.049 1.829-.144 2.724z" fill="none"/></g></g></g></g><g><g><g><path clip-rule="evenodd" d="m419.244 409.231c-29.702 56.916-91.644 92.769-163.244 92.769s-133.542-35.853-163.244-92.769c29.933-44.904 91.789-75.731 163.244-75.731s133.311 30.827 163.244 75.731z" fill="#fff2a0" fill-rule="evenodd"/></g></g></g><g><g><g><g><path clip-rule="evenodd" d="m321 183.434c0 16.445-39.27 25.98-50 39.067-62.067 75.709-39.925-42.559-50.829-55.523-39.897-47.433 37.891-23.744 55.612-23.744s45.217 23.755 45.217 40.2z" fill="#ffbe90" fill-rule="evenodd"/></g></g></g></g><g><g><g><g><circle clip-rule="evenodd" cx="354.442" cy="31.039" fill="#fff2a0" fill-rule="evenodd" r="21.039"/></g></g></g><g><g><g><g><circle clip-rule="evenodd" cx="159.265" cy="31.039" fill="#fff2a0" fill-rule="evenodd" r="21.039"/></g></g></g></g></g></g><g><g><g><g><g><path d="m255.856 469.11c-11.665 0-23.331-4.441-32.212-13.321-3.905-3.905-3.906-10.237 0-14.142 3.905-3.905 10.237-3.906 14.142 0 9.964 9.964 26.177 9.964 36.14 0 3.906-3.904 10.236-3.904 14.143 0 3.905 3.905 3.905 10.237 0 14.143-8.881 8.88-20.547 13.32-32.213 13.32z"/></g></g></g></g><g><g><g><g><g><path d="m288.643 408.17c-5.522 0-10-4.477-10-10v-16.545c0-5.523 4.478-10 10-10s10 4.477 10 10v16.545c0 5.523-4.478 10-10 10z"/></g></g></g></g><g><g><g><g><path d="m223.358 408.17c-5.523 0-10-4.477-10-10v-16.545c0-5.523 4.477-10 10-10s10 4.477 10 10v16.545c0 5.523-4.477 10-10 10z"/></g></g></g></g></g><path d="m504.605 104.376c-3.813-1.029-92.897-24.427-141.124 16.924v-60.564c12.72-3.879 22.001-15.724 22.001-29.697-.001-17.115-13.924-31.039-31.04-31.039-17.115 0-31.04 13.924-31.04 31.039 0 13.258 8.356 24.601 20.078 29.041v48.591c-12.794-9.234-26.108-15.855-39.656-19.596-5.323-1.469-10.831 1.653-12.302 6.977-1.47 5.324 1.654 10.831 6.978 12.301 71.716 19.804 129.466 137.996 129.466 222.648 0 20.79-3.648 40.524-10.864 58.869-35.29-41.301-95.294-66.37-161.102-66.37s-125.809 25.068-161.1 66.368c-7.216-18.352-10.866-38.092-10.866-58.866 0-84.725 57.828-202.954 129.641-222.697 5.325-1.464 8.456-6.968 6.991-12.293-1.464-5.325-6.969-8.457-12.293-6.991-13.693 3.764-27.148 10.467-40.07 19.832v-48.117c12.72-3.879 22.001-15.724 22.001-29.697 0-17.115-13.924-31.039-31.039-31.039s-31.039 13.924-31.039 31.039c0 13.258 8.356 24.601 20.078 29.041v61.036c-48.276-41.097-137.1-17.768-140.908-16.74-4.373 1.18-7.407 5.15-7.395 9.68.007 2.978.597 73.519 36.873 124.26 6.766 9.464 21.033 22.716 35.712 28.629-5.555 22.198-8.55 44.076-8.55 64.056 0 28.871 6.311 56.029 18.758 80.721.185.367.913 1.781 1.098 2.135 31.59 60.537 97.539 98.143 172.108 98.143 74.491 0 140.38-37.528 172.01-97.953.034-.062.068-.125.101-.189 13.175-25.247 19.854-53.125 19.854-82.856 0-19.978-2.995-41.857-8.549-64.057 14.678-5.914 28.945-19.165 35.711-28.629 36.275-50.741 36.864-121.282 36.872-124.261.012-4.529-3.021-8.499-7.394-9.679zm-400.578 81.881c-3.038 5.58-5.927 11.279-8.659 17.067-15.443-16.318-19.564-33.515-20.588-43.254 8.766-.936 21.139-1.104 40.913 6.504-4.031 6.247-7.925 12.813-11.666 19.683zm55.238-166.257c6.087 0 11.039 4.952 11.039 11.039s-4.952 11.039-11.039 11.039-11.039-4.952-11.039-11.039 4.952-11.039 11.039-11.039zm-106.123 206.684c-25.857-36.169-31.547-85.692-32.794-104.758 21.774-4.471 83.973-13.896 116.502 15.748.077.071.156.139.235.207-3.269 3.773-6.479 7.732-9.622 11.87-30.557-12.751-48.388-10.437-59.304-9.022-1.668.216-3.108.403-4.239.479-4.891.324-8.826 4.147-9.292 9.027-.162 1.696-3.407 40.482 32.212 72.701-3.244 8.132-6.176 16.363-8.774 24.612-9.457-4.492-20.111-14.132-24.924-20.864zm202.858 265.316c-64.873 0-122.326-31.311-151.487-82.116 30.35-41.089 87.729-66.384 151.487-66.384 63.757 0 121.136 25.296 151.487 66.385-29.162 50.804-86.615 82.115-151.487 82.115zm98.442-472c6.087 0 11.039 4.952 11.039 11.039s-4.952 11.039-11.039 11.039c-6.088 0-11.04-4.952-11.04-11.039s4.953-11.039 11.04-11.039zm53.591 166.339c-3.754-6.903-7.662-13.498-11.709-19.771 19.758-7.599 32.128-7.432 40.892-6.498-1.025 9.759-5.151 26.942-20.576 43.245-2.717-5.756-5.588-11.425-8.607-16.976zm50.825 40.345c-4.813 6.731-15.465 16.369-24.921 20.861-2.597-8.251-5.528-16.483-8.772-24.616 35.613-32.217 32.369-70.999 32.207-72.695-.467-4.88-4.401-8.703-9.293-9.027-1.131-.075-2.571-.262-4.238-.479-10.911-1.415-28.737-3.73-59.284 9.014-3.144-4.142-6.355-8.102-9.625-11.877.073-.063.146-.127.217-.192 32.538-29.652 94.756-20.215 116.513-15.746-1.226 19.046-6.873 68.486-32.804 104.757z"/><g><g><g><path d="m239.233 257.63c-2.006 0-4.005-.312-5.986-.984-17.332-5.879-18.219-32.986-19.076-59.2-.291-8.912-.687-21.031-2.03-24.48-8.041-9.633-17.638-23.574-10.996-35.251 8.461-14.874 34.013-10.675 58.725-6.616 6.39 1.049 12.996 2.135 15.913 2.135 10.761 0 24.165 6.14 35.858 16.424 5.82 5.12 19.358 18.659 19.358 33.775 0 15.873-16.753 24.665-32.954 33.167-7.632 4.005-16.282 8.545-19.313 12.241-11.285 13.766-25.571 28.789-39.499 28.789zm-19.863-109.697c.756 1.977 2.82 5.91 8.454 12.609 5.122 6.089 5.695 16.618 6.337 36.25.314 9.616.64 19.56 1.842 27.871 1.28 8.851 3.035 11.951 3.744 12.886 1.736-.44 8.666-3.27 23.52-21.388 5.605-6.838 15.263-11.905 25.486-17.271 6.364-3.34 12.946-6.794 17.483-10.246 4.559-3.469 4.765-5.195 4.765-5.211 0-3.71-3.933-11.163-12.567-18.757-7.781-6.844-16.883-11.442-22.649-11.442-4.549 0-10.995-1.059-19.155-2.399-8.008-1.316-17.085-2.807-24.983-3.327-6.828-.451-10.468-.001-12.277.425z"/></g></g></g><g><g><g><g><path d="m256 101.71c-4.132 0-7.883-2.62-9.351-6.472-1.502-3.942-.262-8.586 3.007-11.255 3.236-2.644 7.895-2.984 11.481-.842 3.587 2.143 5.478 6.432 4.663 10.529-.919 4.62-5.092 8.04-9.8 8.04z"/></g></g></g></g><g><g><g><g><g><path d="m324.904 273.57c11.664-11.664 30.643-11.662 42.309.003 3.905 3.905 3.905 10.237 0 14.142s-10.237 3.905-14.142 0c-3.867-3.867-10.159-3.869-14.024-.003-3.905 3.905-10.237 3.905-14.142 0-3.906-3.905-3.906-10.236-.001-14.142z"/></g></g></g></g><g><g><g><g><path d="m187.318 273.57c3.905 3.905 3.905 10.237 0 14.142s-10.237 3.905-14.142 0c-3.866-3.866-10.157-3.864-14.024.003-3.905 3.905-10.237 3.905-14.142 0s-3.905-10.237 0-14.142c11.665-11.665 30.645-11.666 42.308-.003z"/></g></g></g></g></g></g></g></svg>