<svg id="Capa_1" enable-background="new 0 0 512.109 512.109" height="512" viewBox="0 0 512.109 512.109" width="512" xmlns="http://www.w3.org/2000/svg"><g><g><g><g><g><path clip-rule="evenodd" d="m452.984 228.235c10.314-5.931 19.702-13.45 27.237-22.97 41.321-52.202 11.299-144.799 11.299-144.799s-97.016-7.96-138.336 44.242" fill="#e7e9ef" fill-rule="evenodd"/></g></g></g><g><g><g><path clip-rule="evenodd" d="m432.23 193.045c42.824-43.43 24.374-86.86 24.374-86.86-12.051 1.16-34.823-2.694-76.959 26.632" fill="#ffdede" fill-rule="evenodd"/></g></g></g><g><g><g><g><path clip-rule="evenodd" d="m59.124 228.235c-10.314-5.931-19.701-13.45-27.237-22.97-41.32-52.202-11.298-144.798-11.298-144.798s97.016-7.96 138.337 44.242" fill="#e7e9ef" fill-rule="evenodd"/></g></g></g><g><g><g><path clip-rule="evenodd" d="m79.879 193.045c-42.824-43.43-24.374-86.86-24.374-86.86 12.051 1.16 34.823-2.694 76.959 26.632" fill="#ffdede" fill-rule="evenodd"/></g></g></g></g><g><g><g><g><path clip-rule="evenodd" d="m465.425 304.184c0 21.53-4.45 40.47-12.44 56.97-30.75 63.56-113.91 90.96-196.93 90.96s-166.18-27.4-196.93-90.96c-7.99-16.5-12.44-35.44-12.44-56.97 0-104.46 104.79-219.4 209.37-219.4s209.37 114.94 209.37 219.4z" fill="#b6bccf" fill-rule="evenodd"/></g></g></g><g><g><g><path clip-rule="evenodd" d="m452.984 361.154c-30.75 63.56-113.91 90.96-196.93 90.96s-166.18-27.4-196.93-90.96c3.77-39.47 14.94-77.95 32.62-110.84 35.41-65.86 130.36-74.62 164.31-8 33.95-66.62 128.9-57.86 164.31 8 17.68 32.89 28.85 71.37 32.62 110.84z" fill="#f5eeec" fill-rule="evenodd"/></g></g><g><g><g><g><path clip-rule="evenodd" d="m256.055 340.173c-13.224 0-23.944-10.72-23.944-23.944v-10.789h47.889v10.789c-.001 13.223-10.721 23.944-23.945 23.944z" fill="#ffbdbc" fill-rule="evenodd"/></g></g></g></g></g></g></g><g><g><path d="m501.033 57.383c-1.244-3.838-4.674-6.553-8.695-6.882-4.18-.343-102.858-7.757-146.995 48.001-.009.011-.017.022-.025.033-13.428-7.6-27.102-13.407-40.645-17.147-5.324-1.47-10.831 1.653-12.302 6.977-1.47 5.323 1.654 10.831 6.977 12.301 80.229 22.155 156.081 121.062 156.081 203.52 0 3.265-.111 6.485-.333 9.66-5.973-24.32-14.713-47.412-25.924-68.267-9.954-18.514-24.774-33.819-42.858-44.262-17.221-9.945-36.588-15.11-55.912-14.874-17.047.188-33.473 4.635-47.501 12.861-10.53 6.175-19.517 14.239-26.848 24.074-7.331-9.835-16.317-17.899-26.848-24.074-14.029-8.226-30.455-12.673-47.502-12.861-19.334-.206-38.692 4.93-55.912 14.875-18.083 10.442-32.902 25.748-42.857 44.262-11.211 20.855-19.951 43.947-25.924 68.267-.221-3.174-.333-6.395-.333-9.66 0-82.557 75.941-181.489 156.263-203.571 5.326-1.464 8.456-6.968 6.992-12.293-1.465-5.326-6.974-8.458-12.293-6.991-13.611 3.742-27.354 9.57-40.847 17.207-.009-.012-.018-.024-.028-.036-44.134-55.759-142.813-48.346-146.993-48.003-4.022.33-7.451 3.044-8.695 6.882-1.293 3.989-31.165 98.331 12.971 154.089 7.077 8.94 16.022 16.786 26.628 23.363-9.121 23.564-13.996 47.224-13.996 69.351 0 22.27 4.521 42.904 13.435 61.329.072.149.147.295.226.438 15.445 31.607 44.395 57.094 83.757 73.727 34.73 14.676 76.902 22.434 121.958 22.434s87.228-7.757 121.958-22.434c39.364-16.634 68.315-42.124 83.76-73.733.077-.142.152-.287.223-.434 8.914-18.425 13.434-39.058 13.434-61.327 0-22.123-4.876-45.784-13.998-69.35 10.607-6.577 19.553-14.424 26.631-23.365 44.135-55.757 14.263-150.099 12.97-154.087zm-106.911 77.851c26.928-16.817 44.12-18.274 55.137-18.688 2.441 11.382 4.05 36.104-17.769 62.437-2.867-4.123-5.862-8.198-8.979-12.214-8.839-11.387-18.372-21.949-28.389-31.535zm-304.461 31.451c-3.141 4.043-6.156 8.145-9.043 12.296-21.837-26.355-20.207-51.092-17.773-62.435 11.017.414 28.211 1.869 55.143 18.689-9.995 9.561-19.506 20.095-28.327 31.45zm-49.933 32.374c-31.455-39.739-17.077-107.651-11.487-128.937 21.681-.572 89.367.917 121.487 39.13-5.477 3.784-10.884 7.858-16.192 12.204-35.871-23.771-58.29-24.514-71.909-24.966-2.022-.067-3.77-.125-5.164-.259-4.355-.413-8.456 2.029-10.162 6.044-.839 1.974-19.557 47.767 23.063 94.222-3.855 6.521-7.396 13.121-10.608 19.764-7.553-5.001-13.936-10.77-19.028-17.202zm216.327 243.055c-90.4 0-159.893-30.913-186.691-82.841 3.938-37.567 14.698-73.547 31.188-104.224 16.071-29.893 47.863-48.959 80.933-48.608 28.802.317 52.733 15.047 65.66 40.414 1.708 3.35 5.15 5.46 8.91 5.46s7.202-2.109 8.91-5.46c12.927-25.366 36.858-40.096 65.659-40.414 33.095-.372 64.86 18.716 80.934 48.608 16.49 30.677 27.25 66.657 31.189 104.224-26.8 51.928-96.292 82.841-186.692 82.841zm216.326-243.055c-5.092 6.433-11.477 12.202-19.03 17.204-3.212-6.642-6.752-13.242-10.607-19.763 42.623-46.456 23.904-92.25 23.065-94.224-1.706-4.015-5.816-6.459-10.162-6.044-1.395.134-3.142.192-5.164.259-13.618.452-36.037 1.195-71.907 24.965-5.308-4.346-10.715-8.421-16.192-12.206 32.055-38.12 99.811-39.665 121.497-39.119 5.612 21.278 20.028 89.096-11.5 128.928z"/><path d="m297.459 349.412c-5.522 0-10 4.477-10 10 0 5.904-4.801 10.707-10.702 10.707s-10.702-4.803-10.702-10.707v-10.743c13.852-4.279 23.944-17.203 23.944-32.441v-10.79c0-5.523-4.478-10-10-10h-47.889c-5.523 0-10 4.477-10 10v10.79c0 15.238 10.093 28.162 23.944 32.441v10.743c0 5.904-4.801 10.707-10.702 10.707s-10.702-4.803-10.702-10.707c0-5.523-4.477-10-10-10-5.522 0-10 4.477-10 10 0 16.932 13.773 30.707 30.702 30.707 7.969 0 15.239-3.053 20.702-8.05 5.463 4.997 12.733 8.05 20.702 8.05 16.93 0 30.702-13.775 30.702-30.707.001-5.523-4.477-10-9.999-10zm-55.349-33.973h27.889v.79c0 7.689-6.256 13.944-13.944 13.944s-13.944-6.255-13.944-13.944v-.79z"/></g><g><g><g><g><path d="m256.055 94.785c-4.23 0-8.082-2.773-9.454-6.763-1.384-4.025-.004-8.576 3.367-11.171 3.224-2.482 7.736-2.713 11.224-.639 3.603 2.142 5.51 6.501 4.649 10.602-.961 4.577-5.099 7.971-9.786 7.971z"/></g></g></g></g><g><g><g><g><g><path d="m324.959 273.645c11.664-11.664 30.643-11.662 42.309.003 3.905 3.905 3.905 10.237 0 14.142s-10.237 3.905-14.142 0c-3.867-3.867-10.159-3.869-14.024-.003-3.905 3.905-10.237 3.905-14.142 0-3.907-3.905-3.907-10.236-.001-14.142z"/></g></g></g></g><g><g><g><g><path d="m187.373 273.645c3.905 3.905 3.905 10.237 0 14.142s-10.237 3.905-14.142 0c-3.866-3.866-10.157-3.864-14.024.003-3.905 3.905-10.237 3.905-14.142 0s-3.905-10.237 0-14.142c11.665-11.665 30.644-11.666 42.308-.003z"/></g></g></g></g></g></g></g></svg>