<svg id="Capa_1" enable-background="new 0 0 512.001 512.001" height="512" viewBox="0 0 512.001 512.001" width="512" xmlns="http://www.w3.org/2000/svg"><g><g><g><g><g><g><path clip-rule="evenodd" d="m397.303 286.599c9.663-18.018 18.228-38.301 24.371-60.74 28.577-104.38-6.088-215.859-6.088-215.859s-80.996 57.754-109.573 162.133c-3.057 11.167-5.391 22.416-7.12 33.601" fill="#ffdede" fill-rule="evenodd"/></g></g></g></g><g><g><g><path clip-rule="evenodd" d="m213.285 205.734c-1.729-11.185-4.063-22.434-7.12-33.601-28.577-104.379-109.574-162.132-109.574-162.132s-34.665 111.479-6.088 215.859c6.143 22.438 14.709 42.721 24.371 60.74" fill="#ffdede" fill-rule="evenodd"/></g></g></g><g><g><g><path clip-rule="evenodd" d="m170.613 225.916c-1.508-13.95-4.006-28.063-7.805-41.94-8.508-31.076-22.708-57.48-37.457-78.59-2.506 32.823-1.637 71.569 8.51 108.631 3.145 11.487 7.068 22.335 11.509 32.514" fill="#ffbdbc" fill-rule="evenodd"/></g></g></g><g><g><g><path clip-rule="evenodd" d="m366.806 246.529c4.443-10.18 8.367-21.027 11.511-32.512 10.145-37.057 11.015-75.806 8.512-108.62-14.75 21.113-28.956 47.519-37.46 78.579-3.799 13.877-6.298 27.99-7.805 41.94" fill="#ffbdbc" fill-rule="evenodd"/></g></g></g><g><g><g><path clip-rule="evenodd" d="m419.95 373.991c0 90.394-73.363 128.009-163.861 128.009s-163.861-37.615-163.861-128.009c0-90.393 73.363-172.539 163.861-172.539s163.861 82.146 163.861 172.539z" fill="#f5eeec" fill-rule="evenodd"/></g></g><g><g><g><path clip-rule="evenodd" d="m256.089 404.172c-12.1 0-21.91-9.809-21.91-21.909v-12.619h43.819v12.619c0 12.1-9.809 21.909-21.909 21.909z" fill="#ffbdbc" fill-rule="evenodd"/></g></g></g></g></g><g><path d="m378.669 58.941c12.093-14.006 23.315-24.588 31.221-31.461 4.516 18.7 11.55 53.716 12.861 94.666.176 5.52 4.798 9.854 10.315 9.675 5.52-.176 9.852-4.794 9.675-10.314-2.041-63.767-16.97-112.435-17.605-114.476-.952-3.063-3.316-5.483-6.356-6.507s-6.386-.528-8.999 1.334c-.866.618-21.499 15.453-45.822 43.517-22.414 25.861-52.334 68.387-67.592 124.118-2.267 8.28-4.222 16.892-5.836 25.702-11.245-2.475-22.769-3.743-34.443-3.743s-23.198 1.268-34.443 3.742c-1.614-8.81-3.569-17.422-5.836-25.702-15.258-55.731-45.178-98.256-67.592-124.118-24.322-28.064-44.955-42.899-45.822-43.517-2.612-1.862-5.958-2.36-8.998-1.334-3.04 1.024-5.404 3.444-6.356 6.507-.365 1.173-8.99 29.195-14.135 70.521-4.759 38.229-7.244 95.45 7.951 150.948 5.513 20.136 13.321 39.992 23.229 59.082-14.146 26.735-21.859 56.605-21.859 86.408 0 45.538 18.074 82.228 52.27 106.102 29.898 20.874 71.944 31.908 121.592 31.908s91.693-11.034 121.592-31.908c34.195-23.874 52.269-60.564 52.269-106.102 0-29.803-7.713-59.673-21.859-86.408 9.908-19.091 17.716-38.946 23.229-59.082 1.307-4.773 2.521-9.699 3.609-14.641 1.188-5.394-2.222-10.729-7.616-11.916-5.396-1.188-10.729 2.223-11.916 7.616-1.016 4.613-2.148 9.209-3.367 13.659-4.094 14.952-9.551 29.751-16.28 44.167-4.999-7.145-10.501-13.963-16.476-20.378-.414-.445-.83-.886-1.247-1.326 3.935-9.55 7.271-19.291 9.936-29.025 9.021-32.952 11.995-70.641 8.838-112.022-.322-4.214-3.258-7.771-7.335-8.885-4.073-1.116-8.413.454-10.835 3.919-18.056 25.846-31.146 53.322-38.907 81.666-2.604 9.512-4.719 19.524-6.32 29.897-7.618-4.129-15.485-7.637-23.549-10.5 1.576-8.921 3.52-17.626 5.802-25.958 14.2-51.862 42.104-91.616 63.012-115.831zm-278.521 164.278c-21.531-78.644-5.788-162.661 2.151-195.714 22.8 19.872 73.284 70.793 94.221 147.268 2.281 8.332 4.226 17.037 5.801 25.958-8.063 2.863-15.931 6.371-23.549 10.5-1.601-10.371-3.715-20.383-6.32-29.896-7.766-28.364-20.855-55.844-38.905-81.677-2.421-3.464-6.757-5.031-10.834-3.918-4.077 1.114-7.013 4.671-7.334 8.885-3.159 41.385-.187 79.078 8.836 112.033 2.665 9.735 6 19.477 9.934 29.027-.417.439-.832.88-1.246 1.324-5.975 6.415-11.477 13.233-16.476 20.378-6.728-14.417-12.185-29.216-16.279-44.168zm49.691 7.716c-2.425-6.48-4.544-13.023-6.334-19.559-5.995-21.898-9.117-46.167-9.337-72.449 8.189 15.496 14.547 31.448 18.994 47.689 3.115 11.376 5.477 23.561 7.036 36.275-3.526 2.538-6.981 5.219-10.359 8.044zm260.111 143.056c0 106.51-107.6 118.009-153.861 118.009-46.262 0-153.861-11.499-153.861-118.009 0-86.586 71.898-162.539 153.861-162.539s153.861 75.953 153.861 162.539zm-50.935-187.374c4.444-16.23 10.803-32.18 18.995-47.678-.221 26.279-3.343 50.542-9.337 72.438-1.789 6.536-3.909 13.079-6.335 19.558-3.377-2.825-6.832-5.506-10.358-8.042 1.558-12.717 3.92-24.902 7.035-36.276z"/><path d="m293.975 411.776c-5.523 0-10 4.477-10 10 0 4.934-4.012 8.947-8.943 8.947s-8.943-4.014-8.943-8.947v-9.21c12.712-4.205 21.909-16.201 21.909-30.304v-12.619c0-5.523-4.477-10-10-10h-43.819c-5.523 0-10 4.477-10 10v12.619c0 14.104 9.198 26.099 21.91 30.305v9.21c0 4.934-4.012 8.947-8.943 8.947s-8.943-4.014-8.943-8.947c0-5.523-4.477-10-10-10s-10 4.477-10 10c0 15.961 12.984 28.947 28.943 28.947 7.237 0 13.863-2.671 18.943-7.078 5.08 4.408 11.706 7.078 18.943 7.078 15.959 0 28.943-12.986 28.943-28.947 0-5.524-4.478-10.001-10-10.001zm-49.796-32.133h23.819v2.619c0 6.567-5.342 11.91-11.909 11.91s-11.91-5.343-11.91-11.91z"/><g><g><g><g><g><path d="m304.882 343.571c11.664-11.664 30.643-11.662 42.309.003 3.905 3.905 3.905 10.237 0 14.142s-10.237 3.905-14.142 0c-3.867-3.867-10.159-3.869-14.024-.003-3.905 3.905-10.237 3.905-14.142 0-3.907-3.905-3.907-10.237-.001-14.142z"/></g></g></g></g><g><g><g><g><path d="m207.296 343.571c3.905 3.905 3.905 10.237 0 14.142s-10.237 3.905-14.142 0c-3.866-3.866-10.157-3.864-14.024.003-3.905 3.905-10.237 3.905-14.142 0s-3.905-10.237 0-14.142c11.665-11.665 30.644-11.667 42.308-.003z"/></g></g></g></g></g><g><g><g><g><path d="m431.837 176.771c-4.23 0-8.081-2.772-9.453-6.763-1.378-4.007-.014-8.596 3.367-11.168 3.24-2.465 7.726-2.716 11.225-.637 3.602 2.14 5.509 6.498 4.648 10.598-.961 4.576-5.099 7.97-9.787 7.97z"/></g></g></g></g></g></g></svg>