<svg id="Capa_1" enable-background="new 0 0 511.975 511.975" height="512" viewBox="0 0 511.975 511.975" width="512" xmlns="http://www.w3.org/2000/svg"><g><g><g><g><g><path clip-rule="evenodd" d="m480.595 226.47c0 125.093-100.56 275.505-224.607 275.505s-224.608-150.412-224.608-275.505 100.56-216.495 224.607-216.495 224.608 91.402 224.608 216.495z" fill="#ffbe90" fill-rule="evenodd"/></g></g></g><g><g><g><g><path clip-rule="evenodd" d="m414.648 170.175c-.785-20.799-17.956-37.619-38.766-38.002-15.121-.278-28.349 7.934-35.236 20.188-16.159-4.792-33.329-4.508-48.55 1.302-23.273 8.884-48.942 8.884-72.215 0-15.221-5.81-32.392-6.095-48.55-1.302-6.887-12.253-20.114-20.465-35.235-20.188-20.811.382-37.982 17.201-38.768 38.001-.556 14.703 6.921 27.703 18.391 34.964-27.033 68.245 14.529 160.341 87.092 174.13 17.204 3.269 35.195 4.838 53.178 4.838s35.974-1.568 53.177-4.838c72.563-13.789 114.125-105.885 87.092-174.13 11.468-7.261 18.945-20.261 18.39-34.963z" fill="#f5eeec" fill-rule="evenodd"/></g></g></g><g><g><g><path clip-rule="evenodd" d="m255.987 284.838c-12.1 0-21.91-9.809-21.91-21.909v-12.619h43.819v12.619c.001 12.1-9.808 21.909-21.909 21.909z" fill="#ffbdbc" fill-rule="evenodd"/></g></g></g></g></g><g><path d="m295.227 294.911c-5.522 0-10 4.478-10 10 0 5.308-4.315 9.625-9.619 9.625-5.305 0-9.62-4.317-9.62-9.625v-11.678c12.712-4.205 21.909-16.201 21.909-30.305v-12.619c0-5.523-4.478-10-10-10h-43.818c-5.522 0-10 4.477-10 10v12.619c0 14.104 9.197 26.1 21.909 30.305v11.678c0 5.308-4.315 9.625-9.62 9.625-5.304 0-9.619-4.317-9.619-9.625 0-5.522-4.478-10-10-10s-10 4.478-10 10c0 16.335 13.287 29.625 29.619 29.625 7.518 0 14.391-2.816 19.62-7.449 5.229 4.633 12.102 7.449 19.62 7.449 16.332 0 29.619-13.29 29.619-29.625 0-5.522-4.478-10-10-10zm-51.149-34.602h23.818v2.619c0 6.567-5.343 11.91-11.909 11.91s-11.909-5.343-11.909-11.91z"/><g><g><g><path d="m255.987 394.105c-19.018 0-37.537-1.686-55.044-5.013-34.495-6.555-65.228-30.219-84.319-64.924-20.074-36.492-24.679-79.1-12.794-115.53-10.869-9.751-17.057-24.007-16.496-38.843.99-26.222 22.328-47.14 48.577-47.621 15.641-.312 30.263 6.762 39.772 18.778 16.271-3.416 32.985-2.274 47.763 3.367 20.984 8.011 44.098 8.011 65.082 0 14.778-5.641 31.492-6.785 47.764-3.367 9.51-12.017 24.125-19.063 39.773-18.778 26.25.482 47.586 21.401 48.575 47.624.561 14.835-5.627 29.09-16.496 38.841 11.885 36.43 7.28 79.037-12.794 115.529-19.092 34.705-49.824 58.369-84.318 64.924-17.507 3.326-36.027 5.013-55.045 5.013zm-119.162-251.94c-.182 0-.364.002-.547.005-15.388.282-28.378 13.014-28.958 28.38-.403 10.663 4.736 20.434 13.747 26.139 4.06 2.57 5.717 7.665 3.947 12.132-12.657 31.953-9.157 72.458 9.133 105.708 16.207 29.462 41.914 49.478 70.529 54.915 16.279 3.093 33.543 4.661 51.31 4.661s35.031-1.568 51.312-4.661c28.614-5.438 54.321-25.453 70.528-54.915 18.29-33.25 21.79-73.755 9.133-105.708-1.77-4.467-.112-9.562 3.948-12.132 9.011-5.704 14.149-15.475 13.746-26.136 0-.001 0-.001 0-.001-.579-15.366-13.569-28.099-28.956-28.382-.183-.003-.366-.005-.548-.005-10.69 0-20.533 5.746-25.787 15.095-2.287 4.069-7.086 6.018-11.561 4.688-14.288-4.238-29.255-3.861-42.141 1.058-25.585 9.767-53.765 9.765-79.348 0-12.885-4.92-27.852-5.295-42.141-1.058-4.477 1.327-9.274-.618-11.561-4.688-5.251-9.348-15.095-15.095-25.785-15.095z"/></g></g></g><g><g><g><path d="m255.987 511.975c-31.573 0-62.714-9.041-92.557-26.872-27.298-16.31-52.267-39.156-74.213-67.902-42.477-55.639-67.837-126.941-67.837-190.731 0-55.34 18.611-106.054 53.822-146.658 33.733-38.902 81.311-65.732 133.966-75.549 5.426-1.011 10.651 2.568 11.664 7.998 1.012 5.43-2.569 10.651-7.998 11.664-100.95 18.819-171.454 102.108-171.454 202.545 0 59.557 23.826 126.32 63.734 178.594 42.788 56.046 96.369 86.911 150.873 86.911s108.085-30.865 150.873-86.911c39.908-52.274 63.734-119.037 63.734-178.594 0-100.157-67.295-181.239-167.456-201.763-1.247-.256-2.499-.501-3.756-.737l-.45-.084c-5.43-1.006-9.018-6.224-8.012-11.654s6.222-9.017 11.654-8.012l.475.089c1.389.261 2.748.527 4.103.805 51.617 10.577 98.136 37.67 130.985 76.288 34.317 40.344 52.456 90.507 52.456 145.068 0 63.79-25.36 135.092-67.838 190.73-21.946 28.746-46.915 51.592-74.213 67.902-29.841 17.832-60.981 26.873-92.555 26.873z"/></g></g></g><g><g><g><g><path d="m255.987 19.988c-4.191 0-8.031-2.712-9.429-6.664-1.414-3.996-.088-8.562 3.233-11.189 3.288-2.601 7.998-2.851 11.541-.608 3.454 2.186 5.25 6.365 4.472 10.377-.9 4.639-5.094 8.084-9.817 8.084z"/></g></g></g></g><g><g><g><g><g><path d="m304.892 233.545c11.664-11.664 30.643-11.662 42.309.003 3.905 3.905 3.905 10.237 0 14.142s-10.237 3.905-14.142 0c-3.867-3.867-10.159-3.869-14.024-.003-3.905 3.905-10.237 3.905-14.142 0-3.907-3.905-3.907-10.236-.001-14.142z"/></g></g></g></g><g><g><g><g><path d="m207.306 233.545c3.905 3.905 3.905 10.237 0 14.142s-10.237 3.905-14.142 0c-3.866-3.866-10.157-3.864-14.024.003-3.905 3.905-10.237 3.905-14.142 0s-3.905-10.237 0-14.142c11.665-11.665 30.644-11.666 42.308-.003z"/></g></g></g></g></g></g></g></svg>