<svg id="Capa_1" enable-background="new 0 0 512.005 512.005" height="512" viewBox="0 0 512.005 512.005" width="512" xmlns="http://www.w3.org/2000/svg"><g><g><g><g><g><g><path clip-rule="evenodd" d="m181.932 126.274c-1.767-4.489-3.899-8.856-6.443-13.054-34.509-56.935-131.762-61.1-131.762-61.1s-41.302 88.145-6.794 145.08c10.121 16.698 25.638 28.856 42.516 37.702" fill="#e5ae8c" fill-rule="evenodd"/></g></g></g><g><g><g><path clip-rule="evenodd" d="m143.329 149.745c-1.195-4.969-2.973-9.601-5.468-13.718-7.954-13.124-26.304-24.464-51.669-31.933-4.473-1.317-8.85-2.423-13.003-3.35-6.261 23.53-10.361 54.292 1.372 73.65 4.885 8.059 13.691 15.446 25.634 21.677" fill="#ffdede" fill-rule="evenodd"/></g></g></g><g><g><g><path clip-rule="evenodd" d="m432.556 234.902c16.878-8.846 32.395-21.005 42.516-37.702 34.509-56.935-6.794-145.08-6.794-145.08s-97.253 4.165-131.762 61.1c-2.544 4.198-4.676 8.565-6.443 13.054" fill="#e5ae8c" fill-rule="evenodd"/></g></g></g><g><g><g><path clip-rule="evenodd" d="m411.81 196.07c11.943-6.231 20.749-13.618 25.634-21.677 7.955-13.124 9.519-34.638 4.404-60.581-.901-4.572-1.944-8.958-3.042-13.067-4.151.927-8.523 2.032-12.993 3.348-25.365 7.469-43.715 18.81-51.669 31.933-2.359 3.892-4.156 8.521-5.383 13.785" fill="#ffdede" fill-rule="evenodd"/></g></g></g><g><g><g><g><path clip-rule="evenodd" d="m445.365 311.954c0 104.462-84.781 147.932-189.363 147.932s-189.362-43.471-189.362-147.932 84.781-199.391 189.363-199.391 189.362 94.929 189.362 199.391z" fill="#ffd4b5" fill-rule="evenodd"/></g></g></g></g></g><g><g><g><path clip-rule="evenodd" d="m249.828 353.118-23.304-25.204c-4.979-5.385-1.16-14.118 6.174-14.118h46.609c7.334 0 11.154 8.733 6.174 14.118l-23.304 25.204c-3.329 3.601-9.02 3.601-12.349 0z" fill="#ffbdbc" fill-rule="evenodd"/></g></g></g></g><g><path d="m215.831 314.829c-2.976 6.806-1.692 14.421 3.351 19.874l23.304 25.204h.001c1.051 1.136 2.234 2.126 3.516 2.953v11.933c0 6.34-5.156 11.498-11.493 11.498s-11.493-5.158-11.493-11.498c0-5.523-4.477-10-10-10s-10 4.477-10 10c0 17.368 14.127 31.498 31.493 31.498 8.301 0 15.861-3.229 21.493-8.496 5.632 5.267 13.193 8.496 21.493 8.496 17.365 0 31.493-14.13 31.493-31.498 0-5.523-4.477-10-10-10s-10 4.477-10 10c0 6.34-5.156 11.498-11.493 11.498s-11.493-5.158-11.493-11.498v-11.933c1.282-.828 2.466-1.817 3.517-2.954l23.304-25.204c5.043-5.454 6.327-13.069 3.351-19.874-2.931-6.702-9.552-11.033-16.867-11.033h-46.608c-7.317.001-13.938 4.332-16.869 11.034zm59.838 8.967-19.442 21.027c-.075-.002-.15-.003-.225-.003s-.15.001-.225.003l-19.442-21.027z"/><path d="m504.556 407.198-68.15-17.998c1.037-1.811 2.031-3.65 2.984-5.514 10.046-19.673 15.398-42.379 15.93-67.545l47.221-17.718c5.171-1.94 7.789-7.705 5.85-12.876-1.94-5.171-7.706-7.789-12.876-5.85l-40.863 15.333c-1.548-18.425-5.599-36.715-11.957-54.292 18.037-10.394 31.788-23.276 40.928-38.354 36.86-60.814-4.511-150.71-6.29-154.507-1.711-3.653-5.447-5.919-9.483-5.748-4.189.179-103.025 5.093-139.885 65.907-1.478 2.438-2.858 4.976-4.13 7.591-6.299-2.506-12.712-4.666-19.213-6.461-5.325-1.472-10.831 1.654-12.301 6.978-1.47 5.323 1.654 10.831 6.978 12.301 75.85 20.946 131.692 93.169 135.822 173.914l-82.953 31.125c-5.171 1.94-7.79 7.705-5.85 12.876 1.506 4.014 5.316 6.49 9.364 6.49 1.167 0 2.354-.206 3.512-.64l75.779-28.434c-1.657 24.416-8.467 44.163-18.654 60.119l-61.059-16.125c-5.34-1.409-10.812 1.775-12.222 7.115s1.775 10.811 7.115 12.222l52.683 13.913c-40.935 42.696-110.296 48.865-146.834 48.865s-105.898-6.17-146.834-48.865l52.683-13.913c5.34-1.41 8.525-6.882 7.115-12.222s-6.879-8.527-12.222-7.115l-61.059 16.125c-10.187-15.957-16.996-35.703-18.654-60.119l75.779 28.434c1.157.434 2.344.64 3.512.64 4.048 0 7.858-2.477 9.364-6.49 1.94-5.171-.679-10.936-5.85-12.876l-82.952-31.125c4.131-80.836 60.05-153.083 136.005-173.964 5.325-1.464 8.456-6.968 6.991-12.293-1.464-5.325-6.967-8.459-12.293-6.991-6.572 1.807-13.053 3.985-19.418 6.518-1.272-2.616-2.652-5.153-4.13-7.591-36.858-60.816-135.694-65.73-139.884-65.909-4.024-.181-7.771 2.094-9.483 5.748-1.779 3.797-43.151 93.692-6.291 154.507 9.14 15.078 22.891 27.96 40.928 38.354-6.358 17.577-10.409 35.866-11.957 54.292l-40.862-15.333c-5.17-1.94-10.935.679-12.876 5.85-1.94 5.171.679 10.936 5.85 12.876l47.221 17.718c.532 25.166 5.884 47.871 15.93 67.545.952 1.865 1.947 3.703 2.984 5.514l-68.15 17.998c-5.34 1.41-8.525 6.882-7.115 12.222 1.184 4.484 5.233 7.449 9.662 7.449.845 0 1.704-.108 2.56-.334l75.05-19.82c8.084 9.958 17.701 18.848 28.772 26.578 34.289 23.939 82.57 36.593 139.625 36.593s105.335-12.654 139.624-36.593c11.071-7.73 20.688-16.62 28.772-26.578l75.051 19.82c.856.226 1.714.334 2.56.334 4.429 0 8.478-2.965 9.662-7.449 1.409-5.341-1.776-10.812-7.116-12.222zm-159.488-288.795c26.266-43.335 94.912-53.554 116.821-55.743 8.198 20.439 30.898 86.021 4.631 129.356-7 11.548-17.599 21.639-31.567 30.07-3.406-7.241-7.219-14.316-11.423-21.179 10.138-6.277 17.678-13.431 22.465-21.33 9.384-15.482 11.343-38.892 5.664-67.696-.88-4.468-1.954-9.083-3.192-13.717-1.385-5.18-6.607-8.348-11.84-7.178-4.663 1.041-9.252 2.224-13.639 3.515-28.165 8.294-48.012 20.86-57.396 36.343-1.064 1.755-2.035 3.627-2.912 5.606-6.668-4.588-13.572-8.754-20.667-12.469.948-1.922 1.969-3.786 3.055-5.578zm34.209 30.751c.907-3.027 2.053-5.69 3.418-7.945 6.562-10.827 23.307-20.858 45.941-27.523.927-.273 1.865-.54 2.811-.802.206.961.402 1.916.589 2.863 4.564 23.15 3.418 42.636-3.145 53.463-3.198 5.276-8.882 10.443-16.595 15.121-9.772-13.083-20.883-24.881-33.019-35.177zm-279.568 35.177c-7.713-4.678-13.398-9.845-16.595-15.121-7.087-11.692-7.948-31.479-2.572-56.33.952.263 1.895.532 2.826.807 22.635 6.665 39.38 16.697 45.942 27.523 1.396 2.303 2.56 4.949 3.478 7.894-12.16 10.307-23.29 22.122-33.079 35.227zm-54.224 7.686c-26.27-43.342-3.559-108.94 4.635-129.365 21.9 2.162 90.486 12.308 116.817 55.751 1.086 1.792 2.107 3.656 3.056 5.578-7.089 3.711-13.986 7.873-20.649 12.456-.883-1.96-1.86-3.828-2.931-5.594-9.384-15.482-29.231-28.049-57.396-36.343-4.384-1.291-8.977-2.475-13.648-3.518-5.236-1.169-10.463 2.003-11.842 7.188-6.521 24.508-11.384 58.525 2.484 81.405 4.788 7.899 12.327 15.053 22.466 21.331-4.205 6.863-8.018 13.938-11.424 21.179-13.97-8.43-24.569-18.52-31.568-30.068z"/><g><g><g><g><path d="m256.002 122.563c-4.249 0-8.085-2.788-9.462-6.79-1.373-3.989.024-8.582 3.376-11.141 3.235-2.47 7.73-2.712 11.224-.637 3.557 2.112 5.468 6.384 4.681 10.444-.899 4.644-5.074 8.124-9.819 8.124z"/></g></g></g></g><g><g><g><g><g><path d="m314.906 273.573c11.664-11.664 30.643-11.662 42.309.003 3.905 3.905 3.905 10.237 0 14.142s-10.237 3.905-14.142 0c-3.867-3.867-10.159-3.869-14.024-.003-3.905 3.905-10.237 3.905-14.142 0-3.906-3.905-3.906-10.236-.001-14.142z"/></g></g></g></g><g><g><g><g><path d="m197.321 273.573c3.905 3.905 3.905 10.237 0 14.142s-10.237 3.905-14.142 0c-3.866-3.866-10.157-3.864-14.024.003-3.905 3.905-10.237 3.905-14.142 0s-3.905-10.237 0-14.142c11.665-11.665 30.644-11.666 42.308-.003z"/></g></g></g></g></g></g></g></svg>