<svg id="Capa_1" enable-background="new 0 0 512.001 512.001" height="512" viewBox="0 0 512.001 512.001" width="512" xmlns="http://www.w3.org/2000/svg"><g><g><g><g><path clip-rule="evenodd" d="m178.626 112.156c-.483-10.254-.447-17.473-4.491-27.202-23.462-56.44-108.007-74.953-108.007-74.953s-46.505 72.992-23.043 129.431c10.917 26.261 33.057 41.309 55.752 53.103" fill="#e5ae8c" fill-rule="evenodd"/></g><g><g><path clip-rule="evenodd" d="m413.163 192.535c22.696-11.794 44.835-26.842 55.752-53.103 23.462-56.439-23.043-129.431-23.043-129.431s-84.544 18.513-108.007 74.952c-4.044 9.729-4.008 16.948-4.491 27.202" fill="#e5ae8c" fill-rule="evenodd"/></g></g><g><g><g><path clip-rule="evenodd" d="m385.763 154.593c-5.961-17.679-9.326-37.379-3.574-51.215 4.901-11.789 18.679-23.702 38.83-33.587 5.961 17.68 9.326 37.379 3.574 51.215-4.902 11.79-18.679 23.703-38.83 33.587z" fill="#ffdede" fill-rule="evenodd"/></g></g></g><g><g><g><path clip-rule="evenodd" d="m126.235 154.594c-16.737-8.243-33.076-19.752-38.827-33.588-5.752-13.837-2.388-33.536 3.575-51.217 16.739 8.244 33.077 19.752 38.829 33.589 4.901 11.79 3.629 29.96-3.577 51.216z" fill="#ffdede" fill-rule="evenodd"/></g></g></g></g><g><g><g><g><g><g><path clip-rule="evenodd" d="m445.363 314.045c0 104.462-84.781 187.956-189.363 187.956s-189.362-83.494-189.362-187.956 84.78-219.403 189.363-219.403 189.362 114.942 189.362 219.403z" fill="#ffd4b5" fill-rule="evenodd"/></g></g></g><g><g><g><g><path d="m282.652 377.307c-13.762 0-25.087-10.433-26.502-23.823h-.299c-1.415 13.39-12.74 23.823-26.503 23.823-.261 0-.52-.004-.779-.012v45.805h54.862v-45.804c-.258.007-.518.011-.779.011z" fill="#f5eeec"/></g></g></g><g><g><g><g><path d="m256.15 353.484c-.098-.931-.149-1.877-.149-2.834 0 .957-.051 1.903-.149 2.834z" fill="none"/></g></g></g><g><g><g><path clip-rule="evenodd" d="m256.001 331.453c-12.943 0-23.435-10.492-23.435-23.435 0-7.455 6.043-13.498 13.498-13.498h19.875c7.455 0 13.498 6.043 13.498 13.498-.001 12.943-10.493 23.435-23.436 23.435z" fill="#ffbdbc" fill-rule="evenodd"/></g></g></g></g></g></g></g></g></g><g><g><path d="m454.306 4.627c-2.253-3.537-6.476-5.292-10.573-4.395-3.66.801-89.927 20.325-115.101 80.882-2.617 6.295-3.792 11.722-4.402 17.076-6.447-2.794-12.994-5.117-19.611-6.944-5.323-1.471-10.831 1.653-12.301 6.977s1.654 10.831 6.977 12.301c81.393 22.477 136.068 123.381 136.068 203.521 0 98.125-80.462 177.956-179.363 177.956s-179.362-79.831-179.362-177.956c0-80.222 54.749-181.165 136.251-203.571 5.325-1.464 8.456-6.968 6.991-12.293-1.464-5.325-6.967-8.457-12.293-6.991-6.687 1.838-13.303 4.182-19.816 7.006-.61-5.356-1.784-10.784-4.402-17.081-25.174-60.558-111.441-80.081-115.101-80.883-4.097-.898-8.319.857-10.573 4.395-2.013 3.16-49.018 78.086-23.843 138.643 11.222 26.996 32.534 42.803 53.294 54.339-19.551 36.903-30.508 78.251-30.508 116.436 0 53.139 20.75 102.95 58.427 140.257 37.577 37.208 87.629 57.699 140.936 57.699s103.359-20.491 140.935-57.699c37.677-37.307 58.427-87.118 58.427-140.257 0-38.181-10.957-79.534-30.504-116.438 20.759-11.536 42.069-27.343 53.291-54.337 25.173-60.557-21.831-135.483-23.844-138.643zm-334.184 135.266c-12.17-7.347-20.363-15.228-23.479-22.726-3.118-7.499-2.926-18.867.451-32.679 12.173 7.348 20.368 15.23 23.485 22.729 3.077 7.404 2.867 18.969-.457 32.676zm-67.803-4.3c-17.427-41.922 8.663-95.902 18.638-113.999 19.869 5.668 76.471 25.166 93.944 67.197 2.79 6.712 3.2 11.96 3.537 19.373-8.945 5.37-17.621 11.667-25.94 18.822.843-10.61-.301-19.869-3.452-27.446-7.442-17.904-27.842-30.939-43.645-38.722-2.586-1.273-5.595-1.369-8.256-.263-2.662 1.106-4.716 3.307-5.637 6.039-5.629 16.691-10.776 40.346-3.333 58.25 6.032 14.51 20.574 25.822 34.282 33.732-4.643 5.909-9.095 12.133-13.332 18.653-.66 1.016-1.313 2.038-1.96 3.063-17.774-9.858-35.865-23.094-44.846-44.699zm339.104-28.376c3.078-7.403 11.425-15.411 23.486-22.722 3.375 13.809 3.566 25.176.45 32.672-3.078 7.404-11.425 15.412-23.486 22.723-3.376-13.81-3.567-25.176-.45-32.673zm68.259 28.376c-8.981 21.604-27.068 34.839-44.84 44.697-.628-.996-1.262-1.988-1.903-2.976-4.25-6.548-8.717-12.797-13.377-18.729 17.45-10.035 29.212-21.583 34.265-33.74 7.442-17.902 2.296-41.557-3.332-58.249-.92-2.729-2.972-4.928-5.63-6.036-2.658-1.107-5.664-1.015-8.25.253-22.649 11.11-37.747 24.501-43.66 38.726-3.464 8.332-4.2 17.91-3.431 27.452-8.325-7.162-17.008-13.464-25.96-18.836.337-7.408.748-12.655 3.536-19.364 17.427-41.921 74.095-61.497 93.96-67.191 9.995 18.083 36.094 71.961 18.622 113.993z"/><path d="m246.001 339.925v10.724c0 9.185-7.47 16.658-16.652 16.658s-16.652-7.473-16.652-16.658c0-5.523-4.477-10-10-10s-10 4.477-10 10c0 16.462 10.907 30.425 25.873 35.04v38.411c0 5.523 4.477 10 10 10h54.862c5.523 0 10-4.477 10-10v-38.411c14.966-4.615 25.873-18.577 25.873-35.04 0-5.523-4.477-10-10-10s-10 4.477-10 10c0 9.185-7.47 16.658-16.652 16.658s-16.652-7.473-16.652-16.658v-10.724c13.567-4.261 23.435-16.954 23.435-31.908 0-12.957-10.541-23.498-23.498-23.498h-19.875c-12.957 0-23.498 10.541-23.498 23.498 0 14.955 9.869 27.647 23.436 31.908zm27.43 46.207v27.968h-34.862v-27.969c6.763-1.759 12.773-5.407 17.431-10.344 4.658 4.938 10.668 8.585 17.431 10.345zm-27.368-81.612h19.875c1.929 0 3.498 1.569 3.498 3.498 0 7.408-6.027 13.435-13.435 13.435s-13.436-6.027-13.436-13.435c0-1.929 1.569-3.498 3.498-3.498z"/></g><g><g><g><g><path d="m256.001 104.64c-4.116 0-7.892-2.625-9.347-6.468-1.489-3.931-.291-8.538 2.958-11.221 3.101-2.561 7.551-3.012 11.1-1.122 3.759 2.002 5.879 6.339 5.135 10.536-.837 4.723-5.043 8.275-9.846 8.275z"/></g></g></g></g><g><g><g><g><g><path d="m324.905 263.571c11.664-11.664 30.643-11.662 42.309.003 3.905 3.905 3.905 10.237 0 14.142s-10.237 3.905-14.142 0c-3.867-3.867-10.159-3.869-14.024-.003-3.905 3.905-10.237 3.905-14.142 0-3.907-3.905-3.907-10.236-.001-14.142z"/></g></g></g></g><g><g><g><g><path d="m187.319 263.571c3.905 3.905 3.905 10.237 0 14.142s-10.237 3.905-14.142 0c-3.866-3.866-10.157-3.864-14.024.003-3.905 3.905-10.237 3.905-14.142 0s-3.905-10.237 0-14.142c11.665-11.665 30.644-11.666 42.308-.003z"/></g></g></g></g></g></g></g></svg>