<svg id="Capa_1" enable-background="new 0 0 512 512" height="512" viewBox="0 0 512 512" width="512" xmlns="http://www.w3.org/2000/svg"><g><g><g><g><g><path clip-rule="evenodd" d="m346.571 125.188 13.096-44.279c5.736-19.396-7.952-39.566-28.154-40.476-.487-.022-.977-.033-1.47-.033-17.732 0-32.107 14.378-32.107 32.114v-20.588c.001-23.155-18.766-41.926-41.917-41.926-23.15 0-41.917 18.771-41.917 41.926v20.588c0-17.736-14.375-32.114-32.106-32.114-.492 0-.982.011-1.47.033-20.202.91-33.89 21.08-28.154 40.476l13.096 44.279" fill="#ffbdbc" fill-rule="evenodd"/></g></g><g><g><g><g><path clip-rule="evenodd" d="m438.693 293.132c0 1.511-.018 3.022-.056 4.533-.317 12.858-1.983 25.018-4.863 36.441-19.078 75.666-91.422 119.007-177.754 119.007-100.888 0-182.673-59.188-182.673-159.981s81.785-192.39 182.673-192.39c90.041 0 164.867 72.96 179.915 160.302 1.812 10.521 2.758 21.251 2.758 32.088z" fill="#f5eeec" fill-rule="evenodd"/></g></g></g></g><g><g><g><path clip-rule="evenodd" d="m205.237 451.207c0 28.052 22.736 50.793 50.782 50.793 28.046 0 50.782-22.741 50.782-50.793" fill="#ffbdbc" fill-rule="evenodd"/></g></g><g><g><g><g><path clip-rule="evenodd" d="m256.019 377.451-44.765-64.199 44.765-45.653 44.766 45.653z" fill="#ff9c9b" fill-rule="evenodd"/></g></g></g></g></g></g></g><g><path d="m256.019 110.742c79.071 0 149.873 60.278 168.347 143.319l.26 1.185c1.168 5.397 6.486 8.828 11.889 7.659 5.397-1.168 8.827-6.491 7.658-11.889l-.281-1.288c-9.612-43.202-33.266-83.031-66.603-112.149-6.243-5.453-12.763-10.463-19.512-15.013l11.481-38.819c3.677-12.432 1.463-25.628-6.074-36.205-7.34-10.302-18.72-16.533-31.229-17.097-.634-.028-1.271-.042-1.91-.042-8.921 0-17.202 2.789-24.019 7.54-6.123-21.862-26.223-37.943-50.007-37.943s-43.884 16.081-50.004 37.941c-7.306-5.092-16.333-7.921-25.939-7.497-12.5.563-23.88 6.795-31.22 17.097-7.537 10.577-9.75 23.773-6.073 36.205l11.455 38.731c-12.384 8.396-24.024 18.378-34.706 29.848-35.707 38.343-56.186 89.666-56.186 140.808 0 51.124 19.753 94.518 57.122 125.488 20.756 17.201 46.371 29.769 74.933 37.077 2.306 31.432 28.613 56.302 60.618 56.302 31.99 0 58.286-24.845 60.615-56.255 19.825-5.06 38.243-12.677 54.685-22.703 33.714-20.56 57.669-50.456 69.276-86.462.134-.415.266-.831.397-1.248 1.647-5.272-1.291-10.88-6.563-12.528-5.267-1.645-10.88 1.291-12.527 6.562l-.344 1.083c-20.414 63.325-83.845 102.664-165.539 102.664-85.948 0-172.673-46.376-172.673-149.982 0-97.16 80.689-182.389 172.673-182.389zm-94.057-32.669c-1.921-6.494-.761-13.393 3.182-18.927 3.747-5.259 9.518-8.438 15.823-8.723.341-.015.684-.023 1.029-.023 12.189 0 22.106 9.92 22.106 22.114 0 5.523 4.477 10 10 10s10-4.477 10-10v-20.588c0-17.604 14.318-31.926 31.917-31.926s31.918 14.322 31.918 31.926v20.588c0 5.523 4.478 10 10 10s10-4.477 10-10c0-12.193 9.917-22.114 22.106-22.114.345 0 .688.008 1.02.023 6.314.285 12.085 3.464 15.832 8.723 3.943 5.534 5.104 12.433 3.183 18.927l-10.019 33.877c-26.206-13.838-55-21.209-84.039-21.209-29.451 0-58.049 7.284-84.077 21.077zm133.879 381.957c-4.042 18.266-20.362 31.97-39.822 31.97-19.47 0-35.797-13.719-39.827-32 12.864 2.059 26.19 3.114 39.827 3.114 13.649-.001 26.969-1.041 39.822-3.084z"/><g><g><g><g><path d="m438.664 307.51c-4.178 0-8.006-2.71-9.415-6.636-1.392-3.877-.194-8.327 2.946-10.991 3.275-2.779 8.095-3.135 11.746-.869 3.491 2.168 5.334 6.417 4.523 10.446-.929 4.612-5.084 8.05-9.8 8.05z"/></g></g></g></g><g><g><g><path d="m256.019 387.451c-3.27 0-6.332-1.598-8.203-4.28l-44.765-64.199c-2.751-3.944-2.304-9.288 1.063-12.721l44.765-45.653c1.881-1.918 4.454-2.999 7.14-2.999s5.259 1.081 7.14 2.999l44.766 45.653c3.366 3.434 3.813 8.777 1.063 12.721l-44.766 64.199c-1.87 2.682-4.933 4.28-8.203 4.28zm-31.82-73.118 31.82 45.634 31.82-45.634-31.82-32.451z"/></g></g></g><g><g><g><g><g><path d="m304.908 243.57c11.664-11.664 30.643-11.662 42.309.003 3.905 3.905 3.905 10.237 0 14.142s-10.237 3.905-14.142 0c-3.867-3.867-10.159-3.869-14.024-.003-3.905 3.905-10.237 3.905-14.142 0-3.906-3.905-3.906-10.236-.001-14.142z"/></g></g></g></g><g><g><g><g><path d="m207.322 243.57c3.905 3.905 3.905 10.237 0 14.142s-10.237 3.905-14.142 0c-3.866-3.866-10.157-3.864-14.024.003-3.905 3.905-10.237 3.905-14.142 0s-3.905-10.237 0-14.142c11.665-11.665 30.645-11.666 42.308-.003z"/></g></g></g></g></g></g></g></svg>