<svg id="Capa_1" enable-background="new 0 0 511.991 511.991" height="512" viewBox="0 0 511.991 511.991" width="512" xmlns="http://www.w3.org/2000/svg"><g><g><g><g><g><path d="m256 255.574c92.915 0 173.799 45.359 215.65 112.302 19.345-30.942 30.35-66.495 30.35-104.311 0-119.632-110.138-216.613-246-216.613s-246 96.98-246 216.613c0 37.816 11.005 73.369 30.35 104.311 41.851-66.943 122.735-112.302 215.65-112.302z" fill="#fff2a0"/></g></g></g><g><g><g><path d="m471.65 367.876c-41.851-66.943-122.735-112.302-215.65-112.302s-173.799 45.359-215.651 112.302c-.145-.232-.29-.465-.434-.698 41.724 67.325 122.847 113 216.085 113s174.36-45.675 216.085-113c-.145.233-.289.466-.435.698z" fill="#fff7bf"/></g></g><g><g><g><g><circle cx="407.41" cy="103.051" fill="#f5eeec" r="71.238"/></g></g></g><g><g><g><circle cx="104.59" cy="103.051" fill="#f5eeec" r="71.238"/></g></g></g></g></g></g><g><path d="m498.855 299.702c-5.359-1.321-10.777 1.97-12.09 7.336-3.539 14.458-8.849 28.517-15.836 41.961-46.993-64.169-127.79-103.425-214.929-103.425-87.136 0-167.929 39.252-214.923 103.417-13.829-26.677-21.077-55.918-21.077-85.426 0-35.355 10.28-69.934 29.816-100.571 14.454 13.22 33.689 21.294 54.774 21.294 44.795 0 81.238-36.443 81.238-81.237 0-12.357-2.774-24.078-7.73-34.574 24.969-7.651 51.136-11.525 77.902-11.525 26.786 0 52.94 3.873 77.902 11.525-4.957 10.496-7.73 22.218-7.73 34.575 0 44.794 36.443 81.237 81.237 81.237 21.086 0 40.321-8.076 54.776-21.295 11.645 18.24 19.998 37.81 24.864 58.274 1.092 4.595 5.194 7.689 9.72 7.689.767 0 1.544-.088 2.322-.273 5.373-1.277 8.692-6.669 7.415-12.042-5.847-24.594-16.224-47.986-30.853-69.559 8.219-12.694 12.994-27.815 12.994-44.03 0-44.795-36.443-81.238-81.238-81.238-25.023 0-47.44 11.372-62.354 29.221-28.452-9.349-58.379-14.084-89.055-14.084-30.652 0-60.596 4.736-89.054 14.083-14.914-17.849-37.332-29.222-62.356-29.222-44.794 0-81.237 36.443-81.237 81.238 0 16.215 4.775 31.335 12.993 44.028-23.792 35.101-36.346 75.288-36.346 116.486 0 38.359 11.021 76.263 31.87 109.612.008.013.017.026.025.039 45.136 72.169 130.913 116.962 224.105 116.962 93.158 0 178.909-44.765 224.058-116.887.017-.027.034-.053.05-.08.007-.012.015-.023.022-.035 12.037-19.255 20.806-39.908 26.061-61.386 1.314-5.363-1.97-10.776-7.336-12.088zm-91.446-257.889c33.767 0 61.238 27.472 61.238 61.238s-27.472 61.237-61.238 61.237-61.237-27.471-61.237-61.237 27.471-61.238 61.237-61.238zm-302.819 0c33.767 0 61.238 27.472 61.238 61.238s-27.472 61.237-61.238 61.237-61.237-27.471-61.237-61.237 27.47-61.238 61.237-61.238zm151.41 428.365c-84.042 0-161.397-39.026-203.741-102.302 42.341-63.256 119.77-102.302 203.741-102.302s161.4 39.045 203.741 102.303c-42.344 63.274-119.698 102.301-203.741 102.301z"/><path d="m256 164.289c-5.522 0-10 4.478-10 10v2.91c0 8.089-6.578 14.669-14.664 14.669-8.085 0-14.663-6.58-14.663-14.669 0-5.522-4.478-10-10-10s-10 4.478-10 10c0 19.116 15.55 34.669 34.663 34.669 9.641 0 18.375-3.957 24.664-10.332 6.289 6.375 15.023 10.332 24.664 10.332 19.113 0 34.663-15.553 34.663-34.669 0-5.522-4.478-10-10-10-5.523 0-10 4.478-10 10 0 8.089-6.578 14.669-14.664 14.669-8.085 0-14.663-6.58-14.663-14.669v-2.91c0-5.523-4.478-10-10-10z"/><g><g><g><g><path d="m501.997 274.605c-4.237 0-8.106-2.784-9.47-6.789-1.362-3.998.018-8.581 3.384-11.141 3.199-2.434 7.607-2.711 11.091-.714 3.552 2.037 5.541 6.231 4.855 10.273-.808 4.759-5.015 8.371-9.86 8.371z"/></g></g></g></g><g><g><g><g><path d="m401.901 93.566c11.664-11.664 30.643-11.662 42.309.003 3.905 3.905 3.905 10.237 0 14.142s-10.237 3.905-14.142 0c-3.867-3.867-10.159-3.869-14.024-.003-3.905 3.905-10.237 3.905-14.142 0-3.906-3.905-3.906-10.237-.001-14.142z"/></g></g></g></g><g><g><g><g><path d="m110.315 93.566c3.905 3.905 3.905 10.237 0 14.142s-10.237 3.905-14.142 0c-3.866-3.866-10.157-3.864-14.024.003-3.905 3.905-10.237 3.905-14.142 0s-3.905-10.237 0-14.142c11.666-11.665 30.645-11.667 42.308-.003z"/></g></g></g></g></g></g></svg>