<svg id="Capa_1" enable-background="new 0 0 512 512" height="512" viewBox="0 0 512 512" width="512" xmlns="http://www.w3.org/2000/svg"><g><g><g><g><g><g><g><path clip-rule="evenodd" d="m457.481 290.127c0 1.664-.02 3.328-.061 4.991-.349 14.158-2.187 27.546-5.363 40.123-21.04 83.312-100.826 141.57-196.039 141.57-111.265 0-201.464-75.705-201.464-186.684s90.198-254.938 201.463-254.938c99.303 0 181.826 123.44 198.422 219.608 1.999 11.584 3.042 23.399 3.042 35.33z" fill="#b6bccf" fill-rule="evenodd"/></g></g></g></g></g><g><g><g><g><path d="m400.481 248.236c0-43.543-35.273-78.841-78.784-78.841-28.883 0-54.135 15.554-67.851 38.748-13.715-23.194-38.968-38.748-67.851-38.748-43.511 0-78.783 35.298-78.783 78.841 0 41.364 31.832 75.289 72.319 78.579-2.894 8.208-4.468 46.657-4.468 55.856 0 43.543 31.246 45.126 74.757 45.126s82.81-1.583 82.81-45.126c0-9.2-1.575-47.648-4.469-55.856 40.489-3.29 72.32-37.215 72.32-78.579z" fill="#ffdede"/></g></g></g></g><g><g><g><g><path clip-rule="evenodd" d="m454.812 249.245c25.536-3.974 47.188-25.057 47.188-51.726 0-29.481-23.882-53.38-53.341-53.38-10.945 0-21.12 3.299-29.587 8.957" fill="#cfd3df" fill-rule="evenodd"/></g></g></g><g><g><g><path clip-rule="evenodd" d="m55.078 250.262c-25.535-3.974-45.078-26.074-45.078-52.743 0-29.481 23.882-53.38 53.341-53.38 10.945 0 21.12 3.299 29.587 8.957" fill="#cfd3df" fill-rule="evenodd"/></g></g></g></g></g><g><g><g><g><g><path d="m277.933 369.002c-5.522 0-10-4.478-10-10v-16.043c0-5.523 4.478-10 10-10 5.523 0 10 4.477 10 10v16.043c0 5.522-4.478 10-10 10z"/></g></g></g></g><g><g><g><g><path d="m234.067 369.002c-5.522 0-10-4.478-10-10v-16.043c0-5.523 4.478-10 10-10s10 4.477 10 10v16.043c0 5.522-4.477 10-10 10z"/></g></g></g></g><g><g><g><path d="m249.82 437.797c-39.729 0-84.757 0-84.757-55.125 0-3.377.694-30.313 2.798-47.451-17.959-3.729-34.36-12.961-47.01-26.624-15.243-16.466-23.639-37.902-23.639-60.36 0-48.987 39.828-88.841 88.784-88.841 26.247 0 51.125 11.812 67.851 31.562 16.725-19.75 41.602-31.562 67.851-31.562 48.955 0 88.783 39.854 88.783 88.841 0 22.458-8.396 43.895-23.639 60.36-12.649 13.663-29.051 22.895-47.01 26.624 2.102 17.139 2.798 44.073 2.798 47.451 0 24.005-10.604 40.231-31.516 48.23-16.667 6.376-37.619 6.895-61.294 6.895zm-63.823-258.402c-37.928 0-68.784 30.882-68.784 68.841 0 35.597 27.729 65.734 63.13 68.612 3.092.251 5.892 1.923 7.579 4.525 1.688 2.603 2.073 5.841 1.041 8.767-1.941 5.509-3.899 39.496-3.899 52.531 0 32.097 17.759 35.125 64.757 35.125 51.346 0 72.811-4.881 72.811-35.125 0-13.036-1.958-47.023-3.899-52.53-1.032-2.926-.647-6.165 1.04-8.768 1.688-2.602 4.488-4.274 7.58-4.525 35.4-2.878 63.13-33.016 63.13-68.612 0-37.959-30.856-68.841-68.783-68.841-24.201 0-46.901 12.966-59.243 33.838-1.799 3.043-5.072 4.91-8.607 4.91s-6.808-1.867-8.607-4.91c-12.345-20.872-35.046-33.838-59.246-33.838z"/></g></g></g><g><g><g><g><path d="m457.44 304.94c-4.232 0-8.099-2.779-9.46-6.783-1.324-3.897-.065-8.335 3.126-10.944 3.282-2.683 8.016-2.988 11.62-.759 3.497 2.163 5.333 6.414 4.524 10.445-.928 4.625-5.096 8.041-9.81 8.041z"/></g></g></g></g><path d="m256.017 45.189c51.547 0 93.083 36.357 118.85 66.857 32.123 38.023 57.478 88.437 67.82 134.847.066.303.383 1.811.653 3.1.204.973.383 1.826.425 2.018 1.165 5.398 6.483 8.834 11.886 7.663.837-.181 1.627-.462 2.36-.827 30.897-5.587 53.99-31.672 53.99-61.328 0-34.948-28.415-63.38-63.341-63.38-10.001 0-19.737 2.329-28.545 6.787-9.086-14.887-19.168-29-29.969-41.786-18.968-22.451-39.434-40.191-60.83-52.726-24.041-14.083-48.702-21.225-73.298-21.225-28.514 0-56.694 8.672-83.76 25.773-24.477 15.467-46.94 37.059-66.769 64.176-5.774 7.897-11.196 16.098-16.241 24.528-8.097-3.636-16.894-5.528-25.907-5.528-34.926.001-63.341 28.432-63.341 63.381 0 15.211 5.467 29.92 15.394 41.418 8.283 9.595 19.217 16.454 31.304 19.747-1.415 10.657-2.144 21.179-2.144 31.444 0 55.67 22.132 106.239 62.319 142.392 38.915 35.01 91.882 54.291 149.144 54.291 46.441 0 90.385-13.321 127.079-38.525 36.43-25.021 62.537-59.465 75.496-99.597.086-.267.631-2.06 1.09-3.575.282-.934.529-1.752.592-1.952 1.648-5.271-1.287-10.88-6.558-12.529-5.271-1.647-10.881 1.286-12.53 6.558-.058.183-.332 1.091-.646 2.13-.402 1.328-.874 2.889-.977 3.212-24.003 74.333-97.764 124.277-183.546 124.277-109.151 0-191.463-75.957-191.463-176.683 0-53.298 21.338-114.301 57.079-163.184 38.548-52.719 86.272-81.754 134.384-81.754zm192.642 108.95c23.898 0 43.341 19.46 43.341 43.38 0 17.949-12.863 34.019-30.969 39.979-6.385-26.249-17.131-53.5-30.947-79.186 5.768-2.743 12.088-4.173 18.575-4.173zm-428.659 43.38c0-23.92 19.442-43.38 43.341-43.38 5.574 0 11.026 1.056 16.11 3.094-13.611 26.245-23.631 54.115-29.358 81.595-17.546-5.679-30.093-22.394-30.093-41.309z"/><g><g><g><g><g><path d="m324.904 253.57c11.664-11.664 30.643-11.662 42.309.003 3.905 3.905 3.905 10.237 0 14.142s-10.237 3.905-14.142 0c-3.867-3.867-10.159-3.869-14.024-.003-3.905 3.905-10.237 3.905-14.142 0-3.906-3.905-3.906-10.236-.001-14.142z"/></g></g></g></g><g><g><g><g><path d="m187.318 253.57c3.905 3.905 3.905 10.237 0 14.142s-10.237 3.905-14.142 0c-3.866-3.866-10.157-3.864-14.024.003-3.905 3.905-10.237 3.905-14.142 0s-3.905-10.237 0-14.142c11.665-11.665 30.645-11.666 42.308-.003z"/></g></g></g></g></g></g></g></svg>