<svg id="Capa_1" enable-background="new 0 0 512 512" height="512" viewBox="0 0 512 512" width="512" xmlns="http://www.w3.org/2000/svg"><g><g><g><g><g><circle cx="256" cy="255.989" fill="#e5ae8c" r="195.879"/></g></g></g><g><g><g><path d="m67.053 182.402c-31.509 0-57.053 25.543-57.053 57.053 0 30.588 22.07 55.553 52.302 56.988" fill="#ffbe90"/></g></g><g><g><g><path d="m449.698 296.443c30.233-1.434 52.302-26.4 52.302-56.988 0-31.51-25.544-57.053-57.053-57.053" fill="#ffbe90"/></g></g><g><g><g><g><path d="m404.726 265.725c0-44.132-35.776-79.908-79.908-79.908-29.295 0-54.908 15.764-68.818 39.273-13.911-23.508-39.524-39.273-68.819-39.273-44.132 0-79.907 35.776-79.907 79.908 0 41.924 32.286 76.307 73.351 79.642-2.935 8.319-4.532 17.27-4.532 26.594 0 44.132 35.776 79.907 79.907 79.907s79.908-35.776 79.908-79.907c0-9.324-1.597-18.275-4.532-26.594 41.064-3.335 73.35-37.718 73.35-79.642z" fill="#ffdede"/></g></g></g></g></g></g></g><g><g><g><g><g><path d="m277.585 370.369c-5.523 0-10-4.478-10-10v-15.777c0-5.522 4.477-10 10-10s10 4.478 10 10v15.777c0 5.523-4.477 10-10 10z"/></g></g></g></g><g><g><g><g><path d="m234.415 370.369c-5.523 0-10-4.478-10-10v-15.777c0-5.522 4.477-10 10-10s10 4.478 10 10v15.777c0 5.523-4.478 10-10 10z"/></g></g></g></g><path d="m512 239.454c0-36.973-30.08-67.053-67.053-67.053-.273 0-.543.011-.81.033-7.102-16.021-16.246-31.155-27.272-44.942-28.581-35.736-68.699-61.228-112.962-71.777-5.372-1.278-10.765 2.037-12.046 7.409-1.28 5.372 2.037 10.766 7.409 12.046 83.968 20.014 142.613 94.369 142.613 180.819 0 77.683-47.901 144.389-115.718 172.132 12.35-15.398 19.746-34.931 19.746-56.16 0-6.22-.631-12.369-1.883-18.386 17.855-3.885 34.15-13.15 46.761-26.762 15.438-16.664 23.94-38.358 23.94-61.088 0-49.575-40.332-89.908-89.908-89.908-26.637 0-51.881 12.005-68.818 32.069-16.938-20.064-42.182-32.069-68.819-32.069-49.575 0-89.907 40.333-89.907 89.908 0 22.729 8.502 44.424 23.94 61.088 12.61 13.611 28.906 22.877 46.761 26.762-1.252 6.016-1.882 12.166-1.882 18.386 0 21.229 7.396 40.762 19.746 56.16-67.817-27.743-115.718-94.449-115.718-172.132 0-86.688 58.842-161.09 143.093-180.934 5.376-1.266 8.707-6.65 7.441-12.026-1.267-5.375-6.653-8.706-12.026-7.44-44.39 10.455-84.638 35.917-113.328 71.696-11.101 13.844-20.301 29.049-27.438 45.149-.267-.021-.536-.033-.809-.033-36.973.001-67.053 30.081-67.053 67.053 0 34.557 23.811 62.2 56.246 66.478 22.376 89.47 103.449 155.936 199.754 155.936s177.378-66.467 199.754-155.936c32.434-4.278 56.246-31.921 56.246-66.478zm-492 0c0-23.566 17.414-43.14 40.05-46.532-6.523 20.27-9.929 41.567-9.929 63.067 0 9.724.678 19.293 1.988 28.661-18.888-5.626-32.109-23.458-32.109-45.196zm166.093 132.507c0-7.987 1.333-15.815 3.962-23.267 1.032-2.926.648-6.165-1.04-8.768s-4.489-4.275-7.581-4.526c-35.978-2.922-64.161-33.527-64.161-69.675 0-38.548 31.36-69.908 69.907-69.908 24.597 0 47.669 13.168 60.213 34.365 1.8 3.042 5.072 4.907 8.606 4.907s6.806-1.865 8.606-4.907c12.543-21.197 35.616-34.365 60.212-34.365 38.547 0 69.908 31.36 69.908 69.908 0 36.147-28.183 66.753-64.161 69.675-3.092.251-5.893 1.923-7.581 4.526s-2.072 5.842-1.04 8.768c2.629 7.452 3.963 15.28 3.963 23.267 0 38.395-31.114 69.661-69.453 69.906-.151 0-.303.001-.454.001-.152 0-.303-.001-.454-.001-38.338-.245-69.452-31.511-69.452-69.906zm273.798-87.31c1.311-9.369 1.988-18.937 1.988-28.661 0-21.497-3.407-42.795-9.93-63.067 22.636 3.391 40.051 22.965 40.051 46.531 0 21.738-13.221 39.57-32.109 45.197z"/><g><g><g><g><path d="m256 70.117c-4.191 0-8.031-2.712-9.429-6.664-1.414-3.995-.088-8.561 3.233-11.188 3.288-2.601 7.999-2.85 11.541-.606 3.452 2.186 5.25 6.364 4.471 10.374-.9 4.64-5.093 8.084-9.816 8.084z"/></g></g></g></g><g><g><g><g><g><path d="m314.904 273.56c11.664-11.664 30.643-11.662 42.309.003 3.905 3.905 3.905 10.237 0 14.142s-10.237 3.905-14.142 0c-3.867-3.867-10.159-3.869-14.024-.003-3.905 3.905-10.237 3.905-14.142 0-3.906-3.905-3.906-10.237-.001-14.142z"/></g></g></g></g><g><g><g><g><path d="m197.318 273.56c3.905 3.905 3.905 10.237 0 14.142s-10.237 3.905-14.142 0c-3.866-3.866-10.157-3.864-14.024.003-3.905 3.905-10.237 3.905-14.142 0s-3.905-10.237 0-14.142c11.665-11.665 30.645-11.667 42.308-.003z"/></g></g></g></g></g></g></g></svg>