<svg id="Capa_1" enable-background="new 0 0 512 512" height="512" viewBox="0 0 512 512" width="512" xmlns="http://www.w3.org/2000/svg"><g><g><g><g><g><g><g><g><path clip-rule="evenodd" d="m353.267 384.754c65.791-28.466 110.603-49.104 110.603-135.928 0-125.122-93.062-238.826-207.86-238.826s-207.86 113.704-207.86 238.825c0 86.824 44.812 107.462 110.603 135.928 60.799 28.747 131.202 29.12 192.302 1.017z" fill="#b6bccf" fill-rule="evenodd"/></g></g></g></g></g></g><g><g><g><path clip-rule="evenodd" d="m138.1 441.773v3.395c0 31.387 25.444 56.832 56.832 56.832v-53.554" fill="#f5eeec" fill-rule="evenodd"/></g></g></g><g><g><g><path clip-rule="evenodd" d="m317.074 448.446v53.554c31.388 0 56.832-25.444 56.832-56.832v-3.395" fill="#f5eeec" fill-rule="evenodd"/></g></g></g><g><g><g><path d="m417.92 308.922c-25.431-37.885-68.063-41.701-113.691-41.701h-96.452c-45.629 0-88.26 3.816-113.691 41.7v.001c-28.444 42.373-20.736 79.306 17.948 112.593 27.094 23.314 64.506 30.537 98.332 18.987l45.637-15.583 45.637 15.583c33.825 11.55 71.238 4.326 98.331-18.987 38.685-33.287 46.393-70.22 17.949-112.593z" fill="#e7e9ef"/></g></g></g><g><g><g><circle clip-rule="evenodd" cx="258.668" cy="302.778" fill="#ff9c9b" fill-rule="evenodd" r="35.557"/></g></g></g></g><g><g><path d="m461.119 286.602c-5.39-1.194-10.731 2.21-11.925 7.603-2.644 11.946-6.395 21.757-11.52 29.965-2.94-6.883-6.758-13.83-11.451-20.821-28.573-42.565-75.934-46.127-121.994-46.127h-96.452c-46.061 0-93.421 3.561-121.994 46.127-3.755 5.593-6.949 11.157-9.582 16.684-12.275-17.723-18.051-40.693-18.051-71.208 0-121.897 92.458-228.825 197.86-228.825 91.983 0 175.44 80.068 194.126 186.252.135.764.266 1.53.394 2.296.905 5.448 6.054 9.139 11.504 8.225 5.448-.905 9.131-6.057 8.225-11.504-.138-.832-.28-1.663-.426-2.488-9.606-54.585-35.875-105.219-73.967-142.573-39.591-38.826-89.26-60.208-139.856-60.208-29.477 0-58.22 6.999-85.433 20.803-25.789 13.082-49.055 31.653-69.153 55.197-40.211 47.108-63.274 110.101-63.274 172.825 0 41.206 9.664 70.956 30.414 93.621-1.912 9.46-2.094 18.766-.532 27.871 3.544 20.65 16.154 40.427 37.481 58.777 6.952 5.982 14.551 11.001 22.588 15.016v1.057c0 36.852 29.981 66.832 66.832 66.832 5.523 0 10-4.478 10-10v-49.47c2.91-.732 5.801-1.586 8.665-2.564l42.405-14.48 42.405 14.48c2.865.978 5.756 1.832 8.665 2.565v49.47c0 5.522 4.478 10 10 10 36.852 0 66.832-29.98 66.832-66.832v-1.056c8.038-4.016 15.637-9.035 22.589-15.017 21.327-18.351 33.938-38.127 37.482-58.777 1.249-7.281 1.383-14.691.408-22.206 11.77-12.571 19.745-28.831 24.338-49.585 1.193-5.393-2.21-10.732-7.603-11.925zm-176.894 16.176c0 14.092-11.465 25.557-25.557 25.557s-25.557-11.465-25.557-25.557 11.465-25.557 25.557-25.557c14.092.001 25.557 11.465 25.557 25.557zm-99.293 188.148c-18.879-4.123-33.538-19.667-36.345-38.998 11.791 3.213 24.084 4.486 36.345 3.716zm142.141 0v-35.28c2.324.146 4.648.219 6.971.219 9.931 0 19.817-1.33 29.374-3.935-2.808 19.33-17.466 34.873-36.345 38.996zm66.375-76.991c-24.297 20.909-58.236 27.467-88.577 17.103l-45.637-15.583c-1.048-.357-2.14-.536-3.231-.536-1.092 0-2.184.179-3.231.536l-45.637 15.583c-30.338 10.359-64.279 3.806-88.578-17.103-35.859-30.854-40.997-62.452-16.168-99.44 23.107-34.423 63.036-37.273 105.388-37.273h13.196c-4.96 7.292-7.862 16.092-7.862 25.557 0 25.12 20.437 45.557 45.557 45.557s45.557-20.437 45.557-45.557c0-9.465-2.902-18.264-7.862-25.557h7.866c42.352 0 82.281 2.851 105.389 37.273 24.828 36.987 19.691 68.585-16.17 99.44z"/><g><g><g><g><path d="m463.853 261.41c-4.17 0-8.009-2.703-9.405-6.632-1.377-3.874-.212-8.326 2.936-10.99 3.282-2.778 8.093-3.122 11.745-.864 3.501 2.165 5.338 6.398 4.534 10.435-.919 4.616-5.101 8.051-9.81 8.051z"/></g></g></g></g></g><g><g><g><g><g><path d="m324.907 223.57c11.664-11.664 30.643-11.662 42.309.003 3.905 3.905 3.905 10.237 0 14.142s-10.237 3.905-14.142 0c-3.867-3.867-10.159-3.869-14.024-.003-3.905 3.905-10.237 3.905-14.142 0-3.906-3.905-3.906-10.236-.001-14.142z"/></g></g></g></g><g><g><g><g><path d="m187.321 223.57c3.905 3.905 3.905 10.237 0 14.142s-10.237 3.905-14.142 0c-3.866-3.866-10.157-3.864-14.024.003-3.905 3.905-10.237 3.905-14.142 0s-3.905-10.237 0-14.142c11.665-11.665 30.645-11.666 42.308-.003z"/></g></g></g></g></g></g></g></svg>