<svg id="Capa_1" enable-background="new 0 0 512.005 512.005" height="512" viewBox="0 0 512.005 512.005" width="512" xmlns="http://www.w3.org/2000/svg"><g><g><g><g><g><path clip-rule="evenodd" d="m426.502 201.723c13.9-7.285 26.679-17.299 35.014-31.05 28.42-46.889-10.49-98.051-10.49-98.051s-75.198-17.999-103.617 28.89c-2.095 3.457-3.851 7.054-5.306 10.75" fill="#ffbe90" fill-rule="evenodd"/></g></g></g><g><g><g><path clip-rule="evenodd" d="m85.503 201.723c-13.9-7.285-26.679-17.299-35.014-31.05-28.42-46.889 10.49-98.051 10.49-98.051s75.198-17.999 103.617 28.89c2.095 3.457 3.851 7.054 5.306 10.75" fill="#ffbe90" fill-rule="evenodd"/></g></g></g><g><g><g><g><path clip-rule="evenodd" d="m445.365 294.901c0 104.462-84.781 147.932-189.363 147.932s-189.362-43.471-189.362-147.932 84.78-199.391 189.362-199.391 189.363 94.929 189.363 199.391z" fill="#ffd4b5" fill-rule="evenodd"/></g></g></g><g><g><g><path clip-rule="evenodd" d="m319.866 180.906c-17.849-.646-34.413 4.145-47.769 12.661-9.582 6.11-22.608 6.11-32.189 0-13.356-8.516-29.92-13.307-47.769-12.661-40.346 1.459-72.816 31.172-73.377 67.08-.596 38.059 33.916 69.078 76.573 69.078 16.607 0 31.98-4.701 44.527-12.689 9.621-6.125 22.66-6.125 32.281 0 12.547 7.988 27.919 12.689 44.527 12.689 42.658 0 77.169-31.018 76.574-69.078-.562-35.909-33.032-65.621-73.378-67.08z" fill="#e5ae8c" fill-rule="evenodd"/></g></g><g><g><g><ellipse clip-rule="evenodd" cx="256.002" cy="322.728" fill="#ff9c9b" fill-rule="evenodd" rx="22.234" ry="22.234" transform="matrix(.151 -.989 .989 .151 -101.71 527.013)"/></g></g></g></g></g></g><g><g><path d="m504.556 390.144-68.149-17.998c1.036-1.811 2.031-3.649 2.984-5.514 5.364-10.505 9.389-21.874 12.058-34.021l51.214-19.972c5.146-2.007 7.69-7.805 5.683-12.949-2.006-5.146-7.804-7.692-12.95-5.684l-40.607 15.836c.384-4.881.577-9.862.577-14.941 0-29.741-6.652-59.586-19.145-87.126 14.876-8.662 26.247-19.38 33.847-31.919 31.585-52.109-9.325-106.977-11.082-109.288-1.397-1.837-3.387-3.134-5.631-3.672-3.36-.804-82.662-19.095-114.498 33.432-1.381 2.279-2.66 4.66-3.826 7.12-9.84-4.66-20.012-8.464-30.409-11.336-5.323-1.464-10.831 1.653-12.301 6.978-1.47 5.324 1.654 10.831 6.977 12.302 78.843 21.773 136.068 98.949 136.068 183.509 0 8.179-.542 15.879-1.569 23.128l-84.724 33.04c-8.905 3.124-8.057 16.973 1.143 19.002l52.62 13.897c-40.935 42.696-110.296 48.865-146.833 48.865s-105.898-6.17-146.834-48.865l52.627-13.898c9.285-2.051 9.994-16.059.995-19.055l-84.583-32.985c-1.027-7.248-1.569-14.948-1.569-23.128 0-84.657 57.302-161.855 136.251-183.559 5.325-1.464 8.456-6.968 6.991-12.293-1.464-5.326-6.967-8.455-12.293-6.992-10.469 2.878-20.71 6.701-30.614 11.392-1.167-2.46-2.445-4.841-3.826-7.12-31.836-52.527-111.136-34.237-114.497-33.433-2.245.538-4.234 1.835-5.631 3.672-1.757 2.311-42.667 57.179-11.082 109.288 7.6 12.539 18.971 23.257 33.847 31.918-12.493 27.538-19.145 57.382-19.145 87.126 0 5.079.193 10.06.577 14.941l-40.607-15.835c-5.145-2.008-10.943.538-12.95 5.684-2.007 5.145.538 10.942 5.683 12.949l51.214 19.972c2.669 12.147 6.694 23.516 12.058 34.021.952 1.865 1.947 3.703 2.984 5.514l-68.15 17.997c-5.34 1.41-8.525 6.883-7.115 12.223 1.184 4.484 5.233 7.449 9.662 7.449.845 0 1.704-.108 2.56-.334l75.051-19.82c8.084 9.958 17.701 18.848 28.771 26.577 34.289 23.939 82.57 36.594 139.625 36.594s105.335-12.654 139.624-36.594c11.071-7.729 20.688-16.619 28.771-26.577l75.051 19.82c.856.226 1.714.334 2.56.334 4.429 0 8.478-2.966 9.662-7.449 1.41-5.34-1.775-10.813-7.115-12.223zm-151.882-277.208c.988-2.173 2.088-4.263 3.286-6.24 21.012-34.667 74.689-27.668 89.123-25.067 7.028 10.835 28.773 49.394 7.881 83.861-5.689 9.386-14.369 17.588-25.848 24.437-4.373-7.684-9.226-15.128-14.539-22.273-16.594-22.315-37.074-40.913-59.903-54.718zm-293.633 52.554c-20.903-34.487.879-73.072 7.887-83.872 14.431-2.629 68.026-9.72 89.117 25.078 1.199 1.978 2.299 4.067 3.286 6.241-22.8 13.786-43.256 32.353-59.841 54.633-5.337 7.17-10.211 14.643-14.602 22.357-11.478-6.85-20.158-15.051-25.847-24.437zm24.671 176.152 43.363 16.911-31.389 8.29c-4.805-7.528-8.858-15.897-11.974-25.201zm301.218 16.91 43.363-16.911c-3.116 9.305-7.169 17.674-11.974 25.2z"/><path d="m191.778 170.913c-21.879.791-42.475 9.043-57.995 23.235-15.819 14.466-24.705 33.53-25.021 53.682-.306 19.574 7.439 38.392 21.808 52.987 16.421 16.681 40.027 26.247 64.765 26.247 9.798 0 19.377-1.462 28.434-4.298.017 14.268 9.351 26.394 22.233 30.608v4.368c0 6.34-5.156 11.498-11.493 11.498s-11.493-5.158-11.493-11.498c0-5.522-4.477-10-10-10s-10 4.478-10 10c0 17.368 14.127 31.498 31.493 31.498 8.301 0 15.861-3.229 21.493-8.496 5.632 5.267 13.193 8.496 21.493 8.496 17.365 0 31.493-14.13 31.493-31.498 0-5.522-4.477-10-10-10s-10 4.478-10 10c0 6.34-5.156 11.498-11.493 11.498s-11.493-5.158-11.493-11.498v-4.368c12.882-4.214 22.217-16.34 22.233-30.608 9.058 2.837 18.636 4.298 28.434 4.298 24.737 0 48.343-9.566 64.765-26.247 14.369-14.596 22.114-33.413 21.808-52.987-.315-20.151-9.201-39.216-25.02-53.682-15.52-14.192-36.116-22.444-57.995-23.235-19.318-.7-37.819 4.22-53.506 14.223-6.312 4.022-15.127 4.023-21.437 0-15.688-10.004-34.2-14.937-53.506-14.223zm64.224 164.048c-6.746 0-12.233-5.488-12.233-12.233s5.488-12.233 12.233-12.233c6.746 0 12.233 5.488 12.233 12.233.001 6.745-5.487 12.233-12.233 12.233zm21.472-132.962c12.251-7.812 26.782-11.636 42.031-11.1 35.26 1.275 63.258 26.42 63.74 57.243.222 14.173-5.482 27.898-16.063 38.644-12.687 12.888-31.098 20.278-50.512 20.278-14.184 0-27.724-3.847-39.156-11.125-6.435-4.097-13.972-6.145-21.512-6.145-7.538 0-15.079 2.049-21.511 6.145-11.433 7.278-24.973 11.125-39.157 11.125-19.414 0-37.825-7.391-50.512-20.278-10.58-10.746-16.285-24.471-16.063-38.644.482-30.823 28.48-55.968 63.74-57.243 15.247-.541 29.779 3.287 42.031 11.1 12.844 8.189 30.101 8.189 42.944 0z"/><g><g><g><g><path d="m256.002 105.509c-4.07 0-7.792-2.558-9.29-6.331-1.54-3.877-.439-8.431 2.696-11.185 3.186-2.798 7.916-3.262 11.591-1.147 3.669 2.112 5.629 6.468 4.803 10.613-.919 4.614-5.088 8.05-9.8 8.05z"/></g></g></g></g><g><g><g><g><path d="m304.906 253.6c11.664-11.664 30.643-11.662 42.309.003 3.905 3.905 3.905 10.237 0 14.142s-10.237 3.905-14.142 0c-3.867-3.867-10.159-3.869-14.024-.003-3.905 3.905-10.237 3.905-14.142 0-3.906-3.905-3.906-10.236-.001-14.142z"/></g></g></g></g><g><g><g><g><path d="m207.321 253.6c3.905 3.905 3.905 10.237 0 14.142s-10.237 3.905-14.142 0c-3.866-3.866-10.157-3.864-14.024.003-3.905 3.905-10.237 3.905-14.142 0s-3.905-10.237 0-14.142c11.665-11.665 30.644-11.666 42.308-.003z"/></g></g></g></g></g></g></g></svg>