<svg id="Capa_1" enable-background="new 0 0 511.989 511.989" height="512" viewBox="0 0 511.989 511.989" width="512" xmlns="http://www.w3.org/2000/svg"><g><g><g><g><g><path d="m475.346 252.52c14.756-66.174-8.628-159.677-94.026-143.198.647 2.358.994 4.838.994 7.395v1.394c0 10.87-6.255 20.359-15.34 24.893 37.227 40.788 58.879 99.853 58.879 155.901 0 27.847-5.555 72.291-15.743 93.031 35.713 10.64 84.875-11.173 90.971-40.197 7.441-35.45-33.248-65.524-25.735-99.219z" fill="#cfd3df"/></g></g></g><g><g><g><g><path d="m86.136 298.903c0-56.048 21.651-115.112 58.878-155.901-9.085-4.533-15.34-14.023-15.34-24.893v-1.394c0-2.557.346-5.037.994-7.395-85.398-16.478-108.782 77.025-94.026 143.2 7.513 33.695-33.176 63.769-25.734 99.218 6.096 29.024 55.258 50.836 90.971 40.197-10.188-20.741-15.743-65.184-15.743-93.032z" fill="#cfd3df"/></g></g></g><g><g><g><g><g><g><path clip-rule="evenodd" d="m425.853 298.903c0 99.222-70.522 155.081-169.858 155.081s-169.859-55.859-169.859-155.081 67.854-207.896 169.858-207.896 169.859 108.674 169.859 207.896z" fill="#f5eeec" fill-rule="evenodd"/></g></g></g></g></g><g><g><g><path d="m338.78 328.858c-12.98-19.337-34.74-21.285-58.029-21.285h-49.23c-23.29 0-45.049 1.948-58.029 21.284-14.518 21.628-10.584 40.479 9.161 57.469 13.829 11.9 32.925 15.587 50.19 9.691l23.294-7.954 23.294 7.954c17.265 5.895 36.361 2.208 50.19-9.691 19.743-16.989 23.677-35.84 9.159-57.468z" fill="#ffdede"/></g></g><g><g><g><path d="m129.674 116.716c0-15.46 12.653-28.128 28.107-27.714l.303.009 8.17.25 4.85-6.49c18.04-24.17 50.96-31.67 77.7-17.7l7.19 3.76 7.19-3.76c26.74-13.97 59.66-6.47 77.7 17.7l4.85 6.49 8.17-.25.303-.009c15.454-.414 28.107 12.254 28.107 27.714v1.394c0 15.46-12.653 28.128-28.107 27.714-.101-.003-.202-.006-.303-.009l-8.17-.25-4.85 6.49c-18.04 24.17-50.96 31.67-77.7 17.7l-7.19-3.76-7.19 3.76c-26.74 13.97-59.66 6.47-77.7-17.7l-4.85-6.49-8.17.25c-.101.003-.202.006-.303.009-15.454.414-28.107-12.254-28.107-27.714z" fill="#b6bccf"/></g></g><g><g><g><path clip-rule="evenodd" d="m256.136 344.568c-12.1 0-21.909-9.809-21.909-21.909v-15.085h43.819v15.085c-.001 12.099-9.81 21.909-21.91 21.909z" fill="#ff9c9b" fill-rule="evenodd"/></g></g></g></g></g></g></g></g><g><g><g><path d="m347.083 323.284c-15.926-23.725-42.59-25.711-66.332-25.711h-49.23c-23.743 0-50.407 1.987-66.332 25.712-17.038 25.382-13.255 49.802 10.941 70.621 16.444 14.15 39.412 18.583 59.944 11.575l20.062-6.851 20.063 6.851c6.44 2.199 13.12 3.272 19.765 3.272 14.534 0 28.893-5.136 40.179-14.847 24.196-20.819 27.98-45.24 10.941-70.621m-79.038-5.712v5.085c0 6.566-5.343 11.909-11.91 11.909-6.566 0-11.909-5.343-11.909-11.909v-5.085zm55.051 61.173c-11.092 9.545-26.586 12.537-40.435 7.808l-23.294-7.953c-1.048-.357-2.14-.536-3.231-.536-1.092 0-2.184.179-3.231.536l-23.293 7.953c-13.847 4.731-29.344 1.738-40.436-7.808-16.496-14.193-18.703-27.447-7.381-44.315 8.484-12.638 22.167-16.164 42.433-16.759v4.986c0 17.595 14.314 31.909 31.909 31.909 17.596 0 31.91-14.314 31.91-31.909v-4.986c20.264.595 33.948 4.122 42.432 16.76 11.321 16.867 9.114 30.12-7.383 44.314z"/><path d="m496.877 296.502c-7.564-14.722-14.709-28.627-11.77-41.806 9.664-43.343 5.254-101.651-26.384-134.213-17.939-18.46-42.427-26.009-71.108-22.01-1.79-3.266-4.06-6.277-6.757-8.902-7.276-7.084-16.86-10.813-26.942-10.565l-3.286.101-1.732-2.317c-21.091-28.257-59.088-36.911-90.347-20.579l-2.557 1.337-2.56-1.339c-31.258-16.33-69.252-7.676-90.34 20.576l-1.736 2.322-3.31-.101c-10.117-.306-19.644 3.482-26.919 10.565-2.696 2.625-4.966 5.635-6.756 8.901-28.683-4.004-53.17 3.55-71.109 22.011-31.638 32.562-36.048 90.87-26.384 134.213 2.939 13.179-4.205 27.084-11.77 41.806-8.657 16.851-18.47 35.949-13.989 57.291 2.733 13.01 12.674 24.946 28.75 34.521 17.633 10.5 39.803 16.294 59.698 16.293 6.975 0 13.671-.712 19.794-2.183 5.334 6.725 11.29 12.985 17.854 18.745 31.92 28.011 76.45 42.816 128.776 42.816 64.054 0 115.448-22.229 146.628-61.561 6.123 1.472 12.819 2.184 19.796 2.184 19.894 0 42.067-5.794 59.698-16.293 16.076-9.574 26.017-21.511 28.751-34.521 4.481-21.343-5.332-40.441-13.989-57.292zm-357.203-179.786c0-4.868 1.921-9.42 5.408-12.814 3.374-3.285 7.788-5.053 12.408-4.903l8.458.258c3.229.085 6.363-1.396 8.315-4.009l4.855-6.495c15.186-20.347 42.544-26.579 65.052-14.819l7.19 3.76c2.902 1.518 6.365 1.518 9.268 0l7.188-3.758c22.512-11.76 49.869-5.527 65.059 14.822l4.851 6.49c1.952 2.612 5.074 4.094 8.315 4.009l8.435-.258c4.657-.107 9.057 1.617 12.432 4.903 3.487 3.395 5.408 7.946 5.408 12.814v1.395c0 4.869-1.921 9.42-5.407 12.814-3.374 3.285-7.764 5.047-12.409 4.903l-8.458-.258c-3.241-.089-6.363 1.396-8.315 4.009l-4.855 6.495c-15.186 20.347-42.547 26.58-65.051 14.82l-7.19-3.761c-1.452-.759-3.043-1.139-4.635-1.139s-3.183.38-4.635 1.139l-7.187 3.759c-22.51 11.762-49.868 5.527-65.059-14.823l-4.851-6.49c-1.952-2.612-5.087-4.098-8.315-4.009l-8.435.258c-4.653.115-9.058-1.617-12.433-4.903-3.486-3.395-5.407-7.945-5.407-12.814zm-99.569 254.414c-10.827-6.448-17.902-14.266-19.41-21.447-3.023-14.399 4.374-28.797 12.206-44.04 8.855-17.237 18.014-35.06 13.501-55.3-8.22-36.86-5.089-88.859 21.206-115.922 13.083-13.465 30.574-18.964 52.065-16.395v.085c0 9.039 3.303 17.864 9.155 24.693-32.644 41.161-52.693 100.183-52.693 156.1 0 32.243 7.156 61.09 20.973 85.363-17.742 1.855-40.137-3.094-57.003-13.137zm451.189-21.448c-1.509 7.183-8.584 15-19.411 21.448-16.866 10.044-39.261 14.994-57.005 13.137 6.665-11.702 11.836-24.552 15.37-38.454 1.361-5.353-1.875-10.795-7.227-12.155-5.353-1.367-10.795 1.874-12.155 7.227-16.414 64.558-74.31 103.1-154.871 103.1-98.604 0-159.858-55.592-159.858-145.081 0-52.18 18.813-107.146 49.358-144.917 4.003 1.312 8.243 1.94 12.578 1.834l3.286-.101 1.732 2.317c21.09 28.258 59.086 36.911 90.348 20.58l2.556-1.337 2.56 1.339c10.604 5.54 21.979 8.204 33.211 8.204 21.877-.001 43.196-10.113 57.129-28.781l1.736-2.322 3.31.101c4.342.123 8.582-.505 12.585-1.823 21.966 27.137 37.942 62.944 45.182 101.451.903 4.804 5.101 8.154 9.816 8.154.613 0 1.235-.057 1.859-.174 5.428-1.02 9.001-6.248 7.98-11.676-7.723-41.07-24.738-79.455-48.191-108.964 5.844-6.827 9.143-15.646 9.143-24.678v-.084c21.493-2.568 38.982 2.93 52.065 16.394 26.295 27.063 29.426 79.062 21.206 115.922-4.513 20.239 4.645 38.063 13.501 55.3 7.832 15.243 15.229 29.64 12.207 44.039z"/></g></g><g><g><g><g><path d="m425.853 308.901c-4.177 0-7.984-2.69-9.402-6.615-1.382-3.826-.253-8.221 2.809-10.902 3.278-2.87 8.17-3.258 11.871-.97 3.516 2.174 5.359 6.469 4.509 10.515-.961 4.585-5.095 7.972-9.787 7.972z"/></g></g></g></g><g><g><g><g><g><path d="m324.898 263.602c11.664-11.664 30.643-11.662 42.309.003 3.905 3.905 3.905 10.237 0 14.142s-10.237 3.905-14.142 0c-3.867-3.867-10.159-3.869-14.024-.003-3.905 3.905-10.237 3.905-14.142 0-3.906-3.905-3.906-10.237-.001-14.142z"/></g></g></g></g><g><g><g><g><path d="m187.312 263.602c3.905 3.905 3.905 10.237 0 14.142s-10.237 3.905-14.142 0c-3.866-3.866-10.157-3.864-14.024.003-3.905 3.905-10.237 3.905-14.142 0s-3.905-10.237 0-14.142c11.666-11.666 30.645-11.667 42.308-.003z"/></g></g></g></g></g></g></g></svg>