<svg id="Capa_1" enable-background="new 0 0 512 512" height="512" viewBox="0 0 512 512" width="512" xmlns="http://www.w3.org/2000/svg"><g><g><g><g><g><g><path clip-rule="evenodd" d="m431.148 337.402c0 27.78-6.478 53.191-18.019 75.301-28.588 54.789-88.209 89.297-157.129 89.297-68.919 0-128.541-34.508-157.129-89.297-11.541-22.11-18.019-47.522-18.019-75.301 0-83.031 57.908-212.709 135.587-242.135 12.715-4.813 25.96-7.46 39.561-7.46 15.844 0 31.197 3.59 45.799 10.011 74.521 32.804 129.349 158.786 129.349 239.584z" fill="#f5eeec" fill-rule="evenodd"/></g></g></g></g><g><g><g><path clip-rule="evenodd" d="m182.186 109.538c-13.957-41.654-72.875-58.72-72.875-58.72s-39.256 49.796-26.245 92.508c6.207 20.376 19.335 35.459 35.398 45.662" fill="#b6bccf" fill-rule="evenodd"/></g></g></g><g><g><g><path clip-rule="evenodd" d="m393.859 188.783c15.967-10.199 28.91-25.217 35.076-45.457 13.011-42.712-26.245-92.508-26.245-92.508s-58.52 16.938-72.732 58.298" fill="#b6bccf" fill-rule="evenodd"/></g></g></g><g><g><g><g><path d="m256.138 383.138c-.091-.862-.138-1.736-.138-2.622 0 .886-.047 1.76-.138 2.622z" fill="none"/></g></g></g></g><g><g><g><path clip-rule="evenodd" d="m413.133 412.704c-28.591 54.786-88.214 89.296-157.133 89.296s-128.542-34.51-157.133-89.296c28.813-43.223 88.353-72.896 157.133-72.896s128.32 29.673 157.133 72.896z" fill="#ffbdbc" fill-rule="evenodd"/></g></g></g><g><g><g><path d="m234.066 168.289h-50.446l72.38-158.289 72.38 158.289" fill="#ff9c9b"/></g></g></g></g><g><g><path d="m438.5 146.24c14.369-47.17-26.223-99.412-27.958-101.613-2.52-3.196-6.726-4.549-10.633-3.414-2.375.687-53.796 15.967-74.523 53.657-7.645-4.455-15.417-7.796-23.253-9.96-.328-.09-.656-.163-.984-.218l-36.055-78.85c-1.627-3.56-5.181-5.842-9.094-5.842s-7.467 2.282-9.094 5.842l-36.046 78.83c-.268.051-.535.112-.803.186-7.898 2.171-15.731 5.537-23.435 10.031-20.719-37.69-72.147-52.985-74.53-53.675-3.908-1.127-8.115.218-10.635 3.415-1.735 2.2-42.327 54.442-27.958 101.612 5.737 18.833 17.249 34.949 33.487 46.99-22.357 47.29-36.14 102.086-36.14 144.173 0 28.679 6.444 55.569 19.152 79.926.034.065.069.129.104.193 30.513 58.28 94.059 94.477 165.898 94.477 71.836 0 135.381-36.194 165.895-94.473.036-.065.071-.13.105-.195 12.71-24.357 19.154-51.249 19.154-79.929 0-42.08-13.778-96.885-36.124-144.176 16.216-12.008 27.726-28.128 33.47-46.987zm-39.602-83.544c9.066 13.432 29.461 48.201 20.47 77.716-4.219 13.849-12.121 25.477-23.539 34.669-16.042-29.506-34.384-52.785-53.91-68.686 12.198-24.539 43.334-38.558 56.979-43.699zm-306.267 77.716c-8.958-29.408 11.443-64.27 20.491-77.722 13.657 5.121 44.77 19.095 56.974 43.727-19.52 15.902-37.855 39.166-53.895 68.649-11.349-9.213-19.424-21.046-23.57-34.654zm163.369 351.588c-62.218 0-117.328-29.981-145.37-78.642 29.181-39.344 84.215-63.551 145.37-63.551s116.189 24.207 145.37 63.551c-28.042 48.661-83.152 78.642-145.37 78.642zm154.949-98.649c-34.093-39.555-91.747-63.544-154.949-63.544s-120.856 23.989-154.949 63.544c-6.779-17.45-10.205-36.202-10.205-55.948 0-72.115 45.365-192.718 108.046-226.56l-24.366 53.287c-1.415 3.096-1.159 6.698.68 9.563 1.84 2.864 5.01 4.596 8.414 4.596h50.446c5.523 0 10-4.478 10-10s-4.477-10-10-10h-34.878l56.812-124.242 63.286 138.4c1.68 3.676 5.307 5.845 9.101 5.844 1.391 0 2.805-.291 4.152-.907 5.022-2.297 7.232-8.23 4.935-13.253l-24.379-53.315c62.679 33.766 108.059 154.466 108.059 226.587 0 19.746-3.427 38.498-10.205 55.948z"/></g><g><g><g><g><path d="m279.46 178.29c-4.184 0-8.005-2.706-9.415-6.636-1.388-3.867-.2-8.332 2.939-10.986 3.284-2.777 8.088-3.143 11.748-.874 3.495 2.167 5.339 6.416 4.527 10.446-.927 4.611-5.084 8.05-9.799 8.05z"/></g></g></g><g><g><g><g><g><path d="m255.862 470.716c-11.325 0-22.649-4.31-31.271-12.932-3.905-3.905-3.905-10.237 0-14.143 3.905-3.904 10.237-3.904 14.143 0 4.575 4.575 10.658 7.096 17.128 7.096s12.553-2.521 17.128-7.096c3.905-3.904 10.237-3.904 14.143 0 3.905 3.905 3.905 10.237 0 14.143-8.622 8.621-19.947 12.932-31.271 12.932z"/></g></g></g></g><g><g><g><g><g><path d="m287.42 412.057c-5.523 0-10-4.478-10-10v-15.926c0-5.522 4.477-10 10-10s10 4.478 10 10v15.926c0 5.522-4.477 10-10 10z"/></g></g></g></g><g><g><g><g><path d="m224.58 412.057c-5.523 0-10-4.478-10-10v-15.926c0-5.522 4.477-10 10-10s10 4.478 10 10v15.926c0 5.522-4.478 10-10 10z"/></g></g></g></g></g></g><g><g><g><g><g><path d="m324.904 303.57c11.664-11.664 30.643-11.662 42.309.003 3.905 3.905 3.905 10.237 0 14.142s-10.237 3.905-14.142 0c-3.867-3.867-10.159-3.869-14.024-.003-3.905 3.905-10.237 3.905-14.142 0-3.906-3.905-3.906-10.236-.001-14.142z"/></g></g></g></g><g><g><g><g><path d="m187.318 303.57c3.905 3.905 3.905 10.237 0 14.142s-10.237 3.905-14.142 0c-3.866-3.866-10.157-3.864-14.024.003-3.905 3.905-10.237 3.905-14.142 0s-3.905-10.237 0-14.142c11.665-11.665 30.645-11.666 42.308-.003z"/></g></g></g></g></g></g></g></g></svg>