<svg id="Capa_1" enable-background="new 0 0 512.09 512.09" height="512" viewBox="0 0 512.09 512.09" width="512" xmlns="http://www.w3.org/2000/svg"><g><g><g><g><g><g><path clip-rule="evenodd" d="m72.712 221.292c-17.427-7.708-33.715-18.813-44.92-34.803-38.205-54.524-2.832-145.211-2.832-145.211s97.315-2.287 135.52 52.237c2.817 4.02 5.233 8.236 7.294 12.598" fill="#e5ae8c" fill-rule="evenodd"/></g></g></g><g><g><g><path clip-rule="evenodd" d="m90.84 181.171c-12.33-5.426-21.606-12.213-27.014-19.931-8.807-12.568-11.792-33.931-8.408-60.156.596-4.621 1.346-9.068 2.17-13.24 4.204.65 8.639 1.463 13.186 2.48 25.804 5.772 44.865 15.872 53.671 28.44 2.611 3.727 4.711 8.227 6.284 13.398" fill="#ffdede" fill-rule="evenodd"/></g></g></g></g><g><g><g><g><path clip-rule="evenodd" d="m439.379 221.292c17.427-7.708 33.715-18.813 44.92-34.803 38.205-54.524 2.832-145.211 2.832-145.211s-97.315-2.287-135.52 52.237c-2.817 4.02-5.233 8.236-7.294 12.598" fill="#e5ae8c" fill-rule="evenodd"/></g></g></g><g><g><g><path clip-rule="evenodd" d="m421.25 181.171c12.33-5.426 21.606-12.213 27.014-19.931 8.807-12.568 11.792-33.931 8.408-60.156-.596-4.621-1.346-9.068-2.17-13.24-4.204.65-8.639 1.463-13.186 2.48-25.804 5.772-44.865 15.872-53.671 28.44-2.611 3.727-4.711 8.227-6.284 13.398" fill="#ffdede" fill-rule="evenodd"/></g></g></g></g><g><g><g><path d="m256.799 396.646c-.114-.007-.371.101-.754.312-.384-.211-.64-.319-.754-.312-.906.057-28.061 20.137-50.83 33.908 6.118 23.184 27.232 40.278 52.339 40.278 24.824 0 45.745-16.711 52.126-39.498-23.022-13.779-51.203-34.63-52.127-34.688z" fill="#ff9c9b"/></g></g></g><g><g><g><g><path d="m210.922 92.328c-57.091 12.572-105.002 52.607-127.023 107.804-4.669 11.703-7.109 19.493-7.068 19.546-6.139 21.604-10.264 83.058-11.875 105.328-2.215 30.433-.244 65.181 18.382 90.744 8.874 12.173 21.408 20.886 35.757 25.401 16.886 5.308 45.275 6.591 62.251 1.169 20.208-6.454 72.68-45.595 73.945-45.675.114-.007.371.101.754.312.383-.211.64-.319.754-.312 1.266.08 53.737 39.221 73.945 45.675 16.976 5.421 45.365 4.139 62.251-1.169 14.348-4.514 26.883-13.228 35.757-25.401 18.626-25.563 20.597-60.311 18.382-90.744-1.611-22.27-5.736-83.724-11.875-105.328.041-.053-2.4-7.843-7.068-19.546-22.066-55.309-70.126-95.395-127.371-107.88-29.581-5.655-59.967-5.651-89.547.009z" fill="#ffd4b5"/></g></g></g></g><g><g><g><g><path clip-rule="evenodd" d="m256.799 391.713-31.619-34.197c-5.341-5.776-1.244-15.144 6.623-15.144h49.993c7.867 0 11.963 9.367 6.623 15.144z" fill="#ffbdbc" fill-rule="evenodd"/></g></g></g></g></g><g><g><g><g><g><g><path d="m388.205 357.687c-4.183 0-7.994-2.691-9.405-6.625-1.445-4.027-.097-8.707 3.319-11.305 3.153-2.399 7.495-2.701 10.959-.788 3.751 2.072 5.778 6.477 4.938 10.678-.926 4.623-5.099 8.04-9.811 8.04z"/></g></g></g></g><g><g><g><g><path d="m349.545 383.027c-4.18 0-8.006-2.709-9.415-6.635-1.393-3.881-.191-8.319 2.946-10.986 3.276-2.785 8.09-3.138 11.745-.873 3.493 2.164 5.335 6.419 4.524 10.445-.929 4.612-5.082 8.049-9.8 8.049z"/></g></g></g></g></g><g><g><g><g><g><path d="m123.885 357.687c-4.121 0-7.904-2.616-9.36-6.472-1.495-3.958-.261-8.579 3.017-11.255 3.246-2.651 7.878-2.972 11.475-.841 3.587 2.125 5.494 6.444 4.668 10.529-.934 4.618-5.082 8.039-9.8 8.039z"/></g></g></g></g><g><g><g><g><path d="m162.545 383.027c-4.183 0-7.996-2.709-9.405-6.635-1.39-3.873-.2-8.321 2.936-10.986 3.276-2.785 8.098-3.138 11.751-.873 3.496 2.167 5.332 6.414 4.528 10.445-.921 4.614-5.101 8.049-9.81 8.049z"/></g></g></g></g></g><path d="m496.447 37.644c-1.466-3.759-5.048-6.269-9.082-6.363-4.189-.092-103.136-1.743-143.944 56.496-1.477 2.107-2.878 4.299-4.197 6.562-11.536-5.116-23.675-9.109-36.273-11.857-5.394-1.174-10.724 2.244-11.901 7.64s2.243 10.725 7.64 11.901c54.59 11.906 99.529 49.968 120.214 101.815 3.96 9.927 6.245 16.906 6.649 18.244.027.11.057.221.088.33 5.511 19.39 9.514 75.292 11.223 99.164l.299 4.156c2.738 37.624-2.656 65.143-16.49 84.128-7.488 10.272-18.097 17.795-30.673 21.752-16.086 5.056-42.352 5.608-56.211 1.183-13.821-4.414-47.836-28.178-62.36-38.324-.774-.541-1.492-1.043-2.161-1.509l26.495-28.656c5.21-5.634 6.537-13.502 3.462-20.533-3.074-7.031-9.752-11.399-17.427-11.399h-49.993c-7.674 0-14.352 4.368-17.427 11.399s-1.748 14.899 3.461 20.533l25.905 28.016c-.918.639-1.94 1.353-3.081 2.15-14.524 10.147-48.538 33.909-62.358 38.323-13.86 4.427-40.127 3.872-56.208-1.182-12.581-3.958-23.188-11.48-30.676-21.751-13.834-18.986-19.228-46.506-16.49-84.134l.296-4.132c1.709-23.876 5.713-79.789 11.224-99.185.031-.108.06-.217.086-.325.403-1.334 2.69-8.32 6.651-18.248 20.635-51.722 65.452-89.757 119.886-101.744 5.394-1.188 8.803-6.522 7.616-11.916-1.188-5.395-6.525-8.808-11.917-7.615-12.465 2.745-24.48 6.711-35.904 11.779-1.32-2.264-2.723-4.458-4.199-6.565-40.808-58.238-139.748-56.593-143.945-56.497-4.034.095-7.615 2.604-9.082 6.363-1.524 3.906-36.849 96.345 3.959 154.584 10.414 14.863 25.55 27.079 45.029 36.357-4.63 25.611-7.736 68.985-9.354 91.582l-.295 4.113c-3.096 42.541 3.536 74.388 20.275 97.36 10.026 13.754 24.147 23.799 40.839 29.051 10.035 3.154 24.069 5.154 37.999 5.154 10.797 0 21.532-1.202 30.293-3.999 4.212-1.345 9.401-3.768 15.284-6.976 10.18 21.899 31.932 35.961 57.127 35.961 24.835 0 46.478-13.814 56.81-35.318 5.394 2.889 10.168 5.079 14.093 6.333 20.064 6.404 50.479 4.442 68.296-1.156 16.689-5.251 30.809-15.297 40.836-29.052 16.738-22.971 23.37-54.817 20.274-97.354l-.297-4.138c-1.618-22.593-4.724-65.956-9.353-91.562 19.48-9.278 34.615-21.494 45.029-36.357 40.809-58.238 5.484-150.676 3.96-154.582zm-408.113 131.187c-7.388-4-12.964-8.542-16.319-13.33-7.265-10.368-9.699-29.735-6.679-53.138.124-.957.256-1.923.397-2.896.962.199 1.915.404 2.858.615 23.026 5.15 40.399 14.051 47.664 24.42 1.151 1.643 2.191 3.532 3.109 5.646-11.935 11.394-22.389 24.382-31.03 38.683zm-52.353 11.92c-29.083-41.507-10.768-108.465-3.946-129.388 21.995.706 91.103 6.287 120.254 47.891.945 1.348 1.852 2.744 2.718 4.18-6.958 4.023-13.637 8.482-19.999 13.343-.749-1.31-1.54-2.562-2.374-3.752-10.389-14.827-31.025-26.052-59.677-32.46-4.461-.998-9.119-1.875-13.843-2.604-5.297-.822-10.299 2.686-11.337 7.946-.927 4.697-1.693 9.372-2.277 13.896-3.758 29.12-.253 52.348 10.136 67.174 5.208 7.433 13.019 13.971 23.279 19.501-1.524 3.262-2.96 6.579-4.304 9.948-2.024 5.073-3.603 9.34-4.714 12.454-14.702-7.522-26.091-16.963-33.916-28.129zm243.575 171.621-22.756 24.611-22.756-24.611zm-22.757 108.46c-18.204 0-33.28-10.135-39.823-26.277 10.971-6.964 23.06-15.249 35.139-23.688 1.349-.942 2.715-1.897 3.93-2.741 1.214.844 2.58 1.798 3.928 2.739 12.517 8.745 25.044 17.325 36.327 24.44-6.726 15.688-21.662 25.527-39.501 25.527zm135.928-330.689c.918-2.112 1.956-3.998 3.107-5.64 7.266-10.369 24.639-19.27 47.665-24.42.942-.211 1.896-.416 2.857-.615.142.973.274 1.938.398 2.896 3.02 23.4.586 42.769-6.68 53.137-3.354 4.787-8.931 9.329-16.317 13.329-8.641-14.305-19.094-27.294-31.03-38.687zm83.382 50.608c-7.825 11.167-19.214 20.608-33.915 28.13-1.111-3.114-2.69-7.381-4.715-12.454-1.344-3.369-2.78-6.686-4.304-9.948 10.26-5.53 18.071-12.068 23.278-19.501 10.39-14.826 13.895-38.055 10.137-67.172-.584-4.526-1.35-9.203-2.277-13.899-1.039-5.259-6.039-8.763-11.337-7.945-4.722.729-9.379 1.605-13.843 2.604-28.651 6.408-49.288 17.633-59.678 32.46-.833 1.188-1.623 2.438-2.371 3.746-6.362-4.861-13.042-9.319-20-13.342.865-1.434 1.771-2.829 2.715-4.176 29.08-41.5 98.252-47.149 120.258-47.882 6.827 20.937 25.131 87.878-3.948 129.379z"/><g><g><g><g><path d="m256.045 87.441v.002" fill="#ffd4b5"/></g></g></g><g><g><g><path d="m256.045 97.443c-4.191 0-8.031-2.712-9.429-6.664-1.414-3.995-.089-8.561 3.233-11.187 3.289-2.6 7.999-2.849 11.541-.605 3.45 2.186 5.25 6.363 4.472 10.371-.901 4.641-5.094 8.085-9.817 8.085z"/></g></g></g></g><g><g><g><g><g><path d="m324.949 273.618c11.664-11.664 30.643-11.662 42.309.003 3.905 3.905 3.905 10.237 0 14.142s-10.237 3.905-14.142 0c-3.867-3.867-10.159-3.869-14.024-.003-3.905 3.905-10.237 3.905-14.142 0-3.906-3.905-3.906-10.236-.001-14.142z"/></g></g></g></g><g><g><g><g><path d="m187.363 273.618c3.905 3.905 3.905 10.237 0 14.142s-10.237 3.905-14.142 0c-3.866-3.866-10.157-3.864-14.024.003-3.905 3.905-10.237 3.905-14.142 0s-3.905-10.237 0-14.142c11.666-11.665 30.645-11.666 42.308-.003z"/></g></g></g></g></g></g></g></svg>