<svg id="Capa_1" enable-background="new 0 0 512 512" height="512" viewBox="0 0 512 512" width="512" xmlns="http://www.w3.org/2000/svg"><g><g><g><g><path d="m98.938 431.454-32.165-4.785-.005-.048c-2.877-29.235-18.928-55.563-43.598-71.513l.027-.083c8.979-27.822 4.072-58.262-13.193-81.853l-.005-.006 27.784-40.667-14.224-47.175.001-.001c24.653-19.061 39.461-48.172 40.35-79.323l.001-.041 46.597-15.795 17.942-45.871c31.225 1.067 61.384-11.428 82.705-34.265l.027-.028 44.817 20.287 44.817-20.287.027.029c21.321 22.836 51.48 35.331 82.704 34.264h.001l17.942 45.871 46.597 15.795.001.039c.888 31.151 15.696 60.263 40.35 79.325l-14.224 47.175 27.784 40.667c-17.267 23.594-22.173 54.038-13.191 81.862l.025.077c-24.668 15.952-40.716 42.283-43.59 71.518l-.004.046-32.92 4.899" fill="#e5ae8c"/></g></g><g><g><g><g><g><path clip-rule="evenodd" d="m431.241 348.539c0 1.45-.018 2.899-.053 4.348-.304 12.334-1.902 23.998-4.665 34.956-18.3 72.582-87.696 114.157-170.509 114.157-96.776 0-175.228-56.775-175.228-153.461 0-96.685 78.452-184.548 175.228-184.548 86.371 0 158.147 69.986 172.582 153.768 1.738 10.092 2.645 20.385 2.645 30.78z" fill="#f5eeec" fill-rule="evenodd"/></g></g></g></g><g><g><g><path clip-rule="evenodd" d="m194.884 173.328c-5.774-24.487-27.767-42.712-54.017-42.712-30.65 0-55.497 24.847-55.497 55.497 0 21.559 12.293 40.246 30.251 49.436" fill="#e7e9ef" fill-rule="evenodd"/></g></g><g><g><g><circle cx="255.999" cy="384.2" fill="#b6bccf" r="28.815"/></g></g><g><g><g><path clip-rule="evenodd" d="m396.399 235.538c17.947-9.193 30.23-27.875 30.23-49.425 0-30.65-24.847-55.497-55.497-55.497-26.247 0-48.238 18.22-54.015 42.702" fill="#e7e9ef" fill-rule="evenodd"/></g></g></g></g></g></g></g><g><path d="m510.256 267.524-25.086-36.718 12.844-42.596c1.196-3.968-.179-8.263-3.458-10.798-22.372-17.297-35.665-43.431-36.471-71.697-.103-4.194-2.813-7.88-6.787-9.227l-42.19-14.301-16.248-41.536c-1.545-3.951-5.396-6.512-9.654-6.352-28.33.979-55.699-10.365-75.079-31.123-2.927-3.135-7.523-4.055-11.434-2.287l-40.694 18.421-40.693-18.421c-3.908-1.767-8.533-.821-11.46 2.315-19.353 20.729-46.687 32.045-75.056 31.095-4.2-.137-8.108 2.401-9.654 6.352l-16.246 41.536-42.19 14.301c-3.96 1.342-6.668 5.047-6.787 9.227-.807 28.268-14.1 54.4-36.473 71.698-3.278 2.535-4.653 6.83-3.457 10.798l12.844 42.596-25.085 36.717c-2.415 3.534-2.298 8.197.227 11.602 15.295 20.934 19.673 48.154 11.702 72.854-1.423 4.32.249 9.057 4.068 11.526 22.239 14.379 36.481 37.74 39.082 64.159.456 4.558 3.949 8.223 8.479 8.897l32.164 4.784c.696.103 1.385.132 2.061.093 7.371 10.136 16.119 19.432 26.202 27.788 33.284 27.582 79.553 42.773 130.286 42.773 67.634 0 124.162-26.188 156.32-70.432.481-.001.967-.037 1.457-.11l32.92-4.898c4.507-.67 7.99-4.302 8.473-8.833.002-.026.01-.099.013-.126 2.59-26.355 16.829-49.719 39.067-64.099 3.801-2.458 5.452-7.239 4.062-11.547-7.972-24.696-3.581-51.942 11.744-72.883 2.503-3.421 2.578-8.048.187-11.548zm-32.978 83.449c-21.795 16.324-36.34 40.106-40.942 66.91l-10.737 1.598c2.419-4.968 4.574-10.103 6.451-15.398.261-.734.517-1.473.767-2.213 1.764-5.233-1.049-10.906-6.282-12.671-5.235-1.763-10.906 1.05-12.671 6.282-.217.645-.44 1.285-.665 1.922-20.685 58.35-80.914 94.597-157.186 94.597-82.242 0-165.228-44.359-165.228-143.461 0-92.983 77.209-174.548 165.228-174.548 74.87 0 142.463 57.001 160.719 135.537 1.25 5.379 6.625 8.725 12.005 7.476 5.379-1.25 8.727-6.625 7.476-12.005-5.368-23.091-14.919-45.148-27.91-64.939 17.658-12.134 28.326-32.121 28.326-53.947 0-36.115-29.382-65.497-65.498-65.497-27.642 0-51.746 16.992-61.256 42.233-17.437-5.824-35.604-8.858-53.861-8.858-18.481 0-36.612 2.983-53.935 8.741-9.541-25.177-33.611-42.116-61.212-42.116-36.116 0-65.498 29.382-65.498 65.497 0 21.844 10.682 41.841 28.363 53.972-21.187 32.361-32.946 70.459-32.946 108.454 0 25.932 5.286 49.797 15.556 70.932l-10.67-1.587c-4.612-26.814-19.16-50.589-40.947-66.907 6.442-26.499 1.867-54.681-12.632-77.786l23.947-35.05c1.706-2.497 2.19-5.633 1.317-8.528l-12.302-40.803c22.104-19.328 35.802-46.232 38.435-75.54l40.229-13.636c2.795-.947 5.028-3.08 6.103-5.828l15.446-39.491c29.126-.769 56.938-12.28 78.114-32.343l38.493 17.425c2.621 1.186 5.627 1.186 8.248 0l38.492-17.424c21.153 20.054 48.975 31.575 78.116 32.343l15.445 39.491c1.075 2.748 3.309 4.881 6.104 5.828l40.224 13.635c2.613 29.27 16.315 56.196 38.439 75.541l-12.303 40.801c-.873 2.896-.389 6.03 1.317 8.528l23.947 35.051c-14.496 23.104-19.068 51.283-12.626 77.782zm-381.909-164.86c0-25.087 20.41-45.497 45.498-45.497 19.271 0 36.063 11.88 42.62 29.507-21.519 10.007-41.413 24.512-58.696 43.071-3.225 3.463-6.321 7.036-9.283 10.709-12.542-8.4-20.139-22.439-20.139-37.79zm301.142 37.775c-7.423-9.192-15.65-17.732-24.59-25.467-13.343-11.545-27.995-21-43.457-28.175 6.525-17.695 23.351-29.63 42.665-29.63 25.088 0 45.498 20.41 45.498 45.497.002 15.341-7.587 29.374-20.116 37.775z"/><g><g><g><g><path d="m431.209 362.74c-4.172 0-8.01-2.714-9.405-6.642-1.376-3.872-.211-8.327 2.936-10.99 3.281-2.777 8.094-3.124 11.746-.865 3.504 2.168 5.337 6.404 4.533 10.445-.918 4.61-5.11 8.052-9.81 8.052z"/></g></g></g></g><g><g><g><g><g><path d="m255.999 423.014c-21.403 0-38.815-17.412-38.815-38.814 0-21.403 17.412-38.815 38.815-38.815s38.815 17.412 38.815 38.815c0 21.402-17.412 38.814-38.815 38.814zm0-57.629c-10.375 0-18.815 8.44-18.815 18.815 0 10.374 8.44 18.814 18.815 18.814s18.815-8.44 18.815-18.814c0-10.375-8.44-18.815-18.815-18.815z"/></g></g></g></g><g><g><g><g><g><path d="m324.903 323.57c11.664-11.664 30.643-11.662 42.309.003 3.905 3.905 3.905 10.237 0 14.142s-10.237 3.905-14.142 0c-3.867-3.867-10.159-3.869-14.024-.003-3.905 3.905-10.237 3.905-14.142 0-3.906-3.905-3.906-10.236-.001-14.142z"/></g></g></g></g><g><g><g><g><path d="m187.317 323.57c3.905 3.905 3.905 10.237 0 14.142s-10.237 3.905-14.142 0c-3.866-3.866-10.157-3.864-14.024.003-3.905 3.905-10.237 3.905-14.142 0s-3.905-10.237 0-14.142c11.665-11.665 30.645-11.666 42.308-.003z"/></g></g></g></g></g></g></g></g></svg>