<svg id="Capa_1" enable-background="new 0 0 512.003 512.003" height="512" viewBox="0 0 512.003 512.003" width="512" xmlns="http://www.w3.org/2000/svg"><g><g><g><g><g><g><g><path clip-rule="evenodd" d="m448.517 259.124c0 62.643-45.245 133.703-93.217 155.137-29.649 13.274-61.498 27.758-100.27 27.758-36.637 0-65.474-9.952-94.133-21.751-50.748-20.871-99.354-96.366-99.354-161.144 0-101.359 91.991-193.471 193.487-193.471s193.487 92.112 193.487 193.471z" fill="#ffd4b5" fill-rule="evenodd"/></g></g></g></g><g><g><g><path d="m255.031 321.104c-30.481 0-81.282 42.078-81.282 94.675 0 42.865 47.238 36.824 70.217 27.426 7.135-2.917 14.994-2.917 22.128 0 22.981 9.398 70.218 15.439 70.218-27.426.001-52.597-50.801-94.675-81.281-94.675z" fill="#b6bccf"/></g></g><g><g><g><ellipse cx="160.898" cy="243.718" fill="#f5eeec" rx="52.791" ry="52.78"/></g></g></g><g><g><g><ellipse cx="349.163" cy="243.718" fill="#f5eeec" rx="52.791" ry="52.78"/></g></g></g></g><g><g><g><g><g><path d="m10.078 113.689c.813-28.462 7.878-51.604 7.878-51.604 53.778 0 95.91 29.226 120.663 46.216-11.263 9.258-21.421 23.104-30.247 38.632-24.416-15.411-58.004-32.445-98.294-33.244z" fill="#cfd3df"/></g></g></g></g><g><g><g><path d="m68.694 209.964c-12.834-6.11-31.837-11.78-42.772-28.398-13.306-20.223-16.479-45.67-15.845-67.878 37.363.741 68.962 15.444 92.828 29.866" fill="#ffbe90"/></g></g></g></g><g><g><g><g><g><path d="m501.926 113.689c-.813-28.462-7.878-51.604-7.878-51.604-53.778 0-95.91 29.226-120.663 46.216 11.263 9.258 21.421 23.104 30.247 38.632 24.415-15.411 58.004-32.445 98.294-33.244z" fill="#cfd3df"/></g></g></g></g><g><g><g><path d="m443.309 209.964c12.834-6.11 31.837-11.78 42.772-28.398 13.306-20.223 16.479-45.67 15.845-67.878-37.363.741-68.962 15.444-92.829 29.866" fill="#ffbe90"/></g></g></g></g></g></g><g><g><g><g><g><path d="m321.062 236.647c12.674-12.674 33.296-12.674 45.971 0 3.905 3.905 3.905 10.237 0 14.142s-10.237 3.905-14.142 0c-4.877-4.877-12.811-4.877-17.687 0-3.905 3.905-10.237 3.905-14.142 0s-3.906-10.236 0-14.142z"/></g></g></g></g><g><g><g><g><path d="m188.999 236.647c3.905 3.905 3.905 10.237 0 14.142s-10.237 3.905-14.142 0c-4.876-4.876-12.81-4.876-17.687.001-3.905 3.905-10.237 3.905-14.142 0s-3.905-10.237 0-14.142c12.675-12.675 33.297-12.675 45.971-.001z"/></g></g></g></g><path d="m511.922 113.404c-.841-29.471-8.006-53.241-8.31-54.238-1.284-4.207-5.166-7.08-9.564-7.08-53.442 0-95.159 26.687-121.436 44.623-21.165-15.978-44.767-27.854-69.322-34.634-5.325-1.464-10.832 1.653-12.301 6.979-1.47 5.323 1.654 10.83 6.977 12.301 78.815 21.761 140.553 99.849 140.553 177.774 0 60.518-35.855 117.52-92.533 148.968-4.578-54.197-56.522-96.99-90.956-96.99-34.433 0-86.374 42.79-90.956 96.984-56.617-31.461-92.534-88.649-92.534-148.961 0-78.023 61.816-156.133 140.73-177.823 5.325-1.464 8.456-6.968 6.992-12.293s-6.968-8.455-12.293-6.992c-24.272 6.671-47.616 18.321-68.601 33.992-26.329-17.924-67.658-43.929-120.412-43.929-4.398 0-8.28 2.873-9.564 7.08-.305.997-7.469 24.768-8.311 54.238-.854 29.943 5.029 54.726 17.488 73.66 10.517 15.982 27.126 23.304 39.404 28.624-3.584 14.376-5.433 28.958-5.433 43.439 0 36.602 11.419 72.429 33.022 103.606 20.279 29.266 48.394 53.035 81.38 68.818 3.23 10.537 9.479 16.855 14.984 20.552 8.559 5.747 19.096 7.815 29.567 7.815 14.277 0 28.429-3.847 37.255-7.456 4.695-1.92 9.865-1.92 14.559-.001 15.302 6.257 46.596 13.222 66.826-.358 5.505-3.697 11.753-10.015 14.983-20.551 69.634-33.297 114.404-100.559 114.404-172.424 0-14.225-1.785-28.548-5.246-42.678.442-.192.888-.385 1.34-.581 12.316-5.335 29.185-12.641 39.822-28.805 12.457-18.934 18.341-43.716 17.486-73.659zm-389.675-4.138c-7.433 6.711-14.475 13.962-21.046 21.701-27.672-15.701-54.195-24.504-80.592-26.737 1.078-13.403 3.37-24.91 5.02-31.931 40.295 2.24 73.618 21.65 96.618 36.967zm-87.97 66.804c-8.771-13.329-13.531-30.724-14.196-51.806 22.319 2.083 44.968 9.562 68.733 22.689-11.007 15.617-19.729 32.295-25.959 49.483-10.461-4.571-21.767-10.015-28.578-20.366zm283.709 259.429c-11.013 7.393-32.537 4.817-48.107-1.55-9.575-3.916-20.121-3.914-29.699 0-15.569 6.368-37.09 8.944-48.104 1.55-5.603-3.762-8.327-10.213-8.327-19.72 0-41.997 36.265-75.245 61.282-82.973v56.101c0 6.291-5.118 11.409-11.408 11.409s-11.408-5.118-11.408-11.409c0-5.522-4.477-10-10-10s-10 4.478-10 10c0 17.319 14.09 31.409 31.408 31.409 8.265 0 15.794-3.209 21.408-8.447 5.614 5.238 13.143 8.447 21.408 8.447 17.318 0 31.408-14.09 31.408-31.409 0-5.522-4.477-10-10-10s-10 4.478-10 10c0 6.291-5.118 11.409-11.408 11.409-6.291 0-11.408-5.118-11.408-11.409v-56.101c25.017 7.728 61.282 40.976 61.282 82.973-.001 9.507-2.724 15.958-8.327 19.72zm70.647-325.483c23.034-15.427 56.789-35.442 97.749-37.718 1.65 7.005 3.939 18.489 5.015 31.932-26.816 2.268-53.761 11.315-81.909 27.487-6.509-7.732-13.486-14.983-20.855-21.701zm89.094 66.054c-7.179 10.909-19.348 16.367-30.26 21.098-6.146-17.16-14.773-33.821-25.678-49.435 24.277-13.612 47.377-21.345 70.134-23.468-.665 21.081-5.425 38.476-14.196 51.805z"/><g><g><g><g><g><path d="m349.163 306.498c-34.623 0-62.79-28.163-62.79-62.78 0-34.616 28.168-62.779 62.79-62.779 34.623 0 62.791 28.163 62.791 62.779 0 34.617-28.168 62.78-62.791 62.78zm0-105.559c-23.595 0-42.79 19.19-42.79 42.779s19.196 42.78 42.79 42.78c23.595 0 42.791-19.191 42.791-42.78s-19.195-42.779-42.791-42.779z"/></g></g></g></g><g><g><g><g><path d="m160.898 306.498c-34.623 0-62.791-28.163-62.791-62.78 0-34.616 28.168-62.779 62.791-62.779s62.79 28.163 62.79 62.779c0 34.617-28.167 62.78-62.79 62.78zm0-105.559c-23.595 0-42.791 19.19-42.791 42.779s19.196 42.78 42.791 42.78 42.79-19.191 42.79-42.78-19.196-42.779-42.79-42.779z"/></g></g></g></g></g><g><g><g><g><path d="m255.032 75.657c-4.171 0-7.989-2.7-9.402-6.615-1.382-3.825-.248-8.217 2.809-10.902 3.271-2.874 8.171-3.277 11.87-.979 3.513 2.181 5.36 6.477 4.51 10.525-.961 4.574-5.099 7.971-9.787 7.971z"/></g></g></g></g></g></g></svg>