<svg id="Capa_1" enable-background="new 0 0 511.99 511.99" height="512" viewBox="0 0 511.99 511.99" width="512" xmlns="http://www.w3.org/2000/svg"><g><g><g><g><g><g><path d="m408.623 348.369c35.82 11.137 86.278 9.697 92.458-19.732 7.442-35.449-33.247-65.523-25.734-99.218 16.569-74.307-12.951-185.074-126.365-133.885" fill="#e5ae8c"/></g></g></g><g><g><g><path d="m103.237 348.409c-35.811 11.093-86.155 9.621-92.328-19.772-7.442-35.449 33.247-65.523 25.734-99.218-16.447-73.759 14.489-181.472 125.871-132.99" fill="#e5ae8c"/></g></g></g><g><g><g><g><path clip-rule="evenodd" d="m425.853 275.802c0 99.222-70.522 115.096-169.858 115.096s-169.859-15.874-169.859-115.096 67.854-207.896 169.859-207.896 169.858 108.675 169.858 207.896z" fill="#ffd4b5" fill-rule="evenodd"/></g></g></g></g></g><g><g><g><path d="m311.188 415.566c8.372 5.298 18.161 8.189 28.071 8.187 11.408 0 22.907-3.601 32.673-11.03 24.233-18.442 28.019-53.548 9.006-77.336-1.094-1.365-2.22-2.703-3.376-4.025-45.332-53.534-74.564-16.853-97.562-104.236-.173-.656-.568-1.509-1.139-2.51-9.956-17.482-35.492-17.482-45.45-.001-.571 1.002-.967 1.855-1.139 2.512-23.002 87.383-52.23 50.701-97.562 104.236-1.152 1.322-2.285 2.66-3.375 4.025-19.017 23.788-15.227 58.894 9.009 77.336 9.762 7.433 21.262 11.03 32.667 11.03 9.909.002 19.699-2.889 28.071-8.187" fill="#f5eeec"/></g></g><g><g><g><path clip-rule="evenodd" d="m256.137 350.902c-12.1 0-21.91-9.809-21.91-21.91v-9.617h43.819v9.617c0 12.1-9.809 21.91-21.909 21.91z" fill="#b6bccf" fill-rule="evenodd"/></g></g></g></g><g><g><g><g><path d="m311.188 415.566c-17.153-10.856-33.614-24.823-55.052-24.823s-37.893 13.967-55.052 24.823c-2.042 1.292-4.168 2.44-6.359 3.439 15.724 15.493 37.31 25.054 61.129 25.054 23.91 0 45.569-9.634 61.308-25.232-2.056-.957-4.053-2.045-5.974-3.261z" fill="#ffbe90"/></g></g></g></g></g><g><g><g><g><g><path d="m256.137 360.901c-17.595 0-31.91-14.314-31.91-31.909v-9.617c0-5.523 4.477-10 10-10h43.819c5.523 0 10 4.477 10 10v9.617c0 17.595-14.314 31.909-31.909 31.909zm-11.904-31.526c.203 6.39 5.465 11.526 11.903 11.526 6.439 0 11.7-5.137 11.903-11.526z"/></g></g></g></g><path d="m496.877 273.401c-7.564-14.722-14.708-28.627-11.77-41.806 10.418-46.719 4.264-111.133-33.864-142.162-18.112-14.74-50.751-27.256-103.835-4.14-13.685-9.682-28.462-16.779-44.099-21.097-5.322-1.464-10.831 1.654-12.301 6.978s1.654 10.831 6.977 12.302c43.13 11.91 70.544 46.205 85.947 72.878 20.287 35.13 31.922 78.667 31.922 119.449 0 28.729-6.194 50.647-18.877 66.571-2.178-4.665-4.931-9.106-8.234-13.239-1.128-1.409-2.306-2.814-3.599-4.295-19.315-22.788-36.427-30.652-50.179-36.974-19.618-9.017-32.578-14.974-45.292-63.28-.396-1.51-1.069-3.071-2.121-4.919-6.477-11.373-18.219-18.163-31.413-18.164h-.001c-13.193 0-24.937 6.79-31.414 18.161-1.05 1.844-1.725 3.407-2.121 4.916-12.718 48.312-25.678 54.269-45.295 63.286-13.753 6.321-30.867 14.188-50.183 36.98-1.394 1.6-2.541 2.969-3.6 4.297-3.354 4.195-6.14 8.709-8.333 13.454-12.803-15.944-19.056-37.935-19.056-66.794 0-40.812 11.655-84.375 31.977-119.522 15.428-26.683 42.883-60.982 86.065-72.853 5.325-1.464 8.456-6.968 6.991-12.293-1.465-5.326-6.969-8.455-12.293-6.992-16.088 4.423-31.267 11.785-45.287 21.875-52.495-21.882-84.894-8.98-102.92 5.892-37.682 31.089-43.929 94.202-33.787 139.686 2.939 13.179-4.206 27.084-11.77 41.806-8.657 16.851-18.47 35.949-13.99 57.291 2.172 10.339 8.569 18.893 18.502 24.734 11.315 6.656 26.292 9.363 41.798 9.363 14.163 0 28.767-2.261 41.415-5.835 2.062 2.283 4.245 4.467 6.55 6.555-.259 4.058-.139 8.173.372 12.304 2.129 17.226 10.841 32.45 24.528 42.864 11.232 8.553 24.624 13.074 38.722 13.074h.018c6.658 0 13.241-1.075 19.524-3.158 17.61 15.178 39.845 23.465 63.302 23.465 23.538 0 45.828-8.334 63.46-23.6 6.404 2.172 13.127 3.293 19.928 3.293h.018c14.096 0 27.487-4.521 38.729-13.072 13.686-10.416 22.396-25.638 24.526-42.862.521-4.214.636-8.413.356-12.551 2.206-2.014 4.299-4.117 6.281-6.311 12.657 3.578 27.258 5.84 41.42 5.84 15.49 0 30.456-2.706 41.772-9.354 9.946-5.843 16.352-14.4 18.525-24.749 4.48-21.342-5.333-40.441-13.991-57.292zm-467.114 64.788c-5.091-2.995-8.057-6.791-9.068-11.607-3.023-14.399 4.375-28.797 12.206-44.04 8.857-17.237 18.014-35.061 13.501-55.3-9.137-40.979-2.799-95.324 26.995-119.905 17.999-14.85 42.38-17.067 72.596-6.641-13.116 12.565-24.934 27.829-35.194 45.575-22.028 38.098-34.662 85.311-34.662 129.532 0 26.384 4.714 48.123 14.316 65.679-23.569 5.337-47.949 4.199-60.69-3.293zm240.568-108.512c0-.001 0-.002 0-.003zm-14.478 204.382c-15.881 0-31.057-4.783-43.852-13.664 1.157-.767 2.304-1.533 3.436-2.29 13.356-8.929 25.972-17.362 40.699-17.362 14.733 0 27.354 8.438 40.717 17.373 1.032.689 2.076 1.388 3.13 2.088-12.851 9.003-28.126 13.855-44.13 13.855zm126.812-58.695c-1.463 11.833-7.425 22.275-16.788 29.398-7.729 5.881-16.934 8.989-26.621 8.989h-.012c-6.074 0-12.067-1.325-17.604-3.866-.085-.043-.171-.084-.257-.125-1.669-.777-3.301-1.668-4.849-2.647-2.83-1.791-5.616-3.653-8.565-5.625-14.545-9.725-31.03-20.747-51.833-20.747-20.796 0-37.275 11.016-51.814 20.735-2.951 1.972-5.738 3.836-8.57 5.628-.005.003-.01.006-.016.01-.208.132-.417.262-.628.39-1.457.886-2.978 1.692-4.532 2.401-.084.038-.166.078-.249.118-5.453 2.451-11.337 3.728-17.303 3.728h-.012c-9.687 0-18.888-3.107-26.612-8.988-9.366-7.127-15.33-17.569-16.792-29.403-1.505-12.174 1.883-24.152 9.545-33.736.893-1.119 1.877-2.292 3.098-3.692.031-.036.062-.072.092-.108 16.463-19.441 30.115-25.716 43.318-31.784 22.04-10.13 41.081-18.885 56.188-76.008.049-.099.129-.251.253-.468 2.875-5.047 8.122-8.061 14.036-8.061 5.914.001 11.16 3.014 14.032 8.056.125.219.206.374.255.473 15.105 57.128 34.146 65.877 56.187 76.008 13.203 6.068 26.856 12.343 43.319 31.784.034.04.068.08.102.119 1.124 1.285 2.138 2.494 3.094 3.688 7.656 9.578 11.043 21.558 9.538 33.733zm108.63-48.783c-1.012 4.82-3.983 8.619-9.082 11.615-12.755 7.492-37.118 8.624-60.677 3.287 9.603-17.556 14.317-39.294 14.317-65.68 0-44.189-12.612-91.371-34.603-129.451-10.525-18.225-22.693-33.835-36.223-46.595 30.759-11.283 55.477-9.553 73.591 5.19 30.139 24.526 36.379 80.088 26.968 122.296-4.513 20.239 4.645 38.063 13.501 55.3 7.833 15.242 15.231 29.64 12.208 44.038z"/><g><g><g><g><path d="m255.995 77.902c-4.066 0-7.792-2.551-9.29-6.323-1.538-3.872-.443-8.445 2.696-11.193 3.188-2.79 7.922-3.248 11.591-1.137 3.657 2.104 5.653 6.469 4.813 10.613-.936 4.614-5.101 8.04-9.81 8.04z"/></g></g></g></g><g><g><g><g><g><path d="m324.899 243.553c11.664-11.664 30.643-11.662 42.309.003 3.905 3.905 3.905 10.237 0 14.142s-10.237 3.905-14.142 0c-3.867-3.867-10.159-3.869-14.024-.003-3.905 3.905-10.237 3.905-14.142 0-3.907-3.905-3.907-10.237-.001-14.142z"/></g></g></g></g><g><g><g><g><path d="m187.313 243.553c3.905 3.905 3.905 10.237 0 14.142s-10.237 3.905-14.142 0c-3.866-3.866-10.157-3.864-14.024.003-3.905 3.905-10.237 3.905-14.142 0s-3.905-10.237 0-14.142c11.665-11.665 30.644-11.667 42.308-.003z"/></g></g></g></g></g></g></g></svg>