<svg id="Capa_1" enable-background="new 0 0 512.109 512.109" height="512" viewBox="0 0 512.109 512.109" width="512" xmlns="http://www.w3.org/2000/svg"><g><g><g><g><g><g><path clip-rule="evenodd" d="m460.557 283.41c7.335-5.06 14.02-11.069 19.665-18.2 41.321-52.202 11.299-144.799 11.299-144.799s-64.393-5.284-110.601 20.986" fill="#e5ae8c" fill-rule="evenodd"/></g></g></g><g><g><g><path clip-rule="evenodd" d="m445.502 236.89c26.216-37.866 11.102-70.76 11.102-70.76-9.254.891-19.828-1.175-45.641 11.098" fill="#ffdede" fill-rule="evenodd"/></g></g></g></g><g><g><g><g><path clip-rule="evenodd" d="m51.556 283.412c-7.336-5.06-14.022-11.07-19.668-18.203-41.321-52.202-11.299-144.799-11.299-144.799s62.506-5.129 108.543 19.844" fill="#e5ae8c" fill-rule="evenodd"/></g></g></g><g><g><g><path clip-rule="evenodd" d="m64.433 233.515c-26.216-37.866-8.929-67.385-8.929-67.385 9.038.87 17.732-2.038 42.477 9.304" fill="#ffdede" fill-rule="evenodd"/></g></g></g></g><g><g><g><g><path clip-rule="evenodd" d="m465.425 354.122c0 21.53-4.45 40.47-12.44 56.97-30.75 63.56-113.91 90.96-196.93 90.96s-166.18-27.4-196.93-90.96c-7.99-16.5-12.44-35.44-12.44-56.97 0-104.46 37.805-239.412 209.37-239.412 169 0 209.37 134.952 209.37 239.412z" fill="#ffbe90" fill-rule="evenodd"/></g></g></g></g><g><g><g><path clip-rule="evenodd" d="m452.984 411.092c-30.75 63.56-113.91 90.96-196.93 90.96s-166.18-27.4-196.93-90.96c3.77-39.47 14.94-97.962 32.62-130.852 35.41-65.86 130.36-74.62 164.31-8 33.95-66.62 128.9-57.86 164.31 8 17.68 32.89 28.85 91.382 32.62 130.852z" fill="#f5eeec" fill-rule="evenodd"/></g></g></g><g><g><g><path clip-rule="evenodd" d="m256.055 390.111c-13.224 0-23.944-10.72-23.944-23.944v-10.789h47.889v10.789c-.001 13.224-10.721 23.944-23.945 23.944z" fill="#ffbdbc" fill-rule="evenodd"/></g></g></g></g><g><path d="m501.033 117.327c-1.244-3.838-4.674-6.553-8.695-6.882-2.53-.209-57.776-4.436-104.217 16.154l28.524-29.298c2.012-2.066 3.033-4.9 2.803-7.774l-1.253-15.639 30.597.242h.08c5.24 0 9.598-4.049 9.974-9.285l3.4-47.407c.395-5.509-3.751-10.295-9.26-10.69-5.502-.384-10.294 3.751-10.689 9.259l-2.729 38.048-22.976-.182-3.575-44.617c-.44-5.505-5.246-9.603-10.767-9.169-5.505.441-9.61 5.262-9.169 10.767l4.886 60.968-22.784-11.528-13.248-31.605c-2.135-5.094-7.992-7.49-13.089-5.357-5.093 2.135-7.491 7.995-5.357 13.088l14.671 35c.919 2.191 2.588 3.984 4.708 5.057l30.911 15.64-30.919 31.758c-17.809-8.244-38.024-12.924-60.847-12.924-5.522 0-10 4.477-10 10s4.478 10 10 10c50.786 0 90.761 26.28 118.814 78.109 21.668 40.034 34.604 94.263 34.604 145.062 0 1.49-.023 2.97-.069 4.441-6.096-31.127-15.03-62.304-26.188-83.062-9.954-18.513-24.774-33.818-42.858-44.261-16.878-9.747-35.784-14.881-54.755-14.881-.386 0-.772.002-1.157.006-17.047.188-33.473 4.635-47.501 12.861-10.53 6.175-19.517 14.239-26.848 24.074-7.331-9.835-16.317-17.899-26.848-24.074-14.029-8.226-30.455-12.673-47.502-12.861-.386-.004-.77-.006-1.156-.006-18.97 0-37.879 5.136-54.756 14.881-18.083 10.443-32.902 25.748-42.857 44.262-11.158 20.757-20.091 51.934-26.187 83.061-.046-1.471-.069-2.952-.069-4.441 0-22.848 4.311-223.226 153.612-223.226 5.523 0 10-4.477 10-10s-4.477-10-10-10c-22.427 0-43.129 4.085-61.846 12.176l-30.118-30.954 30.915-15.641c2.12-1.073 3.789-2.866 4.708-5.057l14.671-35c2.135-5.093-.264-10.953-5.357-13.088-5.095-2.133-10.953.263-13.089 5.357l-13.248 31.605-22.784 11.528 4.886-60.968c.441-5.505-3.664-10.326-9.169-10.767-5.507-.434-10.326 3.665-10.767 9.169l-3.575 44.617-22.976.182-2.729-38.048c-.396-5.509-5.179-9.644-10.69-9.259-5.509.395-9.654 5.181-9.26 10.69l3.399 47.407c.376 5.235 4.733 9.285 9.974 9.285h.08l30.597-.242-1.253 15.639c-.23 2.874.79 5.707 2.801 7.772l28.495 29.287c-46.449-20.578-101.696-16.347-104.186-16.141-4.022.33-7.451 3.044-8.695 6.882-1.293 3.989-31.165 98.33 12.971 154.09 5.097 6.439 11.186 12.333 18.138 17.565-4.675 27.889-5.505 51.75-5.505 65.143 0 22.265 4.519 42.896 13.431 61.321.073.15.149.298.228.443 15.445 31.608 44.396 57.096 83.758 73.73 34.73 14.676 76.902 22.434 121.958 22.434s87.228-7.757 121.958-22.434c39.36-16.632 68.309-42.118 83.755-73.723.079-.145.156-.293.228-.443 8.914-18.425 13.434-39.059 13.434-61.327 0-20.096-1.952-42.206-6.159-64.654 7.225-5.354 13.535-11.414 18.792-18.054 44.135-55.761 14.263-150.102 12.97-154.091zm-54.926 97.554c-5.421-11.834-11.659-23.18-18.768-33.742 10.115-3.688 16.707-4.365 22.12-4.626 1.79 7.641 3.276 21.672-3.352 38.368zm-384.077-38.529c5.092.049 10.83.253 20.41 3.552-4.14 6.183-8.03 12.76-11.66 19.721-2.268 4.349-4.387 8.751-6.366 13.184-6.739-16.504-4.552-29.618-2.384-36.457zm-22.302 82.651c-31.453-39.736-17.08-107.64-11.489-128.931 15.308-.393 53.512.257 85.987 14.094-6.809 5.665-13.226 12.038-19.232 19.096-16.891-6.78-26.405-6.858-33.579-6.916-1.869-.015-3.483-.028-4.952-.17-3.867-.369-7.618 1.538-9.587 4.9-.825 1.409-19.592 34.49 8.033 76.206-3.31 9.87-6.028 19.712-8.26 29.306-2.519-2.412-4.831-4.944-6.921-7.585zm216.327 233.049c-90.405 0-159.9-30.914-186.694-82.848 4.193-41.13 15.315-94.695 31.191-124.229 15.922-29.614 47.244-48.614 80.002-48.614.309 0 .622.002.932.005 28.801.317 52.732 15.047 65.659 40.414 1.708 3.35 5.15 5.46 8.91 5.46s7.202-2.109 8.91-5.46c12.927-25.366 36.858-40.097 65.658-40.414 33.122-.374 64.861 18.716 80.935 48.608 15.876 29.535 26.998 83.099 31.191 124.229-26.794 51.935-96.289 82.849-186.694 82.849zm216.326-233.049c-2.368 2.991-5.019 5.844-7.935 8.54-2.41-9.504-5.241-18.97-8.515-28.273 26.064-40.681 10.455-75.802 9.76-77.316-1.778-3.868-5.798-6.186-10.045-5.779-1.371.132-2.87.189-4.607.255-7.869.299-18.28.695-36.172 8.111-5.899-7.019-12.277-13.533-19.157-19.426 32.935-14.759 72.535-15.441 88.169-15.043 5.612 21.274 20.033 89.096-11.498 128.931z"/><path d="m297.459 399.351c-5.522 0-10 4.477-10 10 0 5.904-4.801 10.707-10.702 10.707s-10.702-4.803-10.702-10.707v-10.743c13.852-4.279 23.944-17.203 23.944-32.441v-10.79c0-5.523-4.478-10-10-10h-47.889c-5.523 0-10 4.477-10 10v10.79c0 15.238 10.093 28.162 23.944 32.441v10.743c0 5.904-4.801 10.707-10.702 10.707s-10.702-4.803-10.702-10.707c0-5.523-4.477-10-10-10-5.522 0-10 4.477-10 10 0 16.932 13.773 30.707 30.702 30.707 7.969 0 15.239-3.053 20.702-8.05 5.463 4.997 12.733 8.05 20.702 8.05 16.93 0 30.702-13.775 30.702-30.707.001-5.523-4.477-10-9.999-10zm-55.349-33.974h27.889v.79c0 7.689-6.256 13.944-13.944 13.944s-13.944-6.255-13.944-13.944v-.79z"/><g><g><g><g><path d="m256.055 124.706c-4.188 0-7.987-2.698-9.407-6.63-1.395-3.863-.199-8.339 2.938-10.992 3.282-2.776 8.094-3.122 11.746-.864 3.493 2.16 5.341 6.417 4.533 10.446-.927 4.617-5.108 8.04-9.81 8.04z"/></g></g></g></g><g><g><g><g><g><path d="m324.959 323.627c11.664-11.664 30.643-11.662 42.309.003 3.905 3.905 3.905 10.237 0 14.142s-10.237 3.905-14.142 0c-3.867-3.867-10.159-3.869-14.024-.003-3.905 3.905-10.237 3.905-14.142 0-3.907-3.905-3.907-10.237-.001-14.142z"/></g></g></g></g><g><g><g><g><path d="m187.373 323.627c3.905 3.905 3.905 10.237 0 14.142s-10.237 3.905-14.142 0c-3.866-3.866-10.157-3.864-14.024.003-3.905 3.905-10.237 3.905-14.142 0s-3.905-10.237 0-14.142c11.665-11.665 30.644-11.667 42.308-.003z"/></g></g></g></g></g></g></g></svg>