<svg id="Capa_1" enable-background="new 0 0 512 512" height="512" viewBox="0 0 512 512" width="512" xmlns="http://www.w3.org/2000/svg"><g><g><g><g><g><g><g><g><path clip-rule="evenodd" d="m363.801 134.236c16.752-17.013 37.53-50.329 40.394-77.576 1.428-13.583-1.172-27.448-5.565-40.265 1.263-1.078-55.459 58.199-67.827 94.195" fill="#e7e9ef" fill-rule="evenodd"/></g></g></g></g></g><g><g><g><path clip-rule="evenodd" d="m402.241 185.683c16.752-17.013 38.53-52.33 41.395-79.577 4.88-46.413-37.272-96.106-37.272-96.106s-2.961 2.319-7.734 6.394c4.393 12.817 6.993 26.682 5.565 40.265-2.865 27.247-23.642 60.563-40.394 77.576" fill="#b6bccf" fill-rule="evenodd"/></g></g></g></g><g><g><g><g><g><g><path clip-rule="evenodd" d="m148.199 134.236c-16.752-17.013-37.53-50.329-40.394-77.576-1.428-13.583 1.172-27.448 5.565-40.265-1.263-1.078 55.459 58.199 67.827 94.195" fill="#e7e9ef" fill-rule="evenodd"/></g></g></g></g></g><g><g><g><path clip-rule="evenodd" d="m109.759 185.683c-16.752-17.013-38.53-52.33-41.395-79.577-4.879-46.413 37.272-96.106 37.272-96.106s2.961 2.319 7.734 6.394c-4.393 12.817-6.993 26.682-5.565 40.265 2.865 27.247 23.642 60.563 40.394 77.576" fill="#b6bccf" fill-rule="evenodd"/></g></g></g></g><g><g><g><g><path clip-rule="evenodd" d="m437.96 331c0 28.86-6.73 55.26-18.72 78.23-29.7 56.92-91.64 92.77-163.24 92.77s-133.54-35.85-163.24-92.77c-11.99-22.97-18.72-49.37-18.72-78.23 0-86.26 60.16-200.97 140.86-231.54 13.21-5 26.97-7.75 41.1-7.75 16.46 0 32.41 3.73 47.58 10.4 77.42 34.08 134.38 144.951 134.38 228.89z" fill="#f5eeec" fill-rule="evenodd"/></g></g></g></g><g><g><g><g><path d="m256.144 378.515c-.094-.895-.143-1.804-.143-2.724 0 .92-.049 1.829-.143 2.724z" fill="none"/></g></g></g></g><g><g><g><g><path clip-rule="evenodd" d="m419.244 409.232c-29.702 56.916-91.644 92.768-163.244 92.768s-133.542-35.853-163.244-92.769c29.933-44.904 91.789-75.731 163.244-75.731s133.311 30.827 163.244 75.732z" fill="#cfd3df" fill-rule="evenodd"/></g></g></g></g></g><g><g><g><g><g><path d="m256 101.71c-4.12 0-7.888-2.616-9.347-6.464-1.478-3.898-.309-8.462 2.878-11.158 3.283-2.777 8.092-3.121 11.745-.864 3.564 2.202 5.403 6.584 4.478 10.673-1.02 4.511-5.123 7.813-9.754 7.813z"/></g></g></g><g><g><g><g><g><path d="m255.857 469.111c-11.665 0-23.331-4.441-32.212-13.321-3.905-3.905-3.906-10.237-.001-14.142s10.237-3.906 14.142 0c9.964 9.964 26.177 9.964 36.141 0 3.905-3.904 10.237-3.905 14.142 0s3.905 10.237 0 14.142c-8.881 8.88-20.547 13.321-32.212 13.321z"/></g></g></g></g><g><g><g><g><g><path d="m288.642 408.17c-5.523 0-10-4.477-10-10v-16.545c0-5.523 4.477-10 10-10s10 4.477 10 10v16.545c0 5.523-4.477 10-10 10z"/></g></g></g></g><g><g><g><g><path d="m223.358 408.17c-5.523 0-10-4.477-10-10v-16.545c0-5.523 4.477-10 10-10s10 4.477 10 10v16.545c0 5.523-4.477 10-10 10z"/></g></g></g></g></g></g><path d="m413.99 3.532c-3.475-4.097-9.564-4.715-13.791-1.404-.128.1-3.184 2.498-8.062 6.663-.057.049-.114.099-.17.149-.013.012-.025.023-.038.034-.041.037-.081.074-.121.111-.019.018-.038.036-.057.054-.032.03-.064.061-.096.092-.023.022-.046.044-.068.067-.021.021-.042.042-.063.064-.248.25-.481.51-.697.779-.208.229-.518.566-.919 1.003-18.985 20.708-50.709 57.541-64.5 86.411-7.097-3.63-14.306-6.47-21.583-8.479-5.321-1.469-10.831 1.653-12.301 6.977s1.654 10.831 6.977 12.301c71.716 19.805 129.466 137.996 129.466 222.648 0 20.79-3.648 40.524-10.864 58.868-35.291-41.301-95.294-66.37-161.103-66.37s-125.812 25.069-161.102 66.37c-7.216-18.345-10.864-38.078-10.864-58.868 0-84.726 57.828-202.954 129.641-222.697 5.325-1.464 8.456-6.968 6.991-12.293-1.464-5.325-6.967-8.457-12.293-6.991-7.342 2.018-14.615 4.882-21.774 8.547-13.788-28.873-45.518-65.713-64.506-86.424-.401-.437-.711-.774-.92-1.003-.216-.269-.449-.529-.697-.779-.021-.021-.042-.042-.063-.064-.023-.022-.045-.044-.068-.067-.032-.031-.063-.062-.096-.092-.019-.018-.038-.036-.058-.054-.04-.037-.08-.074-.121-.111-.013-.011-.025-.023-.038-.034-.056-.05-.113-.1-.17-.149-4.878-4.165-7.934-6.563-8.062-6.663-4.229-3.311-10.318-2.691-13.791 1.404-1.834 2.162-44.858 53.529-39.591 103.621 3.213 30.557 26.561 66.941 42.901 84.186-23.407 44.861-37.285 96.657-37.285 139.663 0 29.732 6.68 57.61 19.855 82.858.036.069.073.137.11.205 31.635 60.415 97.517 97.935 172.001 97.935 74.485 0 140.368-37.521 172.002-97.938.037-.067.074-.135.109-.203 13.174-25.248 19.854-53.125 19.854-82.857 0-43.002-13.875-94.809-37.276-139.673 16.34-17.249 39.679-53.625 42.892-84.177 5.267-50.091-37.757-101.458-39.591-103.62zm-262.635 119.42c-15.414-17.461-31.336-45.762-33.604-67.339-.613-5.828-.39-12.058.661-18.635 25.267 28.766 43.276 53.848 51.013 71.07-6.153 4.376-12.187 9.354-18.07 14.904zm-53.31-84.627c-.773 6.708-.836 13.182-.185 19.38 2.874 27.331 21.51 59.756 39.612 79.73-9.1 10.445-17.739 22.328-25.784 35.525-15.291-18.009-31.203-47.207-33.379-67.899-2.501-23.792 9.205-49.245 19.736-66.736zm157.955 453.675c-64.873 0-122.326-31.311-151.487-82.116 30.351-41.088 87.729-66.384 151.487-66.384s121.137 25.296 151.487 66.385c-29.161 50.804-86.614 82.115-151.487 82.115zm86.585-383.97c7.741-17.221 25.746-42.295 51.004-71.051 1.051 6.577 1.274 12.807.661 18.636-2.268 21.569-18.18 49.86-33.59 67.321-5.885-5.553-11.921-10.531-18.075-14.906zm91.106-2.969c-2.175 20.688-18.08 49.876-33.367 67.886-8.044-13.199-16.682-25.084-25.78-35.528 18.098-19.975 36.725-52.39 39.598-79.713.654-6.22.588-12.717-.193-19.449 10.536 17.465 22.253 42.917 19.742 66.804z"/><g><g><g><g><g><path d="m324.904 263.571c11.664-11.664 30.643-11.662 42.309.003 3.905 3.905 3.905 10.237 0 14.142s-10.237 3.905-14.142 0c-3.867-3.867-10.159-3.869-14.024-.003-3.905 3.905-10.237 3.905-14.142 0-3.906-3.905-3.906-10.237-.001-14.142z"/></g></g></g></g><g><g><g><g><path d="m187.318 263.571c3.905 3.905 3.905 10.237 0 14.142s-10.237 3.905-14.142 0c-3.866-3.866-10.157-3.864-14.024.003-3.905 3.905-10.237 3.905-14.142 0s-3.905-10.237 0-14.142c11.666-11.665 30.645-11.667 42.308-.003z"/></g></g></g></g></g></g></g></g></svg>