<svg id="Capa_1" enable-background="new 0 0 512 512" height="512" viewBox="0 0 512 512" width="512" xmlns="http://www.w3.org/2000/svg"><g><g><g><g><g><path clip-rule="evenodd" d="m439.24 329.861c0 29.052-6.777 55.628-18.852 78.751-29.909 57.299-92.284 93.388-164.388 93.388s-134.479-36.089-164.388-93.388c-12.074-23.123-18.852-49.699-18.852-78.751 0-86.835 60.583-242.601 141.851-273.375 13.303-5.033 27.16-7.802 41.389-7.802 16.576 0 32.638 3.755 47.915 10.469 77.964 34.308 135.325 186.208 135.325 270.708z" fill="#f5eeec" fill-rule="evenodd"/></g></g></g><g><g><g><path clip-rule="evenodd" d="m178.776 71.411c-14.602-43.563-76.242-61.411-76.242-61.411s-41.07 52.078-27.458 96.747c6.493 21.31 24.259 37.084 41.064 47.754" fill="#e5ae8c" fill-rule="evenodd"/></g></g><g><g><g><path clip-rule="evenodd" d="m396.197 154.287c16.705-10.667 34.277-26.372 40.727-47.54 13.612-44.669-27.457-96.747-27.457-96.747s-61.224 17.714-76.092 60.97" fill="#e5ae8c" fill-rule="evenodd"/></g></g></g></g><g><g><g><g><path d="m256.145 377.692c-.095-.901-.145-1.816-.145-2.742 0 .926-.049 1.841-.144 2.742z" fill="none"/></g></g></g></g><g><g><g><path clip-rule="evenodd" d="m420.392 408.613c-29.911 57.296-92.289 93.387-164.392 93.387s-134.481-36.092-164.392-93.387c30.144-45.204 92.434-76.236 164.392-76.236s134.249 31.032 164.392 76.236z" fill="#ffd4b5" fill-rule="evenodd"/></g></g></g><g><g><g><g><g><path d="m303.915 59.154c-4.29 42.572-22.427 106.004-86.998 106.004-16.052 0-31.107-4.298-44.078-11.798 41.465-12.127 36.173-66.774 41.772-96.873 13.303-5.033 27.16-7.802 41.389-7.802 16.576-.001 32.638 3.754 47.915 10.469z" fill="#ffbe90"/></g></g></g></g></g></g><g><g><g><g><path d="m256 58.69c-4.179 0-8.007-2.712-9.415-6.636-1.413-3.936-.155-8.439 3.071-11.093 3.271-2.69 8.023-3.003 11.621-.767 3.59 2.231 5.424 6.65 4.453 10.765-1.054 4.467-5.129 7.731-9.73 7.731z"/></g></g></g><path d="m406.842 159.211c20.669-14.352 33.995-30.998 39.648-49.549 14.965-49.106-27.362-103.56-29.172-105.854-2.519-3.194-6.724-4.544-10.631-3.414-2.492.721-56.811 16.856-78.113 56.674-7.705-4.828-15.854-8.605-24.433-10.973-.838-.231-1.68-.348-2.511-.361-.105-.014-.211-.027-.316-.037-5.523-.55-10.399 3.453-10.952 8.947-2.871 28.482-8.721 50.356-17.886 66.87-12.565 22.639-30.737 33.644-55.559 33.644-8.265 0-16.449-1.309-24.235-3.843 17.244-18.8 22.256-52.129 26.13-77.901.878-5.832 1.706-11.342 2.584-16.065 1.01-5.43-2.572-10.65-8.002-11.66-1.409-.261-4.93.241-5.336.352-8.647 2.377-16.859 6.183-24.62 11.053-21.29-39.822-75.621-55.974-78.122-56.698-3.909-1.132-8.114.218-10.633 3.413-1.81 2.294-44.137 56.748-29.172 105.854 5.655 18.562 18.987 35.211 39.666 49.563-.878 1.899-1.715 3.746-2.509 5.531-24.246 54.479-39.912 119.287-39.912 165.107 0 29.919 6.724 57.971 19.984 83.378.042.082.086.162.131.242 31.85 60.773 98.161 98.516 173.129 98.516 74.982 0 141.305-37.758 173.149-98.554.037-.067.074-.135.11-.204 13.262-25.406 19.986-53.459 19.986-83.381 0-45.787-15.643-110.563-39.853-165.024-.806-1.814-1.656-3.693-2.55-5.626zm-1.177-137.34c9.407 13.918 31.185 50.814 21.693 81.961-4.857 15.939-17.593 28.48-29.474 37.191-12.68-24.178-30.535-51.996-53.057-71.755 12.442-26.84 46.44-42.01 60.838-47.397zm-321.023 81.961c-9.495-31.159 12.302-68.07 21.699-81.972 14.408 5.364 48.399 20.489 60.849 47.44-22.521 19.77-40.375 47.579-53.051 71.739-11.926-8.738-24.643-21.279-29.497-37.207zm171.358 388.168c-65.371 0-123.263-31.547-152.635-82.734 30.569-41.404 88.386-66.89 152.635-66.89s122.065 25.486 152.636 66.89c-29.373 51.188-87.265 82.734-152.636 82.734zm162.258-102.744c-35.516-41.616-95.96-66.88-162.258-66.88-66.299 0-126.743 25.264-162.257 66.88-7.298-18.505-10.988-38.416-10.988-59.394 0-43.238 14.988-104.854 38.185-156.975 22.542-50.651 50.31-86.596 77.972-101.632-4.153 27.613-9.939 64.874-29.79 72.821-3.554 1.423-5.983 4.749-6.258 8.567-.274 3.818 1.655 7.458 4.969 9.374 14.868 8.597 31.841 13.142 49.084 13.142 32.289 0 56.865-14.783 73.046-43.939 9.075-16.353 15.265-36.773 18.812-62.158 29.092 13.471 58.617 50.526 82.342 103.901 23.162 52.105 38.128 113.692 38.128 156.9 0 20.978-3.689 40.889-10.987 59.393z"/><g><g><g><g><g><path d="m255.856 468.825c-11.729 0-23.458-4.463-32.387-13.389-3.906-3.904-3.907-10.236-.003-14.142 3.903-3.906 10.236-3.907 14.142-.003 10.063 10.058 26.434 10.058 36.496 0 3.905-3.905 10.236-3.904 14.142.003 3.904 3.906 3.903 10.238-.003 14.142-8.929 8.926-20.659 13.389-32.387 13.389z"/></g></g></g></g><g><g><g><g><g><path d="m288.872 407.478c-5.522 0-10-4.477-10-10v-16.656c0-5.523 4.478-10 10-10s10 4.477 10 10v16.656c0 5.523-4.477 10-10 10z"/></g></g></g></g><g><g><g><g><path d="m223.128 407.478c-5.522 0-10-4.477-10-10v-16.656c0-5.523 4.478-10 10-10 5.523 0 10 4.477 10 10v16.656c0 5.523-4.477 10-10 10z"/></g></g></g></g></g></g><g><g><g><g><g><path d="m324.904 263.571c11.664-11.664 30.643-11.662 42.309.003 3.905 3.905 3.905 10.237 0 14.142s-10.237 3.905-14.142 0c-3.867-3.867-10.159-3.869-14.024-.003-3.905 3.905-10.237 3.905-14.142 0-3.906-3.905-3.906-10.237-.001-14.142z"/></g></g></g></g><g><g><g><g><path d="m187.318 263.571c3.905 3.905 3.905 10.237 0 14.142s-10.237 3.905-14.142 0c-3.866-3.866-10.157-3.864-14.024.003-3.905 3.905-10.237 3.905-14.142 0s-3.905-10.237 0-14.142c11.666-11.665 30.645-11.667 42.308-.003z"/></g></g></g></g></g></g></g></svg>