<svg id="Capa_1" enable-background="new 0 0 512.092 512.092" height="512" viewBox="0 0 512.092 512.092" width="512" xmlns="http://www.w3.org/2000/svg"><g><g><g><g><g><path clip-rule="evenodd" d="m454.025 239.554c13-6.883 29.261-27.542 34.078-38.55 24.011-54.874 9.726-134.214 9.726-134.214s-107.828-12.077-142.804 36.548" fill="#ffbdbc" fill-rule="evenodd"/></g></g></g><g><g><g><path clip-rule="evenodd" d="m436.502 190.69c34.418-38.276 22.092-77.638 22.092-77.638s-33.184-6.74-67.569 19.618" fill="#ffdede" fill-rule="evenodd"/></g></g></g><g><g><g><g><path clip-rule="evenodd" d="m58.067 239.554c-13-6.883-29.261-27.542-34.078-38.55-24.011-54.874-9.726-134.214-9.726-134.214s107.828-12.077 142.804 36.548" fill="#ffbdbc" fill-rule="evenodd"/></g></g></g><g><g><g><path clip-rule="evenodd" d="m75.59 190.69c-34.418-38.276-22.092-77.638-22.092-77.638s33.184-6.74 67.569 19.618" fill="#ffdede" fill-rule="evenodd"/></g></g></g></g><g><g><g><g><g><path clip-rule="evenodd" d="m455.412 278.725c0 64.56-42.386 125.842-91.816 147.932-30.55 13.68-67.6 20.02-107.55 20.02-37.75 0-72.92-5.66-102.45-17.82-52.29-21.51-96.916-83.372-96.916-150.132 0-104.46 94.786-199.39 199.366-199.39s199.366 94.93 199.366 199.39z" fill="#ffdede" fill-rule="evenodd"/></g></g></g></g></g><g><g><g><g><g><path clip-rule="evenodd" d="m325.849 345.751c0 1.039-.252 2.303-.682 3.716-4.335 14.247-19.811 21.891-33.887 17.028-3.485-1.204-7.088-2.473-10.599-3.724-15.935-5.677-33.339-5.677-49.274 0-3.511 1.251-7.113 2.52-10.597 3.724-14.075 4.863-29.55-2.78-33.885-17.027-.43-1.413-.682-2.677-.682-3.716 0-51.246 17.803-75.315 69.803-75.315 55.333-.001 69.803 24.567 69.803 75.314z" fill="#ff9c9b" fill-rule="evenodd"/></g></g></g></g></g></g><g><g><g><g><g><path d="m235.379 331.326c-5.523 0-10-4.477-10-10v-4.268c0-5.523 4.477-10 10-10 5.522 0 10 4.477 10 10v4.268c0 5.523-4.478 10-10 10z"/></g></g></g></g><g><g><g><g><path d="m276.713 331.326c-5.522 0-10-4.477-10-10v-4.268c0-5.523 4.478-10 10-10 5.523 0 10 4.477 10 10v4.268c0 5.523-4.478 10-10 10z"/></g></g></g></g><g><g><g><path d="m299.949 377.94c-4.035 0-8.075-.66-11.935-1.994-3.515-1.214-7.148-2.494-10.69-3.756-13.724-4.888-28.837-4.889-42.562-.001-3.54 1.262-7.173 2.542-10.687 3.755-9.354 3.232-19.774 2.509-28.589-1.983-8.824-4.498-15.263-12.163-18.13-21.584-.75-2.47-1.115-4.637-1.115-6.627 0-29.46 5.688-49.634 17.9-63.488 12.947-14.688 33.196-21.827 61.903-21.827 30.416 0 50.528 7.047 63.295 22.179 11.417 13.532 16.509 33.004 16.509 63.136 0 1.99-.365 4.157-1.115 6.625-2.867 9.423-9.306 17.088-18.129 21.586-5.177 2.64-10.911 3.979-16.655 3.979zm-43.905-29.413c9.484 0 18.966 1.607 27.992 4.823 3.483 1.24 7.056 2.499 10.511 3.692 4.31 1.489 8.917 1.169 12.976-.9 3.938-2.007 6.808-5.412 8.077-9.587.166-.543.228-.853.25-.978-.032-49.915-14.026-65.142-59.804-65.142-44.101 0-59.766 17.053-59.804 65.142.021.125.084.435.25.979 1.27 4.173 4.139 7.578 8.077 9.585 4.059 2.069 8.666 2.389 12.976.899 3.453-1.193 7.025-2.452 10.506-3.692 9.025-3.213 18.51-4.821 27.993-4.821z"/></g></g></g><path d="m507.671 65.018c-.783-4.353-4.334-7.674-8.728-8.166-4.543-.508-109.51-11.637-149.541 37.394-14.334-7.88-29.361-14.058-44.737-18.305-5.318-1.468-10.831 1.653-12.302 6.977-1.47 5.323 1.654 10.831 6.978 12.301 81.911 22.62 146.075 103.226 146.075 183.509 0 103.691-95.265 157.943-189.369 157.943s-189.37-54.252-189.37-157.943c0-80.383 64.244-161.012 146.257-183.56 5.326-1.464 8.456-6.968 6.992-12.293-1.465-5.326-6.974-8.458-12.293-6.991-15.448 4.247-30.546 10.444-44.944 18.359-40.032-49.028-144.996-37.9-149.54-37.391-4.394.492-7.945 3.813-8.729 8.166-.605 3.362-14.536 82.99 10.407 139.995 4.912 11.228 20.301 31.6 34.859 41.176-1.992 10.825-3.011 21.712-3.011 32.54 0 26.839 5.899 52.023 17.535 74.852 10.938 21.461 26.666 40.354 46.748 56.152 38.475 30.269 90 46.939 145.086 46.939s106.611-16.67 145.086-46.939c20.082-15.799 35.811-34.691 46.748-56.152 11.636-22.829 17.535-48.013 17.535-74.852 0-10.827-1.02-21.714-3.011-32.539 14.558-9.576 29.948-29.948 34.86-41.176 24.945-57.006 11.014-136.634 10.409-139.996zm-430.849 111.351c-16.412-22.484-16.335-43.868-15-54.094 9.125-.273 27.044 1.179 46.469 13.63-4.685 4.83-9.186 9.879-13.48 15.135-6.647 8.133-12.653 16.603-17.989 25.329zm-43.672 20.626c-18.318-41.864-12.881-100.272-10.165-120.879 23.276-1.489 93.588-3.102 122.416 28.682-7.688 5.182-15.114 10.87-22.216 17.024-36.13-25.398-70.193-18.87-71.677-18.569-3.57.725-6.464 3.335-7.553 6.812-.564 1.801-13.193 43.942 22.474 85.352-4.658 9.66-8.527 19.544-11.57 29.553-9.076-8.084-18.588-20.842-21.709-27.975zm370.646-61.089c19.435-12.473 37.308-13.933 46.456-13.639 1.313 10.216 1.378 31.655-14.987 54.102-5.318-8.696-11.302-17.138-17.92-25.245-4.314-5.285-8.838-10.362-13.549-15.218zm75.145 61.09c-3.121 7.132-12.634 19.891-21.71 27.975-3.043-10.008-6.912-19.892-11.571-29.552 35.67-41.411 23.041-83.554 22.476-85.355-1.089-3.477-3.982-6.086-7.553-6.812-1.482-.301-35.549-6.829-71.681 18.572-7.102-6.154-14.527-11.842-22.215-17.024 28.832-31.794 99.165-30.174 122.424-28.684 2.728 20.592 8.186 78.93-10.17 120.88z"/><g><g><g><g><path d="m256.046 89.336c-4.229 0-8.081-2.77-9.454-6.763-1.377-4.007-.014-8.596 3.367-11.168 3.241-2.465 7.725-2.715 11.224-.637 3.605 2.14 5.51 6.501 4.65 10.602-.961 4.574-5.103 7.966-9.787 7.966z"/></g></g></g></g><g><g><g><g><g><path d="m324.95 233.636c11.664-11.664 30.643-11.662 42.309.003 3.905 3.905 3.905 10.237 0 14.142s-10.237 3.905-14.142 0c-3.867-3.867-10.159-3.869-14.024-.003-3.905 3.905-10.237 3.905-14.142 0-3.906-3.905-3.906-10.237-.001-14.142z"/></g></g></g></g><g><g><g><g><path d="m187.364 233.636c3.905 3.905 3.905 10.237 0 14.142s-10.237 3.905-14.142 0c-3.866-3.866-10.157-3.864-14.024.003-3.905 3.905-10.237 3.905-14.142 0s-3.905-10.237 0-14.142c11.665-11.665 30.645-11.667 42.308-.003z"/></g></g></g></g></g></g></g></svg>