<svg id="Capa_1" enable-background="new 0 0 512 512" height="512" viewBox="0 0 512 512" width="512" xmlns="http://www.w3.org/2000/svg"><g><g><g><g><g><g><g><g><path clip-rule="evenodd" d="m92.901 183.253-25.004 59.488c-10.032-2.63-24.521-14.19-29.6-20.969-10.905-14.556-17.666-33.371-21.829-50.077" fill="#ffbdbc" fill-rule="evenodd"/></g></g></g></g></g><g><g><g><path clip-rule="evenodd" d="m92.901 183.253c-21.099-15.307-54.82-14.29-76.433-11.558-5.503-22.081-6.468-40.476-6.468-40.476s68.494-17.18 100.333 10.559" fill="#e5ae8c" fill-rule="evenodd"/></g></g></g></g><g><g><g><g><g><g><path clip-rule="evenodd" d="m419.1 183.253 25.004 59.488c10.032-2.63 24.521-14.19 29.6-20.969 10.905-14.556 17.666-33.371 21.829-50.077" fill="#ffbdbc" fill-rule="evenodd"/></g></g></g></g></g><g><g><g><path clip-rule="evenodd" d="m419.1 183.253c21.099-15.307 54.82-14.29 76.433-11.558 5.503-22.081 6.468-40.476 6.468-40.476s-68.494-17.18-100.333 10.559" fill="#e5ae8c" fill-rule="evenodd"/></g></g></g></g><g><g><g><path clip-rule="evenodd" d="m386.882 120.865c.704-5.78 2.1-11.568 4.236-17.261 10.062-26.821 33.895-44.453 60.456-47.88-7.82-8.832-17.851-15.936-29.665-20.368-38.635-14.494-81.704 5.076-96.198 43.711" fill="#cfd3df" fill-rule="evenodd"/></g></g></g><g><g><g><path clip-rule="evenodd" d="m125.119 120.865c-.704-5.78-2.1-11.568-4.236-17.261-10.062-26.821-33.895-44.453-60.456-47.88 7.82-8.832 17.851-15.936 29.665-20.368 38.635-14.494 81.704 5.076 96.198 43.711" fill="#cfd3df" fill-rule="evenodd"/></g></g></g><g><g><g><g><g><path clip-rule="evenodd" d="m445.363 293.495c0 104.462-84.781 187.956-189.363 187.956s-189.363-83.494-189.363-187.956 84.781-229.409 189.363-229.409 189.363 124.948 189.363 229.409z" fill="#ffd4b5" fill-rule="evenodd"/></g></g></g></g><g><g><g><g><path d="m256.149 332.934c-.098-.931-.149-1.877-.149-2.835 0 .957-.051 1.903-.149 2.835z" fill="none"/></g></g></g></g></g><g><g><g><path clip-rule="evenodd" d="m349.73 365.582c0 48.243-36.438 76.892-93.73 76.892s-93.73-28.649-93.73-76.892 36.438-87.352 93.73-87.352 93.73 39.109 93.73 87.352z" fill="#f5eeec" fill-rule="evenodd"/></g></g><g><g><g><ellipse clip-rule="evenodd" cx="256" cy="309.564" fill="#b6bccf" fill-rule="evenodd" rx="31.333" ry="31.333" transform="matrix(.854 -.521 .521 .854 -123.741 178.559)"/></g></g></g></g></g><g><g><g><path d="m504.433 121.519c-2.897-.727-68.975-16.877-105.406 9.594-1.22-1.643-2.457-3.268-3.71-4.875.779-1.221 1.304-2.63 1.491-4.163.62-5.084 1.855-10.117 3.673-14.959 8.441-22.503 28.51-38.396 52.372-41.474 3.673-.474 6.783-2.938 8.084-6.405 1.3-3.467.578-7.369-1.876-10.142-9.092-10.268-20.724-18.257-33.64-23.103-21.185-7.948-44.199-7.17-64.802 2.19-17.459 7.933-31.413 21.225-40.102 37.99-5.195-2.155-10.497-3.992-15.899-5.483-5.324-1.47-10.83 1.653-12.302 6.977-1.47 5.324 1.654 10.831 6.978 12.301 35.986 9.938 70.335 39.218 96.721 82.448 25.007 40.971 39.349 88.747 39.349 131.079 0 98.125-80.462 177.956-179.363 177.956s-179.363-79.831-179.363-177.956c0-42.365 14.363-90.169 39.406-131.156 26.423-43.245 60.817-72.517 96.845-82.421 5.325-1.464 8.456-6.968 6.991-12.293-1.464-5.326-6.968-8.458-12.293-6.991-5.474 1.505-10.845 3.364-16.106 5.548-19.466-37.45-64.409-55.378-104.9-40.189-12.917 4.846-24.549 12.835-33.64 23.103-2.455 2.772-3.176 6.674-1.875 10.142 1.301 3.467 4.411 5.931 8.083 6.405 23.862 3.079 43.931 18.971 52.373 41.474 1.817 4.845 3.053 9.877 3.671 14.958.187 1.536.714 2.948 1.495 4.17-1.253 1.606-2.489 3.23-3.709 4.872-36.432-26.475-102.516-10.324-105.411-9.597-4.638 1.164-7.804 5.448-7.553 10.224.041.79 1.081 19.618 6.751 42.371 5.513 22.122 13.429 40.174 23.529 53.655 5.318 7.098 18.634 18.284 30.494 23.102-2.727 14.557-4.151 28.905-4.151 42.625 0 53.139 20.75 102.95 58.427 140.257 37.577 37.208 87.628 57.699 140.936 57.699 53.307 0 103.359-20.491 140.936-57.699 37.678-37.307 58.428-87.118 58.428-140.257 0-13.718-1.425-28.066-4.152-42.625 11.86-4.817 25.177-16.004 30.495-23.102 10.1-13.481 18.017-31.533 23.529-53.655 5.671-22.753 6.71-41.581 6.751-42.371.249-4.776-2.916-9.061-7.555-10.224zm-374.187-21.428c-8.623-22.987-26.514-40.704-48.796-49.291 3.816-2.438 7.893-4.483 12.155-6.082 30.81-11.56 64.999 1.987 79.961 30.371-14.732 8.568-28.422 19.685-40.861 32.629-.698-2.575-1.519-5.121-2.459-7.627zm-28.591 47.525c-4.471 7.053-8.65 14.339-12.519 21.795-19.596-9.543-44.32-10.369-64.895-8.598-1.79-8.618-2.859-16.242-3.477-21.663 21.202-3.873 60.329-6.938 80.891 8.466zm-55.355 68.16c-6.798-9.074-12.494-20.91-16.991-35.284 15.733-1.058 36.106-.457 51.209 6.964-6.234 14.239-11.349 28.879-15.223 43.502-7.204-3.77-15.856-10.992-18.995-15.182zm444.941-76.625c-.616 5.411-1.684 13.023-3.48 21.662-20.576-1.769-45.3-.944-64.896 8.598-3.868-7.456-8.047-14.743-12.517-21.797 20.563-15.405 59.7-12.336 80.893-8.463zm-152.807-64.074c6.649-12.649 17.239-22.679 30.459-28.686 15.738-7.151 33.319-7.745 49.503-1.673 4.262 1.599 8.339 3.644 12.154 6.082-22.281 8.587-40.172 26.304-48.795 49.291-.939 2.502-1.759 5.045-2.458 7.617-12.439-12.946-26.13-24.065-40.863-32.631zm127.266 140.699c-3.14 4.19-11.792 11.413-18.996 15.183-3.874-14.622-8.988-29.262-15.222-43.502 15.103-7.422 35.476-8.023 51.21-6.965-4.498 14.374-10.193 26.21-16.992 35.284z"/><path d="m152.27 365.582c0 26.642 10.057 48.878 29.082 64.305 18.225 14.777 44.038 22.587 74.648 22.587s56.423-7.81 74.648-22.587c19.025-15.426 29.082-37.663 29.082-64.305 0-56.41-43.625-97.352-103.73-97.352s-103.73 40.943-103.73 97.352zm125.063-56.018c0 11.136-8.577 20.306-19.471 21.252-.65-.133-1.323-.202-2.012-.202-.655 0-1.294.064-1.914.184-10.798-1.042-19.27-10.167-19.27-21.234 0-11.763 9.57-21.333 21.334-21.333 11.763-.001 21.333 9.57 21.333 21.333zm-60.373-13.584c-1.485 4.256-2.293 8.827-2.293 13.584 0 19.29 13.283 35.536 31.184 40.072v17.924c0 4.539-3.691 8.232-8.228 8.232s-8.229-3.693-8.229-8.232c0-5.523-4.477-10-10-10s-10 4.477-10 10c0 15.567 12.663 28.232 28.229 28.232 6.942 0 13.306-2.519 18.228-6.691 4.921 4.172 11.286 6.691 18.228 6.691 15.564 0 28.228-12.665 28.228-28.232 0-5.523-4.478-10-10-10-5.523 0-10 4.477-10 10 0 4.539-3.691 8.232-8.228 8.232-4.52 0-8.2-3.665-8.228-8.181 0-.017 0-.034 0-.051v-17.849c18.051-4.43 31.482-20.749 31.482-40.147 0-4.756-.808-9.328-2.293-13.584 27.491 12.086 44.69 37.414 44.69 69.603 0 41.886-31.301 66.892-83.73 66.892s-83.73-25.006-83.73-66.892c0-32.189 17.199-57.517 44.69-69.603z"/></g><g><g><g><g><path d="m256 74.082c-4.13 0-7.889-2.62-9.351-6.476-1.496-3.947-.265-8.578 3.007-11.252 3.235-2.644 7.896-2.984 11.481-.842 3.587 2.143 5.48 6.432 4.663 10.529-.921 4.621-5.091 8.041-9.8 8.041z"/></g></g></g></g><g><g><g><g><g><path d="m324.904 243.583c11.664-11.664 30.643-11.662 42.309.003 3.905 3.905 3.905 10.237 0 14.142s-10.237 3.905-14.142 0c-3.867-3.867-10.159-3.869-14.024-.003-3.905 3.905-10.237 3.905-14.142 0-3.906-3.905-3.906-10.237-.001-14.142z"/></g></g></g></g><g><g><g><g><path d="m187.318 243.583c3.905 3.905 3.905 10.237 0 14.142s-10.237 3.905-14.142 0c-3.866-3.866-10.157-3.864-14.024.003-3.905 3.905-10.237 3.905-14.142 0s-3.905-10.237 0-14.142c11.666-11.665 30.645-11.667 42.308-.003z"/></g></g></g></g></g></g></g></g></svg>