<svg id="Capa_1" enable-background="new 0 0 512 512" height="512" viewBox="0 0 512 512" width="512" xmlns="http://www.w3.org/2000/svg"><g><g><g><g><g><g><path clip-rule="evenodd" d="m434.036 216.062c12.791-1.993 28.736-17.133 35.069-26.452 31.568-46.455 32.895-111.971 32.895-111.971s-78.426-20.876-118.182 17.892" fill="#e5ae8c" fill-rule="evenodd"/></g></g></g><g><g><g><path clip-rule="evenodd" d="m417.333 176.982c3.333 1.333 11.712-3.333 18-10.333 18.937-21.083 17.091-38.333 17.091-50.561-14.977.286-33.091 0-46.758 16.228" fill="#ffdede" fill-rule="evenodd"/></g></g></g></g><g><g><g><g><g><path clip-rule="evenodd" d="m77.964 216.062c-12.791-1.993-28.736-17.133-35.069-26.452-31.568-46.455-32.895-111.971-32.895-111.971s78.426-20.876 118.182 17.892" fill="#e5ae8c" fill-rule="evenodd"/></g></g></g><g><g><g><path clip-rule="evenodd" d="m94.667 176.982c-3.333 1.333-11.712-3.333-18-10.333-18.937-21.083-17.091-38.333-17.091-50.561 14.977.286 33.091 0 46.758 16.228" fill="#ffdede" fill-rule="evenodd"/></g></g></g></g></g><g><g><g><g><g><path d="m391.2 460.053c41.77-18.32 96.94-57.99 86.02-154.91-5.69-50.48-36.26-75.36-55.46-96.69-4-4.44-7.88-50.3-11.51-60.7-22.74-65.07-83.71-108.97-152.64-108.97h-3.22c-68.93 0-129.9 43.9-152.64 108.97-3.64 10.4-7.52 56.26-11.51 60.7-19.2 21.33-49.78 46.21-55.46 96.69-10.92 96.91 44.25 136.58 86.02 154.91" fill="#ffbe90"/></g></g></g></g><g><g><g><path clip-rule="evenodd" d="m396.27 422.563c0 12.99-1.76 25.56-5.07 37.49-5.79 2.54-11.31 4.67-16.37 6.49-41.36 14.85-117.97.18-118.83.02-.87.16-77.48 14.83-118.84-.02-5.06-1.82-10.58-3.95-16.36-6.49-3.31-11.93-5.07-24.5-5.07-37.49 0-77.47 62.8-150.276 140.27-150.276s140.27 72.805 140.27 150.276z" fill="#f5eeec" fill-rule="evenodd"/></g></g></g></g><g><g><g><g><path d="m285.394 364.211c-15.178 0-27.668-11.507-29.229-26.274h-.329c-1.561 14.768-14.051 26.274-29.229 26.274-.287 0-.574-.005-.859-.013v50.516h60.506v-50.516c-.287.008-.573.013-.86.013z" fill="#f5eeec"/></g></g></g></g><g><g><g><g><path d="m256.165 337.937c-.109-1.027-.165-2.07-.165-3.126 0 1.056-.056 2.099-.165 3.126z" fill="none"/></g></g></g><g><g><g><path clip-rule="evenodd" d="m256 313.639c-14.275 0-25.846-11.572-25.846-25.846 0-8.222 6.665-14.887 14.886-14.887h21.919c8.222 0 14.887 6.665 14.887 14.887 0 14.275-11.571 25.846-25.846 25.846z" fill="#ffbdbc" fill-rule="evenodd"/></g></g></g></g></g><g><path d="m477.376 195.231c32.857-48.353 34.565-114.592 34.622-117.388.093-4.607-2.974-8.681-7.426-9.866-3.277-.873-77.542-20.075-121.904 15.256-20.984-22.451-47.821-39.193-78.003-47.849l-.908-.258c-5.322-1.495-10.839 1.607-12.332 6.924s1.607 10.838 6.924 12.331l.802.227c47.29 13.562 85.293 49.615 101.657 96.44 1.291 3.698 3.076 16.173 4.511 26.197 3.793 26.5 5.25 33.726 9.008 37.898 2.773 3.08 5.698 6.151 8.794 9.402 18.582 19.51 39.643 41.623 44.161 81.717 7.102 63.033-13.288 107.607-62.252 135.679.824-6.401 1.24-12.874 1.24-19.379 0-39.991-15.924-80.42-43.688-110.921-28.972-31.827-66.823-49.355-106.581-49.355s-77.609 17.528-106.581 49.355c-27.765 30.501-43.688 70.93-43.688 110.921 0 6.503.415 12.975 1.239 19.374-48.963-28.082-69.353-72.655-62.252-135.676 4.511-40.089 25.572-62.201 44.154-81.709 3.099-3.253 6.025-6.326 8.806-9.414 3.747-4.169 5.199-11.378 8.985-37.819 1.438-10.05 3.229-22.558 4.527-26.267 16.489-47.186 54.832-83.336 102.566-96.701 5.318-1.489 8.423-7.008 6.934-12.326-1.489-5.319-7.009-8.421-12.326-6.934-30.624 8.574-57.828 25.425-79.046 48.131-44.363-35.315-118.613-16.117-121.891-15.245-4.452 1.185-7.518 5.259-7.426 9.866.057 2.796 1.765 69.036 34.622 117.388 4.605 6.777 16.345 19.617 29.55 26.468-16.748 18.61-34.982 43.671-39.331 82.324-5.134 45.565 3.309 83.891 25.095 113.915 15.498 21.358 37.987 38.608 66.844 51.272.006.002.011.004.017.007 5.323 2.338 10.877 4.541 16.983 6.737 40.002 14.364 108.169 3.292 122.215.775 8.715 1.568 38.389 6.461 69.228 6.461 18.708 0 37.848-1.801 52.99-7.238 6.101-2.194 11.662-4.399 17.002-6.742 28.855-12.656 51.346-29.904 66.846-51.265 21.785-30.024 30.228-68.353 25.095-113.923-4.357-38.652-22.587-63.713-39.333-82.323 13.206-6.85 24.945-19.691 29.551-26.467zm-385.064-50.782c-1.353 3.864-2.507 10.215-3.914 19.536-1.38-1.086-2.863-2.43-4.291-4.019-11.806-13.143-14.123-23.987-14.51-33.597 9.567.521 18.521 2.233 26.081 9.229-1.198 2.91-2.322 5.861-3.366 8.851zm-41.145 39.54c-23.153-34.071-29.156-79.99-30.673-98.412 18.845-3.608 66.915-9.834 96.032 13.026-4.339 5.878-8.32 12.048-11.91 18.48-14.33-10.456-30.665-10.743-43.219-10.964l-1.632-.029c-2.682-.058-5.277.979-7.193 2.86-1.917 1.88-2.997 4.453-2.997 7.138 0 .929-.012 1.889-.022 2.878-.147 12.763-.371 32.049 19.675 54.365 3.588 3.996 9.615 9.252 16.052 12.002-1.112 7.331-2.325 14.516-3.267 17.309-1.021 1.121-2.078 2.259-3.166 3.417-8.399-1.783-21.594-13.114-27.68-22.07zm225.086 189.151v32.678h-40.506v-32.678c7.953-1.897 14.979-6.213 20.253-12.125 5.274 5.911 12.3 10.227 20.253 12.125zm-20.253-69.5c-8.738 0-15.847-7.109-15.847-15.847 0-2.694 2.192-4.886 4.887-4.886h21.92c2.694 0 4.887 2.192 4.887 4.886 0 8.738-7.109 15.847-15.847 15.847zm115.451 153.491c-37.968 13.63-110.484.192-113.621-.399-.604-.113-1.218-.169-1.83-.169-.606 0-1.212.055-1.811.165-.012.003-.088.017-.1.019-3.074.576-75.678 13.983-113.546.386-3.992-1.436-7.722-2.871-11.291-4.347-2.339-9.834-3.522-19.978-3.522-30.223 0-61.467 41.187-116.723 94.425-134.398.164 16.135 11.043 29.749 25.844 34.056v12.591c0 10.697-8.7 19.4-19.394 19.4-10.693 0-19.393-8.703-19.393-19.4 0-5.523-4.478-10-10-10-5.523 0-10 4.477-10 10 0 17.96 12.077 33.151 28.534 37.878v43.13c0 5.523 4.478 10 10 10h60.506c5.522 0 10-4.477 10-10v-43.13c16.457-4.727 28.534-19.918 28.534-37.878 0-5.523-4.477-10-10-10-5.522 0-10 4.477-10 10 0 10.697-8.7 19.4-19.393 19.4s-19.394-8.703-19.394-19.4v-12.592c14.802-4.306 25.68-17.921 25.844-34.056 53.238 17.675 94.425 72.932 94.425 134.398 0 10.243-1.184 20.387-3.522 30.221-3.575 1.477-7.307 2.913-11.295 4.348zm52.146-293.142c-1.406-9.321-2.558-15.671-3.907-19.536-1.045-2.991-2.169-5.943-3.368-8.854 7.559-6.996 16.515-8.709 26.081-9.229-.387 9.61-2.704 20.454-14.51 33.597-1.428 1.591-2.914 2.936-4.296 4.022zm9.557 42.07c-1.089-1.16-2.147-2.299-3.17-3.422-.944-2.79-2.157-9.967-3.27-17.301 6.439-2.749 12.469-8.008 16.058-12.004 20.046-22.316 19.822-41.603 19.675-54.366-.011-.989-.023-1.949-.023-2.878 0-2.685-1.08-5.258-2.997-7.138s-4.518-2.924-7.193-2.86l-1.632.029c-12.555.221-28.893.508-43.224 10.967-3.59-6.428-7.573-12.597-11.914-18.474 29.048-22.789 77.181-16.606 96.04-13.023-1.518 18.437-7.525 64.339-30.671 98.399-6.086 8.958-19.281 20.288-27.679 22.071z"/><g><g><g><g><g><path d="m256 48.783c-4.193 0-7.983-2.712-9.407-6.636-1.403-3.867-.19-8.327 2.938-10.987 3.269-2.779 8.099-3.125 11.746-.873 3.49 2.155 5.342 6.426 4.533 10.445-.928 4.613-5.101 8.051-9.81 8.051z"/></g></g></g></g><g><g><g><g><g><path d="m334.904 233.553c11.664-11.664 30.643-11.662 42.309.003 3.905 3.905 3.905 10.237 0 14.142s-10.237 3.905-14.142 0c-3.867-3.867-10.159-3.869-14.024-.003-3.905 3.905-10.237 3.905-14.142 0-3.906-3.905-3.906-10.236-.001-14.142z"/></g></g></g></g><g><g><g><g><path d="m177.318 233.553c3.905 3.905 3.905 10.237 0 14.142s-10.237 3.905-14.142 0c-3.866-3.866-10.157-3.864-14.024.003-3.905 3.905-10.237 3.905-14.142 0s-3.905-10.237 0-14.142c11.666-11.665 30.645-11.666 42.308-.003z"/></g></g></g></g></g></g></g></g></svg>