<svg id="Capa_1" enable-background="new 0 0 512 512" height="512" viewBox="0 0 512 512" width="512" xmlns="http://www.w3.org/2000/svg"><g><g><g><g><g><g><g><path clip-rule="evenodd" d="m366.539 480.387c74.767-32.351 125.692-100.299 125.692-198.971.001-142.196-105.758-271.416-236.217-271.416s-236.218 129.22-236.218 271.416c0 98.672 50.926 166.62 125.692 198.971" fill="#b6bccf" fill-rule="evenodd"/></g></g></g></g><g><g><g><path clip-rule="evenodd" d="m256.014 185.044c-33.93-66.582-128.808-57.827-164.192 7.993-22.129 41.164-34.042 91.09-34.042 140.757 0 119.33 88.752 168.206 198.234 168.206s198.234-48.876 198.234-168.207c0-49.666-11.913-99.592-34.042-140.757-35.384-65.82-130.262-74.574-164.192-7.992z" fill="#f5eeec" fill-rule="evenodd"/></g></g></g><g><g><g><path clip-rule="evenodd" d="m256.014 400.211-49.104-57.557 49.104-40.93 49.103 40.93z" fill="#ff9c9b" fill-rule="evenodd"/></g></g></g></g></g><g><g><g><g><path d="m256.014 410.211c-2.927 0-5.708-1.283-7.607-3.51l-49.104-57.557c-1.734-2.033-2.583-4.675-2.357-7.337s1.509-5.124 3.561-6.834l49.104-40.93c3.709-3.092 9.098-3.092 12.805 0l49.104 40.93c2.053 1.711 3.335 4.172 3.561 6.834.227 2.663-.622 5.305-2.356 7.337l-49.104 57.557c-1.899 2.227-4.679 3.51-7.607 3.51zm-34.931-66.352 34.931 40.944 34.931-40.944-34.931-29.117z"/></g></g></g><g><path d="m489.731 319.637c-5.44-1.028-10.659 2.54-11.685 7.967l-.117.619c-3.884 20.181-10.464 38.966-19.518 56.081 3.881-15.641 5.838-32.53 5.838-50.51 0-51.557-12.514-103.227-35.235-145.492-9.946-18.503-24.755-33.799-42.825-44.236-17.207-9.939-36.52-15.073-55.873-14.868-17.036.187-33.452 4.632-47.473 12.854-10.523 6.171-19.502 14.228-26.828 24.056-7.327-9.828-16.306-17.885-26.828-24.056-14.021-8.222-30.437-12.667-47.474-12.854-19.34-.23-38.666 4.929-55.873 14.868-18.07 10.437-32.879 25.733-42.826 44.236-22.721 42.266-35.234 93.935-35.234 145.492 0 18.437 2.057 35.727 6.137 51.7-15.857-29.783-24.121-64.831-24.121-104.078 0-141.702 103.595-261.416 226.218-261.416 108.893 0 204.877 94.998 223.27 220.973.799 5.465 5.88 9.254 11.34 8.45 5.465-.798 9.249-5.875 8.451-11.34-9.285-63.596-38.454-122.946-82.134-167.117-45.254-45.763-102.406-70.966-160.927-70.966-33.282 0-65.739 7.905-96.471 23.494-29.146 14.786-55.445 35.779-78.167 62.398-45.49 53.293-71.58 124.559-71.58 195.523 0 49.606 12.27 93.303 36.469 129.874 22.478 33.971 55.415 61.038 95.252 78.275.141.061.282.118.424.171 31.652 14.643 70.384 22.265 114.073 22.265 43.69 0 82.424-7.623 114.076-22.266.141-.053.281-.11.42-.17 68.046-29.443 113.169-85.4 127.054-157.547l.134-.696c1.026-5.426-2.542-10.657-7.967-11.684zm-421.952 14.157c0-48.31 11.666-96.616 32.85-136.022 15.908-29.592 47.205-48.58 79.934-48.58.309 0 .62.001.929.005 28.778.316 52.693 15.037 65.612 40.388 1.707 3.35 5.15 5.459 8.91 5.459s7.202-2.109 8.91-5.459c12.918-25.351 36.833-40.072 65.61-40.388.311-.003.618-.005.929-.005 32.728 0 64.026 18.99 79.935 48.58 21.184 39.405 32.851 87.712 32.851 136.022-.001 142.79-131.638 158.206-188.235 158.206s-188.235-15.416-188.235-158.206z"/><g><g><g><g><path d="m492.216 294.36c-4.191 0-7.985-2.713-9.407-6.636-1.418-3.912-.162-8.468 3.063-11.102 3.284-2.683 8.017-2.986 11.621-.758 3.507 2.168 5.328 6.41 4.523 10.446-.92 4.612-5.09 8.05-9.8 8.05z"/></g></g></g></g></g><g><g><g><g><g><path d="m334.91 263.57c11.664-11.664 30.643-11.662 42.309.003 3.905 3.905 3.905 10.237 0 14.142s-10.237 3.905-14.142 0c-3.867-3.867-10.159-3.869-14.024-.003-3.905 3.905-10.237 3.905-14.142 0-3.906-3.905-3.906-10.236-.001-14.142z"/></g></g></g></g><g><g><g><g><path d="m177.324 263.57c3.905 3.905 3.905 10.237 0 14.142s-10.237 3.905-14.142 0c-3.866-3.866-10.157-3.864-14.024.003-3.905 3.905-10.237 3.905-14.142 0s-3.905-10.237 0-14.142c11.666-11.665 30.645-11.666 42.308-.003z"/></g></g></g></g></g></g></g></svg>