<svg id="Capa_1" enable-background="new 0 0 512 512" height="512" viewBox="0 0 512 512" width="512" xmlns="http://www.w3.org/2000/svg"><g><g><g><g><g><path clip-rule="evenodd" d="m187.71 111.62c-16.364-29.436-45.778-47.352-81.845-47.352-52.944 0-95.865 42.921-95.865 95.866 0 41.406 24.25 74.68 61.017 88.089" fill="#e7e9ef" fill-rule="evenodd"/></g></g></g><g><g><g><path clip-rule="evenodd" d="m149.283 133.107c-8.845-15.99-23.888-24.839-43.418-24.839-28.598 0-51.865 23.267-51.865 51.866 0 22.543 12.456 39.772 32.586 46.905" fill="#ffdede" fill-rule="evenodd"/></g></g></g><g><g><g><path clip-rule="evenodd" d="m440.984 248.223c36.766-13.409 61.016-46.683 61.016-88.089 0-52.945-42.921-95.866-95.866-95.866-36.067 0-65.48 17.917-81.845 47.352" fill="#e7e9ef" fill-rule="evenodd"/></g></g></g><g><g><g><path clip-rule="evenodd" d="m425.415 207.039c20.129-7.133 32.585-24.362 32.585-46.905 0-28.599-23.267-51.866-51.866-51.866-19.53 0-34.573 8.85-43.418 24.839" fill="#ffdede" fill-rule="evenodd"/></g></g></g><g><g><g><g><path clip-rule="evenodd" d="m445.36 299.797c0 64.56-32.38 105.83-81.81 127.92-30.55 13.68-67.6 20.02-107.55 20.02-37.75 0-72.92-5.66-102.45-17.82-52.29-21.51-86.91-63.36-86.91-130.12 0-104.46 84.78-199.39 189.36-199.39s189.36 94.93 189.36 199.39z" fill="#cfd3df" fill-rule="evenodd"/></g></g></g></g><g><g><g><path clip-rule="evenodd" d="m256 348.559c-18.347 0-33.221-14.874-33.221-33.221v-14.192c0-18.347 14.873-33.221 33.221-33.221 18.347 0 33.221 14.873 33.221 33.221v14.192c0 18.347-14.874 33.221-33.221 33.221z" fill="#b6bccf" fill-rule="evenodd"/></g></g></g></g><g><g><path d="m512 160.134c0-58.375-47.491-105.866-105.866-105.866-36.924 0-68.472 17.132-87.47 47.238-4.629-1.686-9.314-3.186-14.046-4.493-5.325-1.471-10.831 1.655-12.301 6.977-1.47 5.324 1.654 10.831 6.977 12.301 78.843 21.773 136.068 98.949 136.068 183.509 0 124.492-125.434 137.932-179.363 137.932s-179.362-13.44-179.362-137.932c0-84.657 57.302-161.855 136.251-183.56 5.325-1.464 8.456-6.968 6.991-12.293-1.464-5.326-6.969-8.458-12.293-6.991-4.802 1.32-9.555 2.84-14.251 4.55-18.997-30.106-50.545-47.238-87.47-47.238-58.374 0-105.865 47.491-105.865 105.866 0 42.72 23.419 78.593 61.567 95.086-3.252 14.682-4.93 29.644-4.93 44.58 0 26.839 5.375 50.973 15.975 71.732 10.032 19.646 24.756 36.336 43.763 49.607 34.289 23.939 82.57 36.593 139.624 36.593s105.335-12.654 139.625-36.593c19.007-13.271 33.731-29.961 43.763-49.607 10.6-20.759 15.975-44.893 15.975-71.732 0-14.936-1.678-29.897-4.93-44.58 38.149-16.493 61.568-52.366 61.568-95.086zm-412.512 12.334c-5.454 7.327-10.424 14.97-14.889 22.864-13.169-6.709-20.599-19.255-20.599-35.198 0-23.085 18.781-41.866 41.866-41.866 13.698 0 24.294 4.989 31.577 14.847-14.075 11.25-26.879 24.473-37.955 39.353zm-79.488-12.334c0-47.347 38.519-85.866 85.866-85.866 28.689 0 53.325 12.725 68.768 35.207-7.195 3.526-14.205 7.512-20.988 11.928-11.029-14.985-27.717-23.134-47.78-23.134-34.113 0-61.866 27.752-61.866 61.865 0 23.663 11.641 42.957 31.554 53.045-3.312 7.349-6.207 14.861-8.672 22.49-29.123-13.791-46.882-42.05-46.882-75.535zm354.557-27.017c7.283-9.859 17.879-14.848 31.577-14.848 23.085 0 41.866 18.781 41.866 41.866 0 15.943-7.43 28.489-20.599 35.198-4.448-7.864-9.397-15.478-14.826-22.779-11.09-14.914-23.916-28.166-38.018-39.437zm70.561 102.552c-2.465-7.629-5.361-15.142-8.673-22.491 19.913-10.087 31.555-29.381 31.555-53.044 0-34.113-27.753-61.866-61.866-61.866-20.063 0-36.751 8.149-47.78 23.135-6.784-4.416-13.794-8.403-20.988-11.928 15.444-22.482 40.079-35.207 68.768-35.207 47.347 0 85.866 38.519 85.866 85.866 0 33.485-17.759 61.744-46.882 75.535z"/><path d="m212.779 315.338c0 20.391 14.194 37.528 33.221 42.052v11.298c0 9.451-7.686 17.141-17.134 17.141s-17.134-7.69-17.134-17.141c0-5.523-4.477-10-10-10s-10 4.477-10 10c0 20.479 16.658 37.141 37.134 37.141 10.697 0 20.352-4.547 27.134-11.811 6.782 7.263 16.437 11.811 27.134 11.811 20.476 0 37.134-16.661 37.134-37.141 0-5.523-4.477-10-10-10s-10 4.477-10 10c0 9.451-7.687 17.141-17.134 17.141-9.448 0-17.134-7.69-17.134-17.141v-11.298c19.026-4.524 33.221-21.661 33.221-42.052v-14.192c0-23.832-19.389-43.221-43.221-43.221s-43.221 19.389-43.221 43.221zm20-14.192c0-12.804 10.417-23.221 23.221-23.221s23.221 10.417 23.221 23.221v14.192c0 12.804-10.417 23.221-23.221 23.221s-23.221-10.417-23.221-23.221z"/><g><g><g><g><path d="m256 110.41c-4.183 0-7.996-2.708-9.405-6.636-1.389-3.873-.201-8.321 2.936-10.987 3.268-2.778 8.099-3.122 11.745-.873 3.505 2.163 5.32 6.419 4.523 10.445-.912 4.615-5.092 8.051-9.799 8.051z"/></g></g></g></g><g><g><g><g><g><path d="m324.904 253.57c11.664-11.664 30.643-11.662 42.309.003 3.905 3.905 3.905 10.237 0 14.142s-10.237 3.905-14.142 0c-3.867-3.867-10.159-3.869-14.024-.003-3.905 3.905-10.237 3.905-14.142 0-3.906-3.905-3.906-10.236-.001-14.142z"/></g></g></g></g><g><g><g><g><path d="m187.318 253.57c3.905 3.905 3.905 10.237 0 14.142s-10.237 3.905-14.142 0c-3.866-3.866-10.157-3.864-14.024.003-3.905 3.905-10.237 3.905-14.142 0s-3.905-10.237 0-14.142c11.665-11.665 30.645-11.666 42.308-.003z"/></g></g></g></g></g></g></g></g></svg>