<svg id="Capa_1" enable-background="new 0 0 512.001 512.001" height="512" viewBox="0 0 512.001 512.001" width="512" xmlns="http://www.w3.org/2000/svg"><g><g><g><g><path clip-rule="evenodd" d="m444.821 192.15c32.852-4.084 57.923-32.469 57.163-66.279-.81-36.064-30.702-64.642-66.766-63.832-18.526.416-34.581 6.656-49.91 18.617" fill="#b6bccf" fill-rule="evenodd"/></g></g><g><g><g><path clip-rule="evenodd" d="m67.18 192.15c-32.852-4.084-57.922-32.469-57.163-66.279.81-36.064 30.702-64.642 66.766-63.832 18.526.416 34.581 6.656 49.91 18.617" fill="#b6bccf" fill-rule="evenodd"/></g></g><g><g><g><path clip-rule="evenodd" d="m256.001 355.107c-11.823 0-21.407-9.584-21.407-21.407v-9.397h42.814v9.397c0 11.822-9.585 21.407-21.407 21.407z" fill="#b6bccf" fill-rule="evenodd"/></g></g><g><g><g><g><g><g><g><path clip-rule="evenodd" d="m351.568 438.135c70.425-30.471 97.38-99.474 97.38-192.414 0-133.934-70.057-196.987-192.941-196.987-122.883 0-192.941 63.053-192.941 196.987 0 92.939 26.956 161.942 97.38 192.414h11.007c65.081 30.772 101.337 31.171 166.74 1.089z" fill="#cfd3df" fill-rule="evenodd"/></g></g></g></g></g></g><g><g><g><g><path d="m329.523 442.115c3.629.811 7.348 1.229 11.084 1.228 11.192 0 22.475-3.533 32.056-10.822 23.775-18.094 27.49-52.536 8.836-75.875-1.073-1.339-2.178-2.652-3.312-3.949-44.476-52.523-73.155-36.087-95.719-121.82-.169-.644-.558-1.481-1.117-2.463-9.768-17.152-34.822-17.152-44.591-.001-.56.983-.948 1.82-1.118 2.464-22.567 85.733-51.244 69.297-95.719 121.82-1.131 1.297-2.242 2.61-3.311 3.949-18.658 23.339-14.94 57.781 8.839 75.875 9.578 7.292 20.86 10.822 32.05 10.822 3.655.001 7.294-.4 10.848-1.176" fill="#f5eeec"/></g></g></g><g><g><g><g><path d="m328.591 427.304c-21.649-13.702-42.425-31.33-69.483-31.33s-47.826 17.628-69.483 31.33c-2.577 1.631-5.26 3.08-8.026 4.34 19.846 19.554 47.09 31.621 77.152 31.621 30.177 0 57.514-12.16 77.379-31.845-2.594-1.207-5.114-2.581-7.539-4.116z" fill="#ffdede"/></g></g></g></g></g></g></g></g></g><g><g><g><g><g><path d="m256.001 365.107c-17.318 0-31.407-14.089-31.407-31.407v-9.397c0-5.522 4.477-10 10-10h42.814c5.522 0 10 4.478 10 10v9.397c0 17.318-14.089 31.407-31.407 31.407zm-11.392-30.804c.315 6.011 5.304 10.804 11.392 10.804s11.077-4.793 11.392-10.804z"/></g></g></g></g><path d="m511.981 125.647c-.933-41.518-35.44-74.568-76.988-73.605-18.415.414-35.168 6.043-51.04 17.177-30.933-20.766-71.894-30.485-127.945-30.485-51.568 0-93.692 10.799-125.931 31.942-16.474-12.1-33.868-18.202-53.069-18.634-.575-.014-1.142-.019-1.715-.019-40.747 0-74.353 32.682-75.273 73.624-.794 35.372 22.702 65.809 56.008 74.523-1.969 14.274-2.96 29.461-2.96 45.551 0 47.507 4.718 82.918 14.848 111.439 11.849 33.362 31.45 57.925 59.921 75.09 1.389.838 2.816 1.668 4.243 2.466.453.253.917.468 1.389.645 1.853 1.813 3.83 3.522 5.926 5.117 11.054 8.417 24.232 12.865 38.105 12.865h.015c4.32 0 8.671-.47 12.93-1.398 19.923 13.856 43.564 21.321 68.307 21.321 24.816 0 48.507-7.501 68.458-21.423.045.011.09.022.135.032 4.361.974 8.819 1.468 13.249 1.468h.015c13.871 0 27.05-4.447 38.113-12.863 5.4-4.11 10.012-8.98 13.736-14.433.689-.317 1.352-.718 1.976-1.205 37.021-28.901 48.1-71.825 59.707-129.311 1.094-5.414-2.409-10.689-7.822-11.781-5.41-1.098-10.689 2.41-11.781 7.822-7.886 39.052-15.397 70.76-31.314 94.625-.826-12.992-5.597-25.393-13.919-35.806-1.115-1.391-2.271-2.77-3.534-4.217-16.326-19.267-30.505-29.598-43.016-38.715-21.396-15.591-36.856-26.855-50.615-79.136-.396-1.499-1.063-3.043-2.097-4.859-6.389-11.218-17.972-17.915-30.984-17.915 0 0 0 0-.001 0-13.012 0-24.596 6.697-30.983 17.911-1.038 1.819-1.705 3.367-2.101 4.87-13.76 52.273-29.219 63.538-50.615 79.13-12.512 9.117-26.692 19.451-43.019 38.719-1.335 1.532-2.493 2.915-3.538 4.223-10.643 13.313-15.477 29.892-13.672 46.8-29.571-29.737-42.062-76.249-42.062-151.482 0-124.075 61.55-186.986 182.941-186.986 112.364 0 162.708 40.652 179.558 144.992l.218 1.375c.844 5.459 5.962 9.192 11.411 8.354 5.458-.846 9.198-5.955 8.354-11.412l-.238-1.503c-.01-.064-.021-.127-.031-.191 33.671-8.47 57.501-39.084 56.7-74.702zm-253.23 327.619c-21.893 0-42.75-7.013-59.961-19.968 2.531-1.651 5.04-3.329 7.494-4.969 17.198-11.497 33.442-22.355 52.824-22.355 19.392 0 35.643 10.865 52.848 22.369 2.322 1.553 4.695 3.139 7.089 4.705-17.273 13.116-38.251 20.218-60.294 20.218zm-114.326-90.379c.878-1.099 1.871-2.282 3.035-3.617.032-.036.063-.073.094-.11 14.799-17.477 27.965-27.07 39.581-35.535 22.814-16.625 42.523-30.983 58.079-89.829.047-.094.122-.235.235-.433 2.787-4.893 7.873-7.813 13.607-7.813 5.733 0 10.819 2.921 13.605 7.813.112.197.188.339.234.433 15.554 58.838 35.264 73.205 58.078 89.828 11.616 8.465 24.783 18.059 39.581 35.535.034.04.068.08.104.12 1.094 1.251 2.088 2.436 3.029 3.61 7.478 9.357 10.788 21.062 9.317 32.955-1.429 11.56-7.252 21.759-16.396 28.718-6.099 4.64-13.138 7.512-20.605 8.445.174-1.082.171-2.198-.022-3.307-.563-3.224-2.667-5.968-5.634-7.349-2.206-1.025-4.362-2.203-6.41-3.498-3.6-2.279-7.13-4.64-10.867-7.139-18.929-12.655-38.503-25.742-63.964-25.742-25.451 0-45.017 13.079-63.938 25.729-3.581 2.394-7.283 4.868-10.893 7.152-2.173 1.375-4.47 2.617-6.825 3.69-2.995 1.365-5.126 4.116-5.699 7.357-.181 1.021-.199 2.049-.067 3.052-7.311-.987-14.199-3.837-20.179-8.39-9.149-6.962-14.974-17.162-16.403-28.723-1.469-11.89 1.841-23.592 9.323-32.952zm-84.917-182.51c-23.587-6.945-40.064-28.881-39.494-54.281.676-30.072 25.356-54.073 55.285-54.073.419 0 .839.005 1.259.014 13.269.299 25.125 3.939 36.732 11.358-26.836 23.408-44.886 55.86-53.782 96.982zm392.008.278c-9.621-43.283-26.428-75.695-51.004-98.38 11.034-6.666 22.346-9.955 34.929-10.238.422-.009.839-.014 1.259-.014 29.928 0 54.609 24.003 55.286 54.073.579 25.75-16.362 47.938-40.47 54.559z"/><g><g><g><g><path d="m448.93 258.491c-4.171 0-7.988-2.701-9.402-6.615-1.377-3.812-.246-8.229 2.808-10.902 3.279-2.868 8.171-3.262 11.87-.97 3.52 2.18 5.372 6.459 4.52 10.516-.96 4.573-5.111 7.971-9.796 7.971z"/></g></g></g></g><g><g><g><g><g><path d="m324.905 253.571c11.664-11.664 30.643-11.662 42.309.003 3.905 3.905 3.905 10.237 0 14.142s-10.237 3.905-14.142 0c-3.867-3.867-10.159-3.869-14.024-.003-3.905 3.905-10.237 3.905-14.142 0-3.907-3.905-3.907-10.237-.001-14.142z"/></g></g></g></g><g><g><g><g><path d="m187.319 253.571c3.905 3.905 3.905 10.237 0 14.142s-10.237 3.905-14.142 0c-3.866-3.866-10.157-3.864-14.024.003-3.905 3.905-10.237 3.905-14.142 0s-3.905-10.237 0-14.142c11.665-11.666 30.644-11.667 42.308-.003z"/></g></g></g></g></g></g></g></svg>