<svg id="Capa_1" enable-background="new 0 0 512 512" height="512" viewBox="0 0 512 512" width="512" xmlns="http://www.w3.org/2000/svg"><g><g><g><g><g><path clip-rule="evenodd" d="m445.108 258.661c62.044-35.121 54.316-115.916 54.316-115.916-7.876-4.997-46.203-18.428-103.151 5.202" fill="#ffbdbc" fill-rule="evenodd"/></g></g></g><g><g><g><path clip-rule="evenodd" d="m66.892 258.661c-62.045-35.121-54.316-115.915-54.316-115.915 7.876-4.997 46.203-18.428 103.151 5.202" fill="#ffbdbc" fill-rule="evenodd"/></g></g></g><g><g><g><g><g><g><path clip-rule="evenodd" d="m445.36 324.05c0 30.03-7.01 57.51-19.48 81.41-30.91 59.23-95.37 96.54-169.88 96.54s-138.97-37.31-169.88-96.54c-12.47-23.9-19.48-51.38-19.48-81.41 0-115.133 67.307-259.43 189.36-259.43 123.572 0 189.36 144.297 189.36 259.43z" fill="#f5eeec" fill-rule="evenodd"/></g></g></g></g><g><g><g><path clip-rule="evenodd" d="m172.168 87.943c-5.826-1.732-11.541-4.178-17.028-7.369-25.853-15.032-39.848-42.638-38.745-70.574-10.454 6.509-19.515 15.596-26.137 26.984-21.654 37.24-9.019 84.983 28.222 106.637" fill="#cfd3df" fill-rule="evenodd"/></g></g></g><g><g><g><path clip-rule="evenodd" d="m393.52 143.621c37.24-21.654 49.876-69.397 28.222-106.637-6.622-11.388-15.683-20.475-26.137-26.984 1.103 27.936-12.891 55.542-38.744 70.575-3.736 2.173-7.579 4-11.49 5.492" fill="#cfd3df" fill-rule="evenodd"/></g></g></g></g><g><g><g><g><path clip-rule="evenodd" d="m425.88 405.46c-30.91 59.23-95.37 96.54-169.88 96.54s-138.97-37.31-169.88-96.54c31.15-46.73 95.52-78.81 169.88-78.81s138.73 32.08 169.88 78.81z" fill="#ff9c9b" fill-rule="evenodd"/></g></g></g></g><g><g><g><g><path d="m256.149 373.495c-.098-.931-.149-1.877-.149-2.834 0 .957-.051 1.903-.149 2.834z" fill="none"/></g></g></g></g></g></g><g><g><g><g><g><path d="m255.856 469.132c-12.168 0-23.607-4.738-32.212-13.342-3.905-3.905-3.905-10.237 0-14.143 3.906-3.904 10.236-3.904 14.143 0 9.963 9.964 26.176 9.964 36.139 0 3.906-3.904 10.236-3.904 14.143 0 3.905 3.905 3.905 10.237 0 14.143-8.605 8.604-20.045 13.342-32.213 13.342z"/></g></g></g></g><g><g><g><g><g><path d="m288.643 408.17c-5.523 0-10-4.477-10-10v-16.545c0-5.523 4.477-10 10-10 5.522 0 10 4.477 10 10v16.545c0 5.523-4.478 10-10 10z"/></g></g></g></g><g><g><g><g><path d="m223.357 408.17c-5.522 0-10-4.477-10-10v-16.545c0-5.523 4.478-10 10-10 5.523 0 10 4.477 10 10v16.545c0 5.523-4.477 10-10 10z"/></g></g></g></g></g><path d="m509.378 141.794c-.294-3.073-1.99-5.838-4.597-7.492-8.986-5.702-37.85-15.24-79.527-6.044 20.03-27.374 23.244-65.152 5.133-96.301-7.204-12.389-17.405-22.917-29.497-30.446-3.143-1.957-7.11-2.016-10.313-.155-3.2 1.861-5.111 5.339-4.965 9.039.998 25.261-11.945 48.84-33.778 61.535-3.213 1.868-6.587 3.481-10.027 4.793-.794.303-1.527.697-2.192 1.164-11.406-7.77-23.133-13.383-34.997-16.66-5.32-1.47-10.83 1.653-12.302 6.977-1.47 5.324 1.654 10.831 6.977 12.301 34.8 9.61 69.026 44.003 96.375 96.843 24.484 47.305 39.694 103.518 39.694 146.702 0 21.932-3.893 42.738-11.591 62.059-15.967-18.788-37.229-34.725-62.349-46.617-31.568-14.943-68.023-22.842-105.422-22.842s-73.855 7.899-105.423 22.843c-25.12 11.892-46.382 27.829-62.349 46.616-7.699-19.321-11.591-40.127-11.591-62.059 0-43.216 15.232-99.458 39.752-146.778 27.388-52.855 61.658-87.238 96.499-96.817 5.325-1.464 8.456-6.968 6.992-12.293-1.465-5.326-6.975-8.457-12.293-6.991-11.799 3.243-23.462 8.795-34.81 16.477-4.364-1.466-8.597-3.384-12.611-5.718-21.833-12.696-34.776-36.275-33.778-61.536.146-3.7-1.765-7.178-4.965-9.039s-7.168-1.802-10.313.155c-12.092 7.53-22.293 18.058-29.497 30.447-18.112 31.149-14.898 68.927 5.133 96.301-41.678-9.196-70.542.343-79.527 6.044-2.606 1.654-4.303 4.418-4.597 7.492-.086.892-2.02 22.143 4.114 48.044 8.277 34.951 27.376 61.759 55.229 77.526.348.197.702.37 1.061.521-4.151 19.799-6.39 38.924-6.39 56.165 0 30.872 6.936 59.818 20.615 86.035.033.063.066.125.1.187 32.845 62.754 101.277 101.728 178.649 101.728 77.37 0 145.802-38.973 178.646-101.725.034-.062.068-.125.101-.189 13.68-26.216 20.616-55.163 20.616-86.037 0-17.238-2.239-36.365-6.389-56.165.359-.151.713-.324 1.06-.521 27.853-15.767 46.952-42.575 55.229-77.526 6.134-25.9 4.201-47.151 4.115-48.043zm-410.476-99.784c2.551-4.386 5.586-8.47 9.023-12.167 4.748 24.661 19.883 46.406 42.186 59.375 1.556.905 3.139 1.761 4.744 2.569-12.303 11.129-24.087 24.826-35.1 40.842-29.49-19.79-38.953-59.489-20.853-90.619zm-72.565 143.798c-3.749-15.526-4.163-29.368-4.042-36.664 11.805-4.456 41.938-9.994 83.564 5.655-2.461 4.299-4.871 8.724-7.228 13.272-12.973 25.035-23.484 52.522-30.745 79.532-20.867-13.223-34.836-33.988-41.549-61.795zm229.663 306.192c-67.755 0-127.752-32.756-158.13-85.888 31.619-42.988 91.541-69.462 158.13-69.462s126.511 26.474 158.13 69.462c-30.378 53.132-90.375 85.888-158.13 85.888zm101.169-400.225c1.598-.804 3.172-1.657 4.717-2.556 22.305-12.969 37.44-34.714 42.188-59.375 3.438 3.696 6.473 7.78 9.023 12.166 18.096 31.124 8.641 70.812-20.834 90.608-11.011-16.018-22.794-29.716-35.094-40.843zm86.948 155.823c-7.25-26.978-17.741-54.433-30.685-79.442-2.371-4.581-4.796-9.036-7.273-13.364 41.622-15.643 71.748-10.103 83.549-5.646.285 17.24-2.475 71.056-45.591 98.452z"/><g><g><g><g><path d="m256 74.62c-4.19 0-7.986-2.696-9.407-6.63-1.395-3.863-.199-8.338 2.938-10.992 3.281-2.776 8.094-3.124 11.746-.864 3.493 2.161 5.343 6.416 4.533 10.446-.928 4.618-5.106 8.04-9.81 8.04z"/></g></g></g></g><g><g><g><g><g><path d="m324.904 263.57c11.664-11.664 30.643-11.662 42.309.003 3.905 3.905 3.905 10.237 0 14.142s-10.237 3.905-14.142 0c-3.867-3.867-10.159-3.869-14.024-.003-3.905 3.905-10.237 3.905-14.142 0-3.906-3.905-3.906-10.236-.001-14.142z"/></g></g></g></g><g><g><g><g><path d="m187.318 263.57c3.905 3.905 3.905 10.237 0 14.142s-10.237 3.905-14.142 0c-3.866-3.866-10.157-3.864-14.024.003-3.905 3.905-10.237 3.905-14.142 0s-3.905-10.237 0-14.142c11.665-11.665 30.645-11.666 42.308-.003z"/></g></g></g></g></g></g></g></svg>