<svg id="Capa_1" enable-background="new 0 0 512 512" height="512" viewBox="0 0 512 512" width="512" xmlns="http://www.w3.org/2000/svg"><g><g><g><g><g><ellipse cx="256" cy="255.983" fill="#e5ae8c" rx="246" ry="217.876"/></g></g></g><g><g><g><g><path d="m446.02 263.884c-2.22 38.7-20.77 75.22-52.79 103.58-36.32 32.16-85.05 49.88-137.23 49.88s-100.91-17.72-137.23-49.88c-32.02-28.36-50.57-64.88-52.79-103.58-.15-2.62-.23-5.26-.23-7.9 0-16.8 3.07-33.27 8.98-48.93 8.73-23.13 23.65-44.49 44.04-62.55 16.83-14.91 36.33-26.71 57.61-35.09 5.13-2.02 10.45-3 15.73-3 11.77 0 23.33 4.88 31.95 14.01 8.82 9.33 20.38 13.99 31.94 13.99s23.12-4.66 31.94-13.99c12.49-13.22 31.12-17.53 47.68-11.01 21.28 8.38 40.78 20.18 57.61 35.09 20.39 18.06 35.31 39.42 44.04 62.55" fill="#ffdede"/></g></g></g><g><g><g><g><path d="m446.25 255.984c0 2.64-.08 5.28-.23 7.9-14.6 14.6-41.69 24.41-72.7 24.41-46.48 0-84.16-22.05-84.16-49.23 0-27.19 37.68-49.23 84.16-49.23 25.59 0 48.51 6.68 63.95 17.22 5.91 15.66 8.98 32.13 8.98 48.93z" fill="#b6bccf"/></g></g></g><g><g><g><path d="m222.84 239.064c0 27.18-37.68 49.23-84.16 49.23-31.01 0-58.1-9.81-72.7-24.41-.15-2.62-.23-5.26-.23-7.9 0-16.8 3.07-33.27 8.98-48.93 15.44-10.54 38.36-17.22 63.95-17.22 46.48 0 84.16 22.04 84.16 49.23z" fill="#b6bccf"/></g></g></g><g><g><g><circle clip-rule="evenodd" cx="256" cy="308.446" fill="#ff9c9b" fill-rule="evenodd" r="19.82"/></g></g></g></g></g></g><g><g><path d="m456.25 255.984c0-17.889-3.238-35.538-9.625-52.461-9.435-25.002-25.17-47.378-46.764-66.504-17.602-15.594-37.982-28.012-60.577-36.909-20.329-8.005-43.333-2.726-58.61 13.444-6.621 7.004-15.384 10.86-24.674 10.86-9.291 0-18.053-3.856-24.669-10.855-10.287-10.896-24.583-17.145-39.221-17.145-6.643 0-13.169 1.243-19.394 3.695-22.594 8.897-42.976 21.315-60.576 36.908-21.594 19.127-37.329 41.502-46.766 66.505-6.386 16.922-9.624 34.572-9.624 52.461 0 2.765.083 5.615.246 8.472.001.015.002.03.003.045 2.38 41.267 22.316 80.491 56.141 110.45 38.156 33.787 89.247 52.393 143.859 52.393s105.703-18.606 143.861-52.393c33.834-29.968 53.771-69.205 56.141-110.486 0-.002 0-.005 0-.007.166-2.854.249-5.705.249-8.473zm-27.233-42.364c4.801 13.725 7.233 27.961 7.233 42.363 0 1.105-.016 2.228-.046 3.359-13.798 11.759-37.432 18.951-62.884 18.951-20.73 0-40.072-4.636-54.461-13.054-7.357-4.305-19.699-13.429-19.699-26.177 0-12.752 12.342-21.876 19.699-26.179 14.387-8.416 33.728-13.051 54.461-13.051 21.316.002 41.395 4.999 55.697 13.788zm-353.221 45.723c-.03-1.132-.046-2.255-.046-3.359 0-14.403 2.432-28.639 7.232-42.363 14.303-8.789 34.382-13.786 55.698-13.786 20.732 0 40.074 4.635 54.461 13.051 7.357 4.303 19.699 13.427 19.699 26.179 0 12.748-12.342 21.872-19.7 26.177-14.389 8.418-33.729 13.054-54.46 13.054-25.453-.002-49.085-7.193-62.884-18.953zm310.806 100.635c-34.496 30.544-80.878 47.366-130.602 47.366s-96.105-16.822-130.6-47.366c-23.665-20.96-39.606-46.908-46.209-74.683 16.453 8.323 37.282 13 59.489 13 52.8 0 94.16-26.018 94.16-59.23 0-33.213-41.36-59.23-94.16-59.23-14.899 0-29.418 2.173-42.41 6.206 7.696-12.299 17.435-23.691 29.132-34.05 15.846-14.039 34.23-25.232 54.643-33.27 3.882-1.529 7.941-2.305 12.066-2.305 9.293 0 18.058 3.862 24.683 10.879 10.436 11.041 24.361 17.121 39.207 17.121s28.77-6.08 39.21-17.123c9.637-10.201 24.059-13.568 36.746-8.572 20.412 8.038 38.797 19.231 54.644 33.271 11.696 10.359 21.435 21.75 29.131 34.049-12.992-4.033-27.511-6.206-42.41-6.206-52.8 0-94.16 26.017-94.16 59.23s41.36 59.23 94.16 59.23c22.206 0 43.035-4.676 59.488-13-6.604 27.774-22.545 53.723-46.208 74.683z"/><path d="m298.986 337.072c-5.522 0-10 4.478-10 10 0 6.34-5.156 11.497-11.493 11.497s-11.493-5.157-11.493-11.497v-10.532c11.539-4.12 19.819-15.158 19.819-28.094 0-16.443-13.377-29.82-29.819-29.82-16.443 0-29.82 13.377-29.82 29.82 0 12.936 8.281 23.975 19.82 28.094v10.532c0 6.34-5.156 11.497-11.493 11.497s-11.493-5.157-11.493-11.497c0-5.522-4.477-10-10-10s-10 4.478-10 10c0 17.367 14.128 31.497 31.493 31.497 8.301 0 15.861-3.229 21.493-8.496 5.632 5.267 13.193 8.496 21.493 8.496 17.365 0 31.493-14.13 31.493-31.497 0-5.522-4.477-10-10-10zm-42.986-38.446c5.414 0 9.819 4.405 9.819 9.82 0 5.414-4.405 9.819-9.819 9.819-5.415 0-9.82-4.405-9.82-9.819 0-5.415 4.405-9.82 9.82-9.82z"/><g><g><g><g><path d="m256 483.859c-68.154 0-132.285-23.556-180.578-66.328-48.637-43.077-75.422-100.449-75.422-161.548 0-110.051 88.113-204.311 209.514-224.129 5.448-.887 10.59 2.807 11.48 8.258s-2.807 10.591-8.258 11.481c-111.679 18.231-192.736 104.189-192.736 204.39 0 114.623 105.869 207.876 236 207.876s236-93.253 236-207.876c0-99.16-81.094-184.984-192.822-204.07-5.444-.931-9.104-6.098-8.174-11.541.931-5.442 6.097-9.1 11.541-8.174 57.595 9.839 110.39 37.319 148.66 77.38 39.204 41.037 60.795 93.032 60.795 146.405 0 61.1-26.785 118.472-75.422 161.548-48.293 42.772-112.424 66.328-180.578 66.328z"/></g></g></g></g><g><g><g><g><path d="m256 48.14c-4.191 0-8.031-2.712-9.429-6.664-1.414-3.997-.087-8.565 3.233-11.196 3.287-2.605 7.996-2.855 11.541-.615 3.463 2.188 5.251 6.373 4.472 10.39-.901 4.64-5.094 8.085-9.817 8.085z"/></g></g></g></g><g><g><g><g><g><path d="m324.904 243.553c11.664-11.664 30.643-11.662 42.309.003 3.905 3.905 3.905 10.237 0 14.142s-10.237 3.905-14.142 0c-3.867-3.867-10.159-3.869-14.024-.003-3.905 3.905-10.237 3.905-14.142 0-3.906-3.905-3.906-10.237-.001-14.142z"/></g></g></g></g><g><g><g><g><path d="m187.318 243.553c3.905 3.905 3.905 10.237 0 14.142s-10.237 3.905-14.142 0c-3.866-3.866-10.157-3.864-14.024.003-3.905 3.905-10.237 3.905-14.142 0s-3.905-10.237 0-14.142c11.665-11.665 30.645-11.667 42.308-.003z"/></g></g></g></g></g></g></g></g></svg>